<svg xmlns="http://www.w3.org/2000/svg" xmlns:xlink="http://www.w3.org/1999/xlink" width="500" zoomAndPan="magnify" viewBox="0 0 375 374.999991" height="500" preserveAspectRatio="xMidYMid meet" version="1.0"><defs><clipPath id="93085d5b63"><path d="M 37.5 37.5 L 337.5 37.5 L 337.5 337.5 L 37.5 337.5 Z M 37.5 37.5 " clip-rule="nonzero"/></clipPath><clipPath id="5650d336ed"><path d="M 48.09375 129 L 180 129 L 180 247.679688 L 48.09375 247.679688 Z M 48.09375 129 " clip-rule="nonzero"/></clipPath><clipPath id="e4dbbcda49"><path d="M 196 127.679688 L 327 127.679688 L 327 247.679688 L 196 247.679688 Z M 196 127.679688 " clip-rule="nonzero"/></clipPath><clipPath id="31db28acae"><path d="M 151 127.679688 L 236 127.679688 L 236 203 L 151 203 Z M 151 127.679688 " clip-rule="nonzero"/></clipPath><clipPath id="dd1c09bcfc"><path d="M 48.09375 133 L 89 133 L 89 176 L 48.09375 176 Z M 48.09375 133 " clip-rule="nonzero"/></clipPath><clipPath id="76ff2d0897"><path d="M 284 220 L 327 220 L 327 247.679688 L 284 247.679688 Z M 284 220 " clip-rule="nonzero"/></clipPath></defs><g clip-path="url(#93085d5b63)"><path fill="#fdcfcf" d="M 337.5 187.5 C 337.5 189.953125 337.441406 192.410156 337.320312 194.859375 C 337.199219 197.3125 337.019531 199.757812 336.777344 202.203125 C 336.535156 204.644531 336.238281 207.082031 335.875 209.507812 C 335.515625 211.9375 335.097656 214.355469 334.617188 216.761719 C 334.140625 219.171875 333.601562 221.566406 333.003906 223.945312 C 332.40625 226.328125 331.753906 228.695312 331.039062 231.042969 C 330.328125 233.390625 329.558594 235.722656 328.730469 238.035156 C 327.90625 240.34375 327.019531 242.632812 326.082031 244.902344 C 325.140625 247.171875 324.148438 249.414062 323.097656 251.632812 C 322.046875 253.851562 320.945312 256.042969 319.789062 258.210938 C 318.632812 260.375 317.421875 262.507812 316.160156 264.617188 C 314.898438 266.722656 313.585938 268.792969 312.21875 270.835938 C 310.855469 272.875 309.445312 274.882812 307.980469 276.855469 C 306.519531 278.828125 305.007812 280.761719 303.453125 282.660156 C 301.894531 284.554688 300.292969 286.414062 298.644531 288.234375 C 296.992188 290.054688 295.300781 291.832031 293.566406 293.566406 C 291.832031 295.300781 290.054688 296.992188 288.234375 298.644531 C 286.414062 300.292969 284.554688 301.894531 282.660156 303.453125 C 280.761719 305.007812 278.828125 306.519531 276.855469 307.980469 C 274.882812 309.445312 272.875 310.855469 270.835938 312.21875 C 268.792969 313.585938 266.722656 314.898438 264.617188 316.160156 C 262.507812 317.421875 260.375 318.632812 258.210938 319.789062 C 256.042969 320.945312 253.851562 322.046875 251.632812 323.097656 C 249.414062 324.148438 247.171875 325.140625 244.902344 326.082031 C 242.632812 327.019531 240.34375 327.90625 238.035156 328.730469 C 235.722656 329.558594 233.390625 330.328125 231.042969 331.039062 C 228.695312 331.753906 226.328125 332.40625 223.945312 333.003906 C 221.566406 333.601562 219.171875 334.140625 216.761719 334.617188 C 214.355469 335.097656 211.9375 335.515625 209.507812 335.875 C 207.082031 336.238281 204.644531 336.535156 202.203125 336.777344 C 199.757812 337.019531 197.3125 337.199219 194.859375 337.320312 C 192.410156 337.441406 189.953125 337.5 187.5 337.5 C 185.046875 337.5 182.589844 337.441406 180.140625 337.320312 C 177.6875 337.199219 175.242188 337.019531 172.796875 336.777344 C 170.355469 336.535156 167.917969 336.238281 165.492188 335.875 C 163.0625 335.515625 160.644531 335.097656 158.238281 334.617188 C 155.828125 334.140625 153.433594 333.601562 151.054688 333.003906 C 148.671875 332.40625 146.304688 331.753906 143.957031 331.039062 C 141.609375 330.328125 139.277344 329.558594 136.964844 328.730469 C 134.65625 327.90625 132.367188 327.019531 130.097656 326.082031 C 127.828125 325.140625 125.585938 324.148438 123.367188 323.097656 C 121.148438 322.046875 118.957031 320.945312 116.789062 319.789062 C 114.625 318.632812 112.488281 317.421875 110.382812 316.160156 C 108.277344 314.898438 106.207031 313.585938 104.164062 312.21875 C 102.125 310.855469 100.117188 309.445312 98.144531 307.980469 C 96.171875 306.519531 94.238281 305.007812 92.339844 303.453125 C 90.441406 301.894531 88.585938 300.292969 86.765625 298.644531 C 84.945312 296.992188 83.167969 295.300781 81.433594 293.566406 C 79.699219 291.832031 78.007812 290.054688 76.355469 288.234375 C 74.707031 286.414062 73.105469 284.554688 71.546875 282.660156 C 69.992188 280.761719 68.480469 278.828125 67.019531 276.855469 C 65.554688 274.882812 64.144531 272.875 62.78125 270.835938 C 61.414062 268.792969 60.101562 266.722656 58.839844 264.617188 C 57.578125 262.507812 56.367188 260.375 55.210938 258.210938 C 54.054688 256.042969 52.953125 253.851562 51.902344 251.632812 C 50.851562 249.414062 49.859375 247.171875 48.917969 244.902344 C 47.980469 242.632812 47.09375 240.34375 46.269531 238.035156 C 45.441406 235.722656 44.671875 233.390625 43.957031 231.042969 C 43.246094 228.695312 42.589844 226.328125 41.996094 223.945312 C 41.398438 221.566406 40.859375 219.171875 40.382812 216.761719 C 39.902344 214.355469 39.484375 211.9375 39.125 209.507812 C 38.761719 207.082031 38.464844 204.644531 38.222656 202.203125 C 37.980469 199.757812 37.800781 197.3125 37.679688 194.859375 C 37.558594 192.410156 37.5 189.953125 37.5 187.5 C 37.5 185.046875 37.558594 182.589844 37.679688 180.140625 C 37.800781 177.6875 37.980469 175.242188 38.222656 172.796875 C 38.464844 170.355469 38.761719 167.917969 39.125 165.492188 C 39.484375 163.0625 39.902344 160.644531 40.382812 158.238281 C 40.859375 155.828125 41.398438 153.433594 41.996094 151.054688 C 42.589844 148.671875 43.246094 146.304688 43.957031 143.957031 C 44.671875 141.609375 45.441406 139.277344 46.269531 136.964844 C 47.09375 134.65625 47.980469 132.367188 48.917969 130.097656 C 49.859375 127.828125 50.851562 125.585938 51.902344 123.367188 C 52.953125 121.148438 54.054688 118.957031 55.210938 116.789062 C 56.367188 114.625 57.578125 112.488281 58.839844 110.382812 C 60.101562 108.277344 61.414062 106.207031 62.78125 104.164062 C 64.144531 102.125 65.554688 100.117188 67.019531 98.144531 C 68.480469 96.171875 69.992188 94.238281 71.546875 92.339844 C 73.105469 90.445312 74.707031 88.585938 76.355469 86.765625 C 78.007812 84.945312 79.699219 83.167969 81.433594 81.433594 C 83.167969 79.699219 84.945312 78.007812 86.765625 76.355469 C 88.585938 74.707031 90.441406 73.105469 92.339844 71.546875 C 94.238281 69.992188 96.171875 68.480469 98.144531 67.019531 C 100.117188 65.554688 102.125 64.144531 104.164062 62.78125 C 106.207031 61.414062 108.277344 60.101562 110.382812 58.839844 C 112.488281 57.578125 114.625 56.367188 116.789062 55.210938 C 118.957031 54.054688 121.148438 52.953125 123.367188 51.902344 C 125.585938 50.851562 127.828125 49.859375 130.097656 48.917969 C 132.367188 47.980469 134.65625 47.09375 136.964844 46.269531 C 139.277344 45.441406 141.609375 44.671875 143.957031 43.957031 C 146.304688 43.246094 148.671875 42.589844 151.054688 41.996094 C 153.433594 41.398438 155.828125 40.859375 158.238281 40.382812 C 160.644531 39.902344 163.0625 39.484375 165.492188 39.125 C 167.917969 38.761719 170.355469 38.464844 172.796875 38.222656 C 175.242188 37.980469 177.6875 37.800781 180.140625 37.679688 C 182.589844 37.558594 185.046875 37.5 187.5 37.5 C 189.953125 37.5 192.410156 37.558594 194.859375 37.679688 C 197.3125 37.800781 199.757812 37.980469 202.203125 38.222656 C 204.644531 38.464844 207.082031 38.761719 209.507812 39.125 C 211.9375 39.484375 214.355469 39.902344 216.761719 40.382812 C 219.171875 40.859375 221.566406 41.398438 223.945312 41.996094 C 226.328125 42.589844 228.695312 43.246094 231.042969 43.957031 C 233.390625 44.671875 235.722656 45.441406 238.035156 46.269531 C 240.34375 47.09375 242.632812 47.980469 244.902344 48.917969 C 247.171875 49.859375 249.414062 50.851562 251.632812 51.902344 C 253.851562 52.953125 256.042969 54.054688 258.210938 55.210938 C 260.375 56.367188 262.511719 57.578125 264.617188 58.839844 C 266.722656 60.101562 268.792969 61.414062 270.835938 62.78125 C 272.875 64.144531 274.882812 65.554688 276.855469 67.019531 C 278.828125 68.480469 280.761719 69.992188 282.660156 71.546875 C 284.554688 73.105469 286.414062 74.707031 288.234375 76.355469 C 290.054688 78.007812 291.832031 79.699219 293.566406 81.433594 C 295.300781 83.167969 296.992188 84.945312 298.644531 86.765625 C 300.292969 88.585938 301.894531 90.445312 303.453125 92.339844 C 305.007812 94.238281 306.519531 96.171875 307.980469 98.144531 C 309.445312 100.117188 310.855469 102.125 312.21875 104.164062 C 313.585938 106.207031 314.898438 108.277344 316.160156 110.382812 C 317.421875 112.488281 318.632812 114.625 319.789062 116.789062 C 320.945312 118.957031 322.046875 121.148438 323.097656 123.367188 C 324.148438 125.585938 325.140625 127.828125 326.082031 130.097656 C 327.019531 132.367188 327.90625 134.65625 328.730469 136.964844 C 329.558594 139.277344 330.328125 141.609375 331.042969 143.957031 C 331.753906 146.304688 332.40625 148.671875 333.003906 151.054688 C 333.601562 153.433594 334.140625 155.828125 334.617188 158.238281 C 335.097656 160.644531 335.515625 163.0625 335.875 165.492188 C 336.238281 167.917969 336.535156 170.355469 336.777344 172.796875 C 337.019531 175.242188 337.199219 177.6875 337.320312 180.140625 C 337.441406 182.589844 337.5 185.046875 337.5 187.5 Z M 337.5 187.5 " fill-opacity="1" fill-rule="nonzero"/></g><g clip-path="url(#5650d336ed)"><path fill="#000000" d="M 178.632812 236.375 L 160.15625 203.792969 C 160.035156 203.578125 159.878906 203.398438 159.683594 203.246094 C 159.488281 203.097656 159.273438 202.988281 159.035156 202.921875 C 158.796875 202.859375 158.558594 202.839844 158.3125 202.871094 C 158.070312 202.902344 157.839844 202.980469 157.625 203.101562 C 157.414062 203.226562 157.230469 203.382812 157.082031 203.578125 C 156.929688 203.773438 156.824219 203.992188 156.757812 204.230469 C 156.695312 204.464844 156.675781 204.707031 156.707031 204.953125 C 156.738281 205.195312 156.816406 205.425781 156.9375 205.640625 L 175.425781 238.21875 C 175.617188 238.539062 175.761719 238.875 175.855469 239.234375 C 175.945312 239.59375 175.984375 239.960938 175.96875 240.332031 C 175.957031 240.703125 175.886719 241.0625 175.765625 241.414062 C 175.648438 241.765625 175.476562 242.09375 175.261719 242.394531 C 175.046875 242.695312 174.789062 242.960938 174.496094 243.1875 C 174.203125 243.414062 173.882812 243.589844 173.535156 243.722656 C 173.191406 243.855469 172.832031 243.933594 172.460938 243.960938 C 172.09375 243.988281 171.726562 243.960938 171.367188 243.878906 L 171.292969 243.878906 L 162.476562 242.339844 C 162.800781 241.816406 163.089844 241.277344 163.347656 240.722656 C 163.609375 240.164062 163.832031 239.59375 164.023438 239.011719 C 164.214844 238.425781 164.367188 237.835938 164.484375 237.230469 C 164.605469 236.628906 164.683594 236.019531 164.730469 235.410156 C 164.773438 234.796875 164.78125 234.183594 164.753906 233.570312 C 164.722656 232.957031 164.660156 232.347656 164.554688 231.742188 C 164.453125 231.136719 164.3125 230.539062 164.136719 229.949219 C 163.964844 229.359375 163.753906 228.785156 163.507812 228.222656 C 163.265625 227.660156 162.988281 227.113281 162.675781 226.582031 C 162.363281 226.054688 162.023438 225.546875 161.652344 225.058594 C 161.277344 224.570312 160.878906 224.105469 160.449219 223.667969 C 160.023438 223.226562 159.570312 222.816406 159.089844 222.429688 C 158.613281 222.046875 158.113281 221.691406 157.59375 221.367188 C 157.070312 221.046875 156.53125 220.753906 155.976562 220.496094 C 155.421875 220.238281 154.851562 220.015625 154.269531 219.824219 C 153.683594 219.636719 153.09375 219.484375 152.492188 219.367188 C 151.890625 219.25 151.285156 219.167969 150.671875 219.125 C 150.0625 219.082031 149.449219 219.074219 148.835938 219.105469 C 148.226562 219.136719 147.617188 219.203125 147.015625 219.308594 C 146.410156 219.414062 145.816406 219.554688 145.226562 219.730469 C 144.640625 219.910156 144.066406 220.121094 143.503906 220.367188 C 142.945312 220.613281 142.398438 220.894531 141.871094 221.207031 C 141.34375 221.519531 140.839844 221.863281 140.351562 222.238281 C 139.867188 222.613281 139.40625 223.015625 138.96875 223.445312 C 138.53125 223.875 138.121094 224.332031 137.738281 224.808594 C 137.355469 225.289062 137.003906 225.792969 136.683594 226.316406 C 136.363281 226.835938 136.074219 227.378906 135.816406 227.9375 C 135.5625 228.496094 135.339844 229.066406 135.152344 229.652344 C 134.964844 230.234375 134.8125 230.828125 134.699219 231.433594 C 134.582031 232.035156 134.503906 232.644531 134.460938 233.257812 C 134.421875 233.871094 134.414062 234.484375 134.449219 235.097656 C 134.480469 235.710938 134.550781 236.320312 134.65625 236.921875 C 134.683594 237.121094 134.726562 237.316406 134.777344 237.511719 L 105.398438 232.414062 C 105.691406 231.882812 105.953125 231.339844 106.183594 230.777344 C 106.414062 230.21875 106.609375 229.644531 106.769531 229.0625 C 106.929688 228.476562 107.058594 227.886719 107.148438 227.289062 C 107.238281 226.6875 107.292969 226.085938 107.3125 225.480469 C 107.332031 224.875 107.316406 224.269531 107.261719 223.667969 C 107.210938 223.0625 107.121094 222.464844 106.996094 221.871094 C 106.871094 221.277344 106.714844 220.695312 106.519531 220.121094 C 106.328125 219.546875 106.101562 218.988281 105.839844 218.441406 C 105.578125 217.894531 105.285156 217.363281 104.964844 216.851562 C 104.640625 216.339844 104.289062 215.851562 103.90625 215.378906 C 103.523438 214.910156 103.113281 214.464844 102.679688 214.042969 C 102.246094 213.625 101.785156 213.230469 101.304688 212.863281 C 100.824219 212.5 100.320312 212.164062 99.800781 211.859375 C 99.277344 211.550781 98.738281 211.277344 98.183594 211.035156 C 97.628906 210.796875 97.0625 210.589844 96.484375 210.414062 C 95.90625 210.242188 95.316406 210.101562 94.722656 210 C 94.125 209.898438 93.527344 209.828125 92.921875 209.796875 C 92.320312 209.765625 91.714844 209.769531 91.113281 209.8125 C 90.511719 209.851562 89.910156 209.929688 89.316406 210.042969 C 88.722656 210.15625 88.136719 210.300781 87.5625 210.484375 C 86.984375 210.667969 86.421875 210.882812 85.871094 211.132812 C 85.320312 211.382812 84.785156 211.664062 84.269531 211.980469 C 83.753906 212.292969 83.257812 212.636719 82.78125 213.011719 C 82.304688 213.382812 81.851562 213.785156 81.421875 214.210938 C 80.996094 214.640625 80.59375 215.089844 80.21875 215.566406 C 79.84375 216.042969 79.5 216.539062 79.183594 217.054688 C 78.867188 217.570312 78.585938 218.105469 78.332031 218.65625 C 78.082031 219.207031 77.863281 219.769531 77.679688 220.347656 C 77.492188 220.925781 77.34375 221.511719 77.230469 222.105469 C 77.113281 222.699219 77.035156 223.300781 76.992188 223.902344 C 76.949219 224.507812 76.941406 225.113281 76.96875 225.71875 C 77 226.324219 77.0625 226.925781 77.164062 227.523438 L 70.199219 226.300781 C 72.808594 220.015625 74.566406 213.257812 77.589844 207.144531 C 77.679688 206.9375 77.730469 206.71875 77.746094 206.496094 C 77.757812 206.269531 77.730469 206.046875 77.664062 205.832031 C 77.59375 205.617188 77.492188 205.417969 77.355469 205.242188 C 77.214844 205.0625 77.050781 204.914062 76.859375 204.796875 L 76.601562 204.699219 C 76.378906 204.597656 76.144531 204.539062 75.898438 204.53125 C 75.65625 204.523438 75.417969 204.5625 75.1875 204.652344 C 74.957031 204.738281 74.753906 204.867188 74.578125 205.035156 C 74.398438 205.207031 74.261719 205.402344 74.164062 205.628906 C 71.648438 211.222656 69.492188 216.953125 67.6875 222.816406 C 67.53125 223.320312 67.324219 223.800781 67.074219 224.265625 C 66.820312 224.726562 66.527344 225.160156 66.191406 225.566406 C 65.855469 225.972656 65.480469 226.339844 65.074219 226.671875 C 64.664062 227.003906 64.230469 227.292969 63.765625 227.539062 C 63.300781 227.785156 62.816406 227.984375 62.3125 228.132812 C 61.808594 228.285156 61.292969 228.386719 60.769531 228.433594 C 60.246094 228.484375 59.722656 228.484375 59.199219 228.429688 C 58.675781 228.378906 58.164062 228.273438 57.660156 228.121094 C 57.160156 227.964844 56.683594 227.765625 56.222656 227.515625 C 55.761719 227.265625 55.332031 226.972656 54.929688 226.640625 C 54.527344 226.304688 54.160156 225.9375 53.828125 225.53125 C 53.496094 225.125 53.210938 224.691406 52.964844 224.226562 C 52.71875 223.765625 52.519531 223.28125 52.371094 222.78125 C 52.21875 222.277344 52.117188 221.765625 52.066406 221.246094 C 52.015625 220.722656 52.015625 220.203125 52.066406 219.679688 C 52.117188 219.160156 52.21875 218.648438 52.367188 218.144531 C 54.910156 209.914062 58.074219 201.929688 61.871094 194.195312 C 65.664062 186.460938 70.035156 179.070312 74.988281 172.027344 C 79.941406 164.980469 85.414062 158.367188 91.40625 152.1875 C 97.398438 146.003906 103.832031 140.332031 110.714844 135.164062 C 111.132812 134.808594 111.578125 134.503906 112.058594 134.242188 C 112.539062 133.980469 113.039062 133.769531 113.5625 133.609375 C 114.082031 133.453125 114.617188 133.347656 115.160156 133.296875 C 115.703125 133.25 116.246094 133.253906 116.789062 133.316406 C 117.328125 133.378906 117.859375 133.496094 118.378906 133.664062 C 118.898438 133.835938 119.394531 134.058594 119.867188 134.332031 C 120.339844 134.601562 120.78125 134.921875 121.1875 135.28125 C 121.597656 135.644531 121.964844 136.046875 122.292969 136.484375 C 122.617188 136.921875 122.898438 137.390625 123.128906 137.882812 C 123.359375 138.378906 123.539062 138.894531 123.664062 139.425781 C 123.792969 139.957031 123.863281 140.496094 123.878906 141.042969 C 123.894531 141.589844 123.855469 142.132812 123.761719 142.671875 C 123.667969 143.210938 123.519531 143.734375 123.320312 144.242188 C 123.117188 144.75 122.867188 145.234375 122.566406 145.691406 C 122.269531 146.148438 121.925781 146.570312 121.539062 146.957031 C 121.152344 147.34375 120.730469 147.6875 120.277344 147.988281 C 111.449219 154.582031 103.46875 162.078125 96.332031 170.476562 C 89.191406 178.878906 83.082031 187.96875 77.992188 197.753906 C 77.886719 197.96875 77.820312 198.195312 77.804688 198.433594 C 77.785156 198.675781 77.8125 198.910156 77.882812 199.136719 C 77.957031 199.367188 78.070312 199.570312 78.222656 199.757812 C 78.378906 199.941406 78.5625 200.089844 78.773438 200.199219 L 78.957031 200.285156 C 79.164062 200.367188 79.378906 200.414062 79.605469 200.417969 C 79.828125 200.421875 80.046875 200.386719 80.257812 200.308594 C 80.46875 200.234375 80.660156 200.125 80.828125 199.980469 C 81 199.832031 81.140625 199.664062 81.25 199.464844 C 91.445312 179.148438 107.007812 163.023438 124.726562 148.820312 L 152.679688 198.097656 C 152.800781 198.3125 152.953125 198.496094 153.148438 198.648438 C 153.339844 198.804688 153.554688 198.914062 153.789062 198.980469 C 154.027344 199.046875 154.265625 199.066406 154.507812 199.035156 C 154.753906 199.003906 154.980469 198.929688 155.195312 198.804688 C 155.410156 198.683594 155.59375 198.527344 155.742188 198.332031 C 155.894531 198.136719 156.003906 197.917969 156.070312 197.679688 C 156.132812 197.441406 156.152344 197.199219 156.121094 196.953125 C 156.089844 196.707031 156.011719 196.476562 155.890625 196.261719 L 126.765625 144.917969 C 126.9375 144.332031 127.0625 143.730469 127.140625 143.125 C 127.21875 142.515625 127.25 141.90625 127.230469 141.292969 C 127.214844 140.679688 127.152344 140.070312 127.039062 139.46875 C 126.925781 138.863281 126.769531 138.273438 126.566406 137.695312 C 126.359375 137.117188 126.113281 136.558594 125.820312 136.019531 C 125.53125 135.480469 125.199219 134.96875 124.828125 134.480469 C 124.453125 133.992188 124.046875 133.539062 123.605469 133.113281 C 123.160156 132.691406 122.6875 132.304688 122.1875 131.957031 C 121.683594 131.609375 121.15625 131.300781 120.605469 131.035156 C 120.054688 130.769531 119.484375 130.546875 118.898438 130.371094 C 118.3125 130.191406 117.71875 130.0625 117.109375 129.980469 C 116.503906 129.894531 115.894531 129.859375 115.285156 129.871094 C 114.671875 129.882812 114.066406 129.945312 113.464844 130.050781 C 112.859375 130.160156 112.269531 130.3125 111.691406 130.511719 C 111.113281 130.710938 110.554688 130.957031 110.015625 131.246094 C 109.472656 131.53125 108.960938 131.859375 108.46875 132.230469 C 101.4375 137.507812 94.859375 143.308594 88.738281 149.625 C 82.613281 155.941406 77.019531 162.699219 71.957031 169.894531 C 66.894531 177.09375 62.425781 184.644531 58.546875 192.546875 C 54.667969 200.449219 51.429688 208.609375 48.832031 217.019531 C 48.648438 217.617188 48.511719 218.226562 48.425781 218.847656 C 48.339844 219.464844 48.304688 220.085938 48.316406 220.710938 C 48.332031 221.335938 48.394531 221.957031 48.503906 222.570312 C 48.617188 223.1875 48.777344 223.789062 48.984375 224.378906 C 49.191406 224.96875 49.445312 225.535156 49.742188 226.085938 C 50.042969 226.632812 50.382812 227.15625 50.765625 227.648438 C 51.144531 228.144531 51.5625 228.605469 52.019531 229.03125 C 52.472656 229.460938 52.960938 229.847656 53.476562 230.199219 C 53.996094 230.546875 54.535156 230.851562 55.101562 231.117188 C 55.667969 231.378906 56.25 231.59375 56.851562 231.765625 C 57.449219 231.933594 58.0625 232.054688 58.679688 232.125 C 59.300781 232.199219 59.921875 232.21875 60.542969 232.191406 C 61.167969 232.164062 61.785156 232.085938 62.394531 231.960938 C 63.003906 231.832031 63.601562 231.660156 64.183594 231.4375 C 64.769531 231.214844 65.328125 230.949219 65.871094 230.636719 C 66.410156 230.324219 66.921875 229.96875 67.40625 229.578125 L 79.382812 231.65625 L 84.75 232.582031 L 137.191406 241.703125 L 143.023438 242.71875 L 170.621094 247.484375 C 171.332031 247.636719 172.050781 247.683594 172.773438 247.625 C 173.5 247.570312 174.199219 247.410156 174.878906 247.148438 C 175.554688 246.882812 176.183594 246.53125 176.757812 246.085938 C 177.332031 245.640625 177.832031 245.121094 178.257812 244.53125 C 178.683594 243.941406 179.015625 243.300781 179.253906 242.613281 C 179.492188 241.925781 179.628906 241.21875 179.660156 240.492188 C 179.695312 239.761719 179.625 239.046875 179.449219 238.339844 C 179.273438 237.632812 179.003906 236.964844 178.632812 236.335938 Z M 101.445312 231.714844 L 87.03125 229.269531 L 81.113281 228.242188 C 80.996094 227.84375 80.902344 227.433594 80.832031 227.019531 C 80.703125 226.277344 80.648438 225.527344 80.664062 224.773438 C 80.679688 224.019531 80.769531 223.273438 80.933594 222.535156 C 81.097656 221.796875 81.332031 221.085938 81.632812 220.394531 C 81.9375 219.703125 82.304688 219.046875 82.738281 218.429688 C 83.171875 217.808594 83.660156 217.242188 84.203125 216.71875 C 84.746094 216.195312 85.335938 215.734375 85.972656 215.328125 C 86.609375 214.921875 87.277344 214.582031 87.980469 214.308594 C 88.683594 214.035156 89.402344 213.832031 90.144531 213.703125 C 90.886719 213.570312 91.636719 213.515625 92.386719 213.53125 C 93.140625 213.546875 93.886719 213.636719 94.621094 213.800781 C 95.355469 213.964844 96.070312 214.199219 96.757812 214.503906 C 97.449219 214.808594 98.101562 215.175781 98.71875 215.609375 C 99.335938 216.042969 99.902344 216.535156 100.425781 217.078125 C 100.945312 217.625 101.40625 218.214844 101.8125 218.851562 C 102.21875 219.492188 102.554688 220.160156 102.828125 220.863281 C 103.101562 221.570312 103.304688 222.292969 103.433594 223.035156 C 103.707031 224.558594 103.667969 226.074219 103.324219 227.578125 C 102.980469 229.085938 102.351562 230.464844 101.445312 231.714844 Z M 158.4375 241.628906 L 143.730469 239.074219 L 138.851562 238.21875 C 138.628906 237.585938 138.457031 236.9375 138.339844 236.277344 C 138.257812 235.800781 138.203125 235.324219 138.179688 234.84375 C 138.15625 234.367188 138.164062 233.886719 138.203125 233.40625 C 138.238281 232.925781 138.304688 232.453125 138.402344 231.980469 C 138.5 231.511719 138.625 231.046875 138.777344 230.59375 C 138.933594 230.136719 139.117188 229.695312 139.324219 229.261719 C 139.535156 228.828125 139.769531 228.414062 140.03125 228.011719 C 140.296875 227.609375 140.582031 227.222656 140.890625 226.855469 C 141.203125 226.488281 141.535156 226.144531 141.886719 225.820312 C 142.238281 225.496094 142.613281 225.191406 143.003906 224.914062 C 143.394531 224.636719 143.800781 224.382812 144.222656 224.15625 C 144.648438 223.929688 145.082031 223.730469 145.527344 223.558594 C 145.976562 223.386719 146.433594 223.242188 146.898438 223.128906 C 147.363281 223.011719 147.835938 222.925781 148.3125 222.871094 C 148.789062 222.816406 149.265625 222.789062 149.746094 222.792969 C 150.226562 222.796875 150.703125 222.832031 151.175781 222.898438 C 151.652344 222.960938 152.121094 223.054688 152.585938 223.175781 C 153.050781 223.300781 153.503906 223.453125 153.949219 223.632812 C 154.390625 223.8125 154.824219 224.019531 155.242188 224.253906 C 155.660156 224.488281 156.0625 224.75 156.449219 225.035156 C 156.835938 225.320312 157.203125 225.625 157.550781 225.957031 C 157.898438 226.289062 158.222656 226.640625 158.527344 227.011719 C 158.832031 227.382812 159.109375 227.773438 159.363281 228.179688 C 159.621094 228.589844 159.847656 229.007812 160.050781 229.445312 C 160.253906 229.882812 160.425781 230.328125 160.574219 230.785156 C 160.71875 231.242188 160.835938 231.707031 160.925781 232.179688 C 161.011719 232.652344 161.070312 233.128906 161.101562 233.609375 C 161.128906 234.089844 161.128906 234.566406 161.097656 235.046875 C 161.066406 235.527344 161.003906 236.003906 160.914062 236.476562 C 160.824219 236.945312 160.703125 237.410156 160.554688 237.867188 C 160.40625 238.324219 160.226562 238.769531 160.023438 239.207031 C 159.820312 239.640625 159.589844 240.0625 159.332031 240.464844 C 159.074219 240.871094 158.792969 241.261719 158.488281 241.628906 Z M 158.4375 241.628906 " fill-opacity="1" fill-rule="nonzero"/></g><path fill="#ff363d" d="M 158.4375 241.628906 L 143.730469 239.074219 L 138.851562 238.21875 C 138.628906 237.585938 138.457031 236.9375 138.339844 236.277344 C 138.257812 235.800781 138.203125 235.324219 138.179688 234.84375 C 138.15625 234.367188 138.164062 233.886719 138.203125 233.40625 C 138.238281 232.925781 138.304688 232.453125 138.402344 231.980469 C 138.5 231.511719 138.625 231.046875 138.777344 230.59375 C 138.933594 230.136719 139.117188 229.695312 139.324219 229.261719 C 139.535156 228.828125 139.769531 228.414062 140.03125 228.011719 C 140.296875 227.609375 140.582031 227.222656 140.890625 226.855469 C 141.203125 226.488281 141.535156 226.144531 141.886719 225.820312 C 142.238281 225.496094 142.613281 225.191406 143.003906 224.914062 C 143.394531 224.636719 143.800781 224.382812 144.222656 224.15625 C 144.648438 223.929688 145.082031 223.730469 145.527344 223.558594 C 145.976562 223.386719 146.433594 223.242188 146.898438 223.128906 C 147.363281 223.011719 147.835938 222.925781 148.3125 222.871094 C 148.789062 222.816406 149.265625 222.789062 149.746094 222.792969 C 150.226562 222.796875 150.703125 222.832031 151.175781 222.898438 C 151.652344 222.960938 152.121094 223.054688 152.585938 223.175781 C 153.050781 223.300781 153.503906 223.453125 153.949219 223.632812 C 154.390625 223.8125 154.824219 224.019531 155.242188 224.253906 C 155.660156 224.488281 156.0625 224.75 156.449219 225.035156 C 156.835938 225.320312 157.203125 225.625 157.550781 225.957031 C 157.898438 226.289062 158.222656 226.640625 158.527344 227.011719 C 158.832031 227.382812 159.109375 227.773438 159.363281 228.179688 C 159.621094 228.589844 159.847656 229.007812 160.050781 229.445312 C 160.253906 229.882812 160.425781 230.328125 160.574219 230.785156 C 160.71875 231.242188 160.835938 231.707031 160.925781 232.179688 C 161.011719 232.652344 161.070312 233.128906 161.101562 233.609375 C 161.128906 234.089844 161.128906 234.566406 161.097656 235.046875 C 161.066406 235.527344 161.003906 236.003906 160.914062 236.476562 C 160.824219 236.945312 160.703125 237.410156 160.554688 237.867188 C 160.40625 238.324219 160.226562 238.769531 160.023438 239.207031 C 159.820312 239.640625 159.589844 240.0625 159.332031 240.464844 C 159.074219 240.871094 158.792969 241.261719 158.488281 241.628906 Z M 158.4375 241.628906 " fill-opacity="1" fill-rule="nonzero"/><path fill="#ff363d" d="M 101.445312 231.714844 L 87.03125 229.269531 L 81.113281 228.242188 C 80.996094 227.84375 80.902344 227.433594 80.832031 227.019531 C 80.703125 226.277344 80.648438 225.527344 80.664062 224.773438 C 80.679688 224.019531 80.769531 223.273438 80.933594 222.535156 C 81.097656 221.796875 81.332031 221.085938 81.632812 220.394531 C 81.9375 219.703125 82.304688 219.046875 82.738281 218.429688 C 83.171875 217.808594 83.660156 217.242188 84.203125 216.71875 C 84.746094 216.195312 85.335938 215.734375 85.972656 215.328125 C 86.609375 214.921875 87.277344 214.582031 87.980469 214.308594 C 88.683594 214.035156 89.402344 213.832031 90.144531 213.703125 C 90.886719 213.570312 91.636719 213.515625 92.386719 213.53125 C 93.140625 213.546875 93.886719 213.636719 94.621094 213.800781 C 95.355469 213.964844 96.070312 214.199219 96.757812 214.503906 C 97.449219 214.808594 98.101562 215.175781 98.71875 215.609375 C 99.335938 216.042969 99.902344 216.535156 100.425781 217.078125 C 100.945312 217.625 101.40625 218.214844 101.8125 218.851562 C 102.21875 219.492188 102.554688 220.160156 102.828125 220.863281 C 103.101562 221.570312 103.304688 222.292969 103.433594 223.035156 C 103.707031 224.558594 103.667969 226.074219 103.324219 227.578125 C 102.980469 229.085938 102.351562 230.464844 101.445312 231.714844 Z M 101.445312 231.714844 " fill-opacity="1" fill-rule="nonzero"/><path fill="#000000" d="M 144.09375 191.839844 C 143.984375 191.210938 143.832031 190.59375 143.644531 189.984375 C 143.453125 189.375 143.226562 188.78125 142.964844 188.199219 C 142.699219 187.621094 142.402344 187.058594 142.066406 186.515625 C 141.734375 185.972656 141.367188 185.453125 140.96875 184.957031 C 140.566406 184.460938 140.140625 183.992188 139.679688 183.550781 C 139.222656 183.109375 138.738281 182.695312 138.230469 182.316406 C 137.71875 181.933594 137.1875 181.585938 136.632812 181.273438 C 136.078125 180.957031 135.507812 180.679688 134.921875 180.4375 C 134.332031 180.195312 133.730469 179.992188 133.117188 179.824219 C 132.503906 179.660156 131.878906 179.53125 131.25 179.445312 C 130.621094 179.355469 129.988281 179.308594 129.351562 179.300781 C 128.714844 179.292969 128.082031 179.324219 127.449219 179.394531 C 126.816406 179.46875 126.191406 179.578125 125.574219 179.730469 C 124.957031 179.878906 124.351562 180.070312 123.753906 180.296875 C 123.160156 180.523438 122.582031 180.785156 122.023438 181.085938 C 121.460938 181.386719 120.921875 181.71875 120.402344 182.085938 C 119.882812 182.457031 119.386719 182.855469 118.917969 183.285156 C 118.449219 183.714844 118.007812 184.175781 117.597656 184.660156 C 117.183594 185.144531 116.804688 185.65625 116.457031 186.191406 C 116.109375 186.722656 115.796875 187.277344 115.515625 187.851562 C 115.238281 188.421875 114.996094 189.011719 114.792969 189.617188 C 114.589844 190.21875 114.421875 190.832031 114.292969 191.457031 C 114.167969 192.082031 114.078125 192.714844 114.03125 193.347656 C 113.980469 193.984375 113.972656 194.621094 114.003906 195.257812 C 114.035156 195.894531 114.109375 196.527344 114.21875 197.15625 C 114.328125 197.78125 114.480469 198.402344 114.667969 199.011719 C 114.855469 199.617188 115.082031 200.214844 115.34375 200.792969 C 115.605469 201.375 115.90625 201.9375 116.238281 202.480469 C 116.574219 203.023438 116.9375 203.542969 117.335938 204.039062 C 117.734375 204.535156 118.164062 205.003906 118.621094 205.449219 C 119.078125 205.890625 119.5625 206.304688 120.074219 206.683594 C 120.582031 207.066406 121.113281 207.414062 121.667969 207.730469 C 121.878906 207.839844 122.105469 207.902344 122.339844 207.921875 C 122.578125 207.945312 122.808594 207.917969 123.039062 207.851562 C 123.265625 207.78125 123.472656 207.671875 123.660156 207.523438 C 123.84375 207.375 123.996094 207.199219 124.113281 206.988281 C 124.230469 206.78125 124.308594 206.5625 124.339844 206.324219 C 124.371094 206.089844 124.359375 205.855469 124.300781 205.621094 C 124.242188 205.390625 124.144531 205.179688 124.007812 204.984375 C 123.867188 204.792969 123.695312 204.632812 123.496094 204.503906 C 123.105469 204.28125 122.730469 204.039062 122.367188 203.773438 C 122.003906 203.507812 121.660156 203.222656 121.332031 202.914062 C 121.003906 202.609375 120.695312 202.285156 120.402344 201.941406 C 120.113281 201.597656 119.84375 201.242188 119.59375 200.867188 C 119.34375 200.492188 119.121094 200.105469 118.917969 199.703125 C 118.714844 199.300781 118.535156 198.890625 118.378906 198.46875 C 118.222656 198.046875 118.09375 197.617188 117.988281 197.179688 C 117.882812 196.742188 117.804688 196.300781 117.75 195.855469 C 117.699219 195.410156 117.671875 194.960938 117.671875 194.511719 C 117.667969 194.0625 117.695312 193.613281 117.746094 193.164062 C 117.796875 192.71875 117.875 192.277344 117.980469 191.839844 C 118.082031 191.402344 118.210938 190.972656 118.363281 190.550781 C 118.519531 190.125 118.695312 189.714844 118.898438 189.3125 C 119.101562 188.910156 119.324219 188.523438 119.570312 188.148438 C 119.820312 187.773438 120.089844 187.414062 120.378906 187.070312 C 120.667969 186.726562 120.976562 186.402344 121.300781 186.09375 C 121.628906 185.785156 121.972656 185.5 122.335938 185.230469 C 122.695312 184.964844 123.070312 184.71875 123.460938 184.496094 C 123.851562 184.273438 124.253906 184.074219 124.664062 183.898438 C 125.078125 183.722656 125.5 183.574219 125.929688 183.449219 C 126.363281 183.320312 126.796875 183.222656 127.242188 183.148438 C 127.683594 183.070312 128.128906 183.023438 128.578125 183 C 129.023438 182.980469 129.472656 182.984375 129.917969 183.011719 C 130.367188 183.042969 130.8125 183.101562 131.253906 183.183594 C 131.695312 183.265625 132.128906 183.371094 132.558594 183.507812 C 132.984375 183.640625 133.40625 183.796875 133.8125 183.980469 C 134.222656 184.164062 134.621094 184.371094 135.007812 184.601562 C 135.394531 184.828125 135.765625 185.082031 136.121094 185.355469 C 136.476562 185.628906 136.816406 185.921875 137.136719 186.234375 C 137.460938 186.546875 137.761719 186.878906 138.046875 187.226562 C 138.328125 187.574219 138.589844 187.9375 138.832031 188.320312 C 139.074219 188.699219 139.289062 189.089844 139.484375 189.496094 C 139.679688 189.902344 139.851562 190.316406 139.996094 190.742188 C 140.144531 191.167969 140.265625 191.597656 140.359375 192.039062 C 140.457031 192.476562 140.523438 192.921875 140.570312 193.367188 C 140.613281 193.816406 140.628906 194.265625 140.621094 194.714844 C 140.613281 195.164062 140.578125 195.609375 140.515625 196.054688 C 140.457031 196.5 140.367188 196.941406 140.257812 197.378906 C 140.144531 197.8125 140.007812 198.238281 139.84375 198.660156 C 139.679688 199.078125 139.496094 199.488281 139.285156 199.882812 C 139.074219 200.28125 138.839844 200.664062 138.585938 201.035156 C 138.332031 201.402344 138.054688 201.757812 137.757812 202.09375 C 137.460938 202.433594 137.144531 202.75 136.8125 203.050781 C 136.480469 203.351562 136.128906 203.632812 135.761719 203.890625 C 135.394531 204.148438 135.015625 204.386719 134.621094 204.601562 C 134.226562 204.816406 133.820312 205.007812 133.402344 205.171875 C 132.988281 205.339844 132.5625 205.480469 132.128906 205.597656 C 131.695312 205.714844 131.257812 205.808594 130.8125 205.871094 C 130.585938 205.921875 130.375 206.015625 130.179688 206.144531 C 129.984375 206.277344 129.820312 206.4375 129.6875 206.632812 C 129.554688 206.824219 129.460938 207.035156 129.410156 207.265625 C 129.355469 207.492188 129.347656 207.722656 129.378906 207.957031 C 129.414062 208.1875 129.488281 208.40625 129.605469 208.609375 C 129.722656 208.8125 129.871094 208.988281 130.054688 209.136719 C 130.238281 209.28125 130.441406 209.390625 130.664062 209.460938 C 130.886719 209.53125 131.117188 209.558594 131.351562 209.539062 C 131.851562 209.464844 132.347656 209.367188 132.835938 209.242188 C 133.328125 209.117188 133.8125 208.96875 134.289062 208.796875 C 134.761719 208.625 135.230469 208.429688 135.6875 208.207031 C 136.140625 207.988281 136.585938 207.746094 137.019531 207.484375 C 137.453125 207.21875 137.871094 206.9375 138.273438 206.628906 C 138.679688 206.324219 139.066406 206 139.4375 205.65625 C 139.808594 205.3125 140.164062 204.949219 140.5 204.570312 C 140.832031 204.1875 141.148438 203.792969 141.445312 203.382812 C 141.742188 202.972656 142.015625 202.546875 142.269531 202.105469 C 142.523438 201.667969 142.757812 201.21875 142.964844 200.753906 C 143.175781 200.292969 143.359375 199.820312 143.523438 199.339844 C 143.683594 198.859375 143.820312 198.375 143.933594 197.878906 C 144.046875 197.382812 144.136719 196.886719 144.199219 196.382812 C 144.265625 195.878906 144.304688 195.375 144.316406 194.867188 C 144.332031 194.359375 144.320312 193.851562 144.28125 193.347656 C 144.246094 192.839844 144.183594 192.335938 144.09375 191.839844 Z M 144.09375 191.839844 " fill-opacity="1" fill-rule="nonzero"/><path fill="#000000" d="M 107.738281 199.710938 C 107.710938 199.53125 107.652344 199.359375 107.566406 199.199219 C 107.445312 198.941406 104.289062 192.78125 98.894531 191.863281 C 93.503906 190.945312 88.421875 195.75 88.226562 195.957031 C 87.925781 196.238281 87.738281 196.582031 87.667969 196.988281 C 87.59375 197.390625 87.652344 197.777344 87.835938 198.144531 C 87.96875 198.390625 91.101562 204.550781 96.507812 205.480469 C 101.910156 206.410156 106.984375 201.59375 107.191406 201.375 C 107.414062 201.160156 107.578125 200.90625 107.675781 200.613281 C 107.773438 200.316406 107.792969 200.015625 107.738281 199.710938 Z M 97.105469 201.824219 C 94.871094 201.445312 92.957031 199.382812 91.882812 197.753906 C 93.46875 196.605469 96.03125 195.1875 98.273438 195.554688 C 100.519531 195.921875 102.421875 198 103.480469 199.601562 C 101.980469 200.761719 99.359375 202.179688 97.105469 201.824219 Z M 97.105469 201.824219 " fill-opacity="1" fill-rule="nonzero"/><path fill="#ffbd59" d="M 103.496094 199.601562 C 101.933594 200.824219 99.359375 202.179688 97.117188 201.824219 C 94.871094 201.472656 92.96875 199.382812 91.894531 197.753906 C 93.480469 196.605469 96.042969 195.1875 98.285156 195.554688 C 100.53125 195.921875 102.433594 198.046875 103.496094 199.601562 Z M 103.496094 199.601562 " fill-opacity="1" fill-rule="nonzero"/><path fill="#000000" d="M 116.898438 179.859375 C 120.3125 175.945312 119.335938 169.871094 119.152344 168.695312 C 119.074219 168.296875 118.886719 167.960938 118.585938 167.683594 C 118.285156 167.410156 117.933594 167.25 117.53125 167.203125 C 115.542969 167.054688 113.582031 167.234375 111.652344 167.742188 C 111.402344 167.796875 111.171875 167.894531 110.960938 168.042969 C 110.753906 168.191406 110.582031 168.378906 110.449219 168.597656 C 110.3125 168.816406 110.230469 169.054688 110.195312 169.308594 C 110.160156 169.566406 110.179688 169.816406 110.246094 170.0625 C 110.316406 170.3125 110.433594 170.535156 110.59375 170.734375 C 110.757812 170.933594 110.953125 171.09375 111.179688 171.210938 C 111.40625 171.332031 111.648438 171.398438 111.90625 171.414062 C 112.164062 171.433594 112.410156 171.398438 112.652344 171.3125 C 113.652344 171.046875 114.667969 170.898438 115.703125 170.871094 C 115.824219 172.804688 115.628906 175.761719 114.128906 177.386719 C 112.628906 179.015625 109.886719 179.515625 108.03125 179.589844 C 107.945312 178.484375 107.996094 177.382812 108.175781 176.289062 C 108.222656 176.046875 108.214844 175.804688 108.164062 175.5625 C 108.109375 175.320312 108.015625 175.097656 107.875 174.894531 C 107.734375 174.695312 107.558594 174.527344 107.351562 174.390625 C 107.144531 174.257812 106.917969 174.171875 106.675781 174.125 C 106.433594 174.082031 106.191406 174.085938 105.953125 174.140625 C 105.710938 174.191406 105.492188 174.289062 105.289062 174.429688 C 105.085938 174.570312 104.917969 174.746094 104.785156 174.953125 C 104.652344 175.160156 104.5625 175.386719 104.519531 175.628906 C 104.191406 177.664062 104.191406 179.703125 104.519531 181.742188 C 104.601562 182.140625 104.792969 182.472656 105.09375 182.746094 C 105.398438 183.019531 105.75 183.175781 106.152344 183.21875 C 106.457031 183.28125 113.277344 183.917969 116.898438 179.859375 Z M 116.898438 179.859375 " fill-opacity="1" fill-rule="nonzero"/><path fill="#000000" d="M 131.253906 215.542969 C 130.996094 215.433594 124.679688 212.839844 120.042969 215.675781 C 115.410156 218.511719 114.703125 225.371094 114.667969 225.664062 C 114.625 226.066406 114.710938 226.441406 114.917969 226.789062 C 115.125 227.140625 115.414062 227.390625 115.789062 227.546875 C 116.070312 227.667969 122.386719 230.25 127.007812 227.425781 C 131.628906 224.601562 132.351562 217.730469 132.386719 217.4375 C 132.421875 217.03125 132.335938 216.65625 132.125 216.304688 C 131.917969 215.957031 131.625 215.703125 131.253906 215.542969 Z M 125.019531 224.257812 C 123.140625 225.480469 120.375 225.078125 118.554688 224.589844 C 118.960938 222.878906 119.886719 220.078125 121.910156 218.84375 C 123.933594 217.609375 126.558594 218.023438 128.375 218.511719 C 127.984375 220.222656 127.046875 223.035156 125.019531 224.257812 Z M 125.019531 224.257812 " fill-opacity="1" fill-rule="nonzero"/><path fill="#ffbd59" d="M 128.375 218.511719 C 127.984375 220.222656 127.046875 223.023438 125.019531 224.257812 C 122.996094 225.492188 120.375 225.078125 118.554688 224.589844 C 118.960938 222.878906 119.886719 220.078125 121.910156 218.84375 C 123.933594 217.609375 126.558594 218.023438 128.375 218.511719 Z M 128.375 218.511719 " fill-opacity="1" fill-rule="nonzero"/><g clip-path="url(#e4dbbcda49)"><path fill="#000000" d="M 326.269531 213.550781 C 323.515625 205.183594 320.121094 197.085938 316.097656 189.253906 C 312.070312 181.421875 307.457031 173.957031 302.257812 166.851562 C 297.054688 159.75 291.335938 153.097656 285.089844 146.898438 C 278.84375 140.699219 272.15625 135.027344 265.019531 129.882812 C 264.511719 129.519531 263.980469 129.195312 263.421875 128.917969 C 262.863281 128.636719 262.285156 128.40625 261.6875 128.21875 C 261.09375 128.03125 260.484375 127.894531 259.867188 127.804688 C 259.25 127.71875 258.628906 127.679688 258.003906 127.6875 C 257.378906 127.699219 256.761719 127.757812 256.144531 127.867188 C 255.53125 127.980469 254.929688 128.136719 254.339844 128.34375 C 253.75 128.550781 253.179688 128.800781 252.632812 129.097656 C 252.082031 129.398438 251.5625 129.738281 251.066406 130.117188 C 250.570312 130.5 250.109375 130.917969 249.679688 131.375 C 249.253906 131.828125 248.863281 132.316406 248.511719 132.832031 C 248.164062 133.351562 247.855469 133.894531 247.589844 134.460938 C 247.328125 135.027344 247.109375 135.613281 246.9375 136.214844 C 246.769531 136.816406 246.648438 137.425781 246.574219 138.050781 C 246.5 138.671875 246.476562 139.292969 246.503906 139.917969 C 246.53125 140.542969 246.605469 141.164062 246.730469 141.777344 C 246.855469 142.390625 247.027344 142.988281 247.25 143.574219 L 241.46875 154.296875 L 238.882812 159.101562 L 213.589844 205.921875 L 210.769531 211.140625 L 197.441406 235.921875 C 197.074219 236.546875 196.800781 237.214844 196.628906 237.921875 C 196.453125 238.628906 196.382812 239.34375 196.414062 240.070312 C 196.449219 240.796875 196.585938 241.503906 196.824219 242.191406 C 197.0625 242.878906 197.394531 243.519531 197.816406 244.109375 C 198.242188 244.699219 198.738281 245.21875 199.3125 245.664062 C 199.886719 246.109375 200.515625 246.460938 201.191406 246.726562 C 201.867188 246.988281 202.566406 247.148438 203.292969 247.207031 C 204.015625 247.265625 204.730469 247.21875 205.441406 247.070312 L 242.117188 239.882812 C 242.355469 239.835938 242.578125 239.742188 242.785156 239.605469 C 242.988281 239.472656 243.160156 239.300781 243.300781 239.097656 C 243.4375 238.894531 243.53125 238.671875 243.582031 238.429688 C 243.632812 238.191406 243.636719 237.949219 243.589844 237.707031 C 243.542969 237.464844 243.449219 237.242188 243.3125 237.035156 C 243.175781 236.832031 243.003906 236.660156 242.800781 236.527344 C 242.59375 236.390625 242.371094 236.296875 242.132812 236.25 C 241.890625 236.203125 241.648438 236.203125 241.40625 236.25 L 204.699219 243.453125 C 204.332031 243.542969 203.964844 243.578125 203.585938 243.558594 C 203.210938 243.535156 202.847656 243.457031 202.496094 243.320312 C 202.144531 243.1875 201.824219 243.003906 201.527344 242.769531 C 201.234375 242.535156 200.980469 242.261719 200.769531 241.949219 C 200.550781 241.648438 200.378906 241.324219 200.257812 240.972656 C 200.132812 240.621094 200.0625 240.261719 200.050781 239.890625 C 200.035156 239.519531 200.074219 239.152344 200.167969 238.792969 C 200.261719 238.433594 200.40625 238.097656 200.601562 237.78125 L 200.601562 237.707031 L 204.84375 229.820312 C 205.234375 230.292969 205.652344 230.742188 206.09375 231.164062 C 206.539062 231.585938 207.007812 231.980469 207.5 232.347656 C 207.992188 232.714844 208.503906 233.046875 209.035156 233.351562 C 209.566406 233.65625 210.117188 233.925781 210.679688 234.164062 C 211.246094 234.398438 211.824219 234.601562 212.414062 234.769531 C 213 234.9375 213.597656 235.066406 214.203125 235.160156 C 214.808594 235.257812 215.417969 235.3125 216.03125 235.335938 C 216.640625 235.355469 217.253906 235.339844 217.863281 235.285156 C 218.472656 235.230469 219.078125 235.140625 219.675781 235.015625 C 220.277344 234.886719 220.867188 234.726562 221.445312 234.527344 C 222.023438 234.328125 222.589844 234.097656 223.140625 233.828125 C 223.691406 233.5625 224.226562 233.261719 224.742188 232.929688 C 225.257812 232.597656 225.75 232.238281 226.222656 231.84375 C 226.691406 231.453125 227.140625 231.035156 227.558594 230.589844 C 227.980469 230.144531 228.375 229.671875 228.738281 229.179688 C 229.101562 228.6875 229.4375 228.171875 229.738281 227.640625 C 230.039062 227.105469 230.308594 226.554688 230.542969 225.988281 C 230.78125 225.421875 230.980469 224.84375 231.148438 224.253906 C 231.3125 223.660156 231.441406 223.0625 231.535156 222.457031 C 231.628906 221.847656 231.6875 221.238281 231.707031 220.625 C 231.726562 220.011719 231.707031 219.398438 231.652344 218.789062 C 231.597656 218.175781 231.507812 217.570312 231.382812 216.96875 C 231.253906 216.371094 231.089844 215.777344 230.890625 215.199219 C 230.691406 214.617188 230.460938 214.050781 230.191406 213.5 C 229.925781 212.945312 229.625 212.414062 229.292969 211.898438 C 228.960938 211.378906 228.601562 210.886719 228.207031 210.414062 C 227.816406 209.941406 227.398438 209.496094 226.953125 209.074219 C 226.507812 208.652344 226.039062 208.261719 225.546875 207.894531 C 225.054688 207.53125 224.539062 207.199219 224.007812 206.894531 C 223.472656 206.59375 222.925781 206.324219 222.359375 206.089844 C 221.792969 205.855469 221.214844 205.65625 220.625 205.488281 C 220.035156 205.324219 219.4375 205.195312 218.832031 205.101562 C 218.625 205.101562 218.429688 205.101562 218.222656 205.027344 L 232.480469 178.722656 C 232.886719 179.167969 233.316406 179.589844 233.773438 179.988281 C 234.230469 180.382812 234.707031 180.75 235.210938 181.089844 C 235.710938 181.429688 236.226562 181.738281 236.765625 182.015625 C 237.300781 182.292969 237.851562 182.535156 238.417969 182.746094 C 238.984375 182.957031 239.5625 183.132812 240.148438 183.277344 C 240.734375 183.417969 241.328125 183.523438 241.929688 183.597656 C 242.527344 183.667969 243.128906 183.703125 243.734375 183.703125 C 244.335938 183.699219 244.9375 183.664062 245.539062 183.589844 C 246.136719 183.515625 246.730469 183.410156 247.316406 183.265625 C 247.902344 183.121094 248.480469 182.941406 249.046875 182.730469 C 249.609375 182.515625 250.160156 182.269531 250.695312 181.992188 C 251.234375 181.714844 251.75 181.402344 252.25 181.0625 C 252.75 180.722656 253.226562 180.351562 253.679688 179.957031 C 254.136719 179.558594 254.566406 179.132812 254.972656 178.683594 C 255.375 178.234375 255.753906 177.761719 256.101562 177.269531 C 256.449219 176.773438 256.765625 176.261719 257.054688 175.730469 C 257.339844 175.195312 257.597656 174.648438 257.816406 174.085938 C 258.039062 173.523438 258.226562 172.949219 258.382812 172.363281 C 258.535156 171.777344 258.652344 171.1875 258.738281 170.585938 C 258.820312 169.988281 258.867188 169.382812 258.878906 168.78125 C 258.890625 168.175781 258.867188 167.570312 258.804688 166.96875 C 258.746094 166.367188 258.648438 165.769531 258.515625 165.179688 C 258.386719 164.589844 258.21875 164.007812 258.019531 163.4375 C 257.816406 162.867188 257.582031 162.308594 257.316406 161.765625 C 257.050781 161.222656 256.75 160.699219 256.421875 160.191406 C 256.089844 159.683594 255.734375 159.199219 255.34375 158.734375 C 254.957031 158.269531 254.542969 157.832031 254.105469 157.414062 C 253.664062 157 253.203125 156.613281 252.714844 156.253906 C 252.230469 155.894531 251.722656 155.566406 251.199219 155.269531 C 250.671875 154.96875 250.132812 154.703125 249.574219 154.46875 C 249.019531 154.234375 248.449219 154.035156 247.871094 153.867188 C 247.289062 153.703125 246.699219 153.570312 246.105469 153.476562 L 249.46875 147.242188 C 254.566406 151.726562 260.445312 155.53125 265.214844 160.308594 C 265.386719 160.46875 265.582031 160.59375 265.800781 160.679688 C 266.015625 160.765625 266.242188 160.808594 266.476562 160.808594 C 266.710938 160.808594 266.9375 160.765625 267.15625 160.679688 C 267.375 160.59375 267.566406 160.46875 267.738281 160.308594 C 267.738281 160.308594 267.8125 160.25 267.847656 160.222656 C 268.015625 160.042969 268.136719 159.835938 268.21875 159.601562 C 268.304688 159.371094 268.339844 159.132812 268.328125 158.886719 C 268.316406 158.640625 268.257812 158.40625 268.15625 158.179688 C 268.050781 157.957031 267.90625 157.761719 267.726562 157.597656 C 263.234375 153.441406 258.503906 149.582031 253.53125 146.019531 C 253.101562 145.710938 252.710938 145.367188 252.351562 144.980469 C 251.992188 144.597656 251.671875 144.179688 251.394531 143.730469 C 251.117188 143.285156 250.882812 142.8125 250.699219 142.320312 C 250.515625 141.828125 250.378906 141.320312 250.292969 140.800781 C 250.207031 140.277344 250.171875 139.753906 250.1875 139.226562 C 250.207031 138.703125 250.273438 138.179688 250.394531 137.667969 C 250.511719 137.152344 250.679688 136.65625 250.898438 136.175781 C 251.113281 135.695312 251.375 135.242188 251.683594 134.8125 C 251.988281 134.382812 252.332031 133.988281 252.71875 133.628906 C 253.101562 133.265625 253.515625 132.949219 253.960938 132.667969 C 254.410156 132.390625 254.878906 132.15625 255.371094 131.972656 C 255.863281 131.785156 256.367188 131.648438 256.886719 131.5625 C 257.40625 131.476562 257.929688 131.441406 258.453125 131.457031 C 258.980469 131.472656 259.5 131.542969 260.011719 131.660156 C 260.523438 131.78125 261.019531 131.949219 261.5 132.164062 C 261.980469 132.382812 262.433594 132.644531 262.859375 132.949219 C 269.832031 137.980469 276.367188 143.523438 282.46875 149.585938 C 288.570312 155.644531 294.164062 162.144531 299.246094 169.085938 C 304.328125 176.027344 308.839844 183.320312 312.777344 190.972656 C 316.714844 198.625 320.035156 206.535156 322.730469 214.710938 C 322.898438 215.210938 323.011719 215.722656 323.078125 216.246094 C 323.144531 216.765625 323.160156 217.289062 323.121094 217.816406 C 323.082031 218.339844 322.996094 218.859375 322.855469 219.367188 C 322.71875 219.875 322.53125 220.363281 322.292969 220.835938 C 322.058594 221.304688 321.78125 221.75 321.457031 222.164062 C 321.136719 222.582031 320.777344 222.960938 320.378906 223.304688 C 319.980469 223.652344 319.554688 223.953125 319.097656 224.214844 C 318.640625 224.472656 318.164062 224.6875 317.664062 224.855469 C 317.167969 225.019531 316.65625 225.136719 316.136719 225.203125 C 315.613281 225.265625 315.089844 225.28125 314.566406 225.242188 C 314.042969 225.207031 313.527344 225.117188 313.019531 224.976562 C 312.515625 224.835938 312.027344 224.648438 311.554688 224.414062 C 311.085938 224.179688 310.644531 223.898438 310.230469 223.574219 C 309.816406 223.25 309.433594 222.890625 309.089844 222.492188 C 308.746094 222.09375 308.445312 221.667969 308.1875 221.207031 C 307.925781 220.75 307.714844 220.273438 307.546875 219.773438 C 304.121094 209.28125 299.574219 199.304688 293.902344 189.839844 C 288.230469 180.378906 281.578125 171.667969 273.949219 163.707031 C 273.773438 163.535156 273.574219 163.402344 273.347656 163.308594 C 273.121094 163.214844 272.886719 163.171875 272.640625 163.171875 C 272.398438 163.171875 272.164062 163.214844 271.9375 163.308594 C 271.710938 163.402344 271.511719 163.535156 271.335938 163.707031 C 271.167969 163.878906 271.039062 164.078125 270.949219 164.300781 C 270.859375 164.519531 270.816406 164.753906 270.816406 164.992188 C 270.816406 165.230469 270.859375 165.464844 270.949219 165.683594 C 271.039062 165.90625 271.167969 166.105469 271.335938 166.277344 C 287.3125 182.425781 297.632812 202.339844 305.414062 223.734375 L 249.921875 234.601562 C 249.679688 234.648438 249.453125 234.738281 249.246094 234.875 C 249.042969 235.011719 248.871094 235.183594 248.730469 235.390625 C 248.59375 235.59375 248.5 235.816406 248.449219 236.058594 C 248.398438 236.304688 248.398438 236.546875 248.445312 236.789062 C 248.492188 237.03125 248.582031 237.257812 248.71875 237.464844 C 248.855469 237.671875 249.027344 237.84375 249.230469 237.980469 C 249.4375 238.121094 249.660156 238.214844 249.902344 238.265625 C 250.144531 238.3125 250.386719 238.316406 250.628906 238.269531 L 308.488281 226.921875 C 308.988281 227.273438 309.511719 227.582031 310.0625 227.851562 C 310.613281 228.117188 311.179688 228.339844 311.765625 228.519531 C 312.347656 228.699219 312.941406 228.832031 313.546875 228.917969 C 314.152344 229 314.761719 229.039062 315.371094 229.03125 C 315.984375 229.019531 316.589844 228.960938 317.191406 228.855469 C 317.792969 228.75 318.382812 228.601562 318.960938 228.402344 C 319.539062 228.203125 320.097656 227.960938 320.640625 227.675781 C 321.179688 227.390625 321.695312 227.066406 322.183594 226.699219 C 322.675781 226.332031 323.132812 225.929688 323.558594 225.492188 C 323.988281 225.054688 324.375 224.585938 324.730469 224.085938 C 325.082031 223.585938 325.394531 223.0625 325.667969 222.511719 C 325.941406 221.964844 326.167969 221.398438 326.351562 220.8125 C 326.535156 220.230469 326.671875 219.632812 326.761719 219.027344 C 326.851562 218.421875 326.894531 217.8125 326.890625 217.203125 C 326.882812 216.589844 326.832031 215.980469 326.730469 215.375 C 326.632812 214.773438 326.484375 214.179688 326.292969 213.597656 Z M 218.359375 208.769531 C 218.832031 208.84375 219.296875 208.945312 219.757812 209.078125 C 220.21875 209.207031 220.671875 209.367188 221.113281 209.554688 C 221.554688 209.746094 221.980469 209.960938 222.394531 210.203125 C 222.808594 210.445312 223.207031 210.710938 223.585938 211.003906 C 223.96875 211.292969 224.328125 211.609375 224.667969 211.945312 C 225.011719 212.28125 225.328125 212.640625 225.625 213.015625 C 225.921875 213.394531 226.195312 213.789062 226.441406 214.199219 C 226.691406 214.613281 226.910156 215.035156 227.105469 215.476562 C 227.300781 215.914062 227.464844 216.363281 227.605469 216.824219 C 227.742188 217.285156 227.851562 217.75 227.929688 218.226562 C 228.011719 218.699219 228.0625 219.175781 228.082031 219.65625 C 228.101562 220.136719 228.089844 220.613281 228.050781 221.09375 C 228.011719 221.574219 227.941406 222.046875 227.84375 222.515625 C 227.746094 222.988281 227.617188 223.449219 227.460938 223.902344 C 227.304688 224.355469 227.117188 224.800781 226.90625 225.230469 C 226.695312 225.660156 226.457031 226.078125 226.191406 226.476562 C 225.929688 226.878906 225.640625 227.261719 225.328125 227.625 C 225.015625 227.992188 224.683594 228.335938 224.328125 228.65625 C 223.972656 228.980469 223.601562 229.28125 223.207031 229.554688 C 222.816406 229.832031 222.40625 230.082031 221.984375 230.308594 C 221.5625 230.53125 221.125 230.730469 220.675781 230.898438 C 220.226562 231.070312 219.769531 231.210938 219.304688 231.324219 C 218.839844 231.433594 218.367188 231.519531 217.890625 231.570312 C 217.414062 231.625 216.9375 231.648438 216.457031 231.640625 C 215.980469 231.636719 215.503906 231.597656 215.027344 231.53125 C 214.554688 231.464844 214.085938 231.371094 213.621094 231.246094 C 213.160156 231.121094 212.707031 230.964844 212.261719 230.785156 C 211.820312 230.601562 211.390625 230.394531 210.972656 230.15625 C 210.554688 229.921875 210.152344 229.660156 209.769531 229.371094 C 209.382812 229.085938 209.019531 228.777344 208.671875 228.445312 C 208.328125 228.113281 208.003906 227.757812 207.699219 227.386719 C 207.398438 227.011719 207.121094 226.621094 206.867188 226.214844 L 213.96875 213.046875 L 216.34375 208.636719 C 217.019531 208.625 217.691406 208.667969 218.359375 208.769531 Z M 255.042969 170.222656 C 254.871094 171.355469 254.539062 172.433594 254.042969 173.460938 C 253.550781 174.492188 252.917969 175.425781 252.148438 176.269531 C 251.375 177.109375 250.5 177.820312 249.515625 178.398438 C 248.535156 178.976562 247.488281 179.398438 246.378906 179.667969 C 245.273438 179.933594 244.148438 180.035156 243.011719 179.964844 C 241.875 179.894531 240.769531 179.664062 239.703125 179.265625 C 238.632812 178.867188 237.648438 178.324219 236.742188 177.628906 C 235.835938 176.9375 235.046875 176.128906 234.382812 175.199219 L 241.347656 162.277344 L 244.199219 157.019531 C 244.609375 157.039062 245.015625 157.078125 245.421875 157.144531 C 246.164062 157.257812 246.890625 157.441406 247.597656 157.699219 C 248.304688 157.957031 248.980469 158.277344 249.625 158.667969 C 250.269531 159.058594 250.871094 159.507812 251.425781 160.015625 C 251.984375 160.523438 252.484375 161.082031 252.929688 161.6875 C 253.378906 162.296875 253.761719 162.941406 254.082031 163.625 C 254.402344 164.308594 254.652344 165.015625 254.832031 165.746094 C 255.015625 166.480469 255.121094 167.222656 255.15625 167.976562 C 255.191406 168.730469 255.15625 169.476562 255.042969 170.222656 Z M 255.042969 170.222656 " fill-opacity="1" fill-rule="nonzero"/></g><path fill="#ff363d" d="M 255.042969 170.222656 C 254.871094 171.355469 254.539062 172.433594 254.042969 173.460938 C 253.550781 174.492188 252.917969 175.425781 252.148438 176.269531 C 251.375 177.109375 250.5 177.820312 249.515625 178.398438 C 248.535156 178.976562 247.488281 179.398438 246.378906 179.667969 C 245.273438 179.933594 244.148438 180.035156 243.011719 179.964844 C 241.875 179.894531 240.769531 179.664062 239.703125 179.265625 C 238.632812 178.867188 237.648438 178.324219 236.742188 177.628906 C 235.835938 176.9375 235.046875 176.128906 234.382812 175.199219 L 241.347656 162.277344 L 244.199219 157.019531 C 244.609375 157.039062 245.015625 157.078125 245.421875 157.144531 C 246.164062 157.257812 246.890625 157.441406 247.597656 157.699219 C 248.304688 157.957031 248.980469 158.277344 249.625 158.667969 C 250.269531 159.058594 250.871094 159.507812 251.425781 160.015625 C 251.984375 160.523438 252.484375 161.082031 252.929688 161.6875 C 253.378906 162.296875 253.761719 162.941406 254.082031 163.625 C 254.402344 164.308594 254.652344 165.015625 254.832031 165.746094 C 255.015625 166.480469 255.121094 167.222656 255.15625 167.976562 C 255.191406 168.730469 255.15625 169.476562 255.042969 170.222656 Z M 255.042969 170.222656 " fill-opacity="1" fill-rule="nonzero"/><path fill="#ff363d" d="M 227.96875 221.875 C 227.792969 223.039062 227.445312 224.148438 226.929688 225.207031 C 226.414062 226.261719 225.753906 227.21875 224.945312 228.070312 C 224.136719 228.925781 223.21875 229.636719 222.191406 230.207031 C 221.167969 230.777344 220.078125 231.183594 218.929688 231.417969 C 217.777344 231.65625 216.621094 231.714844 215.453125 231.59375 C 214.285156 231.472656 213.160156 231.179688 212.082031 230.714844 C 211.003906 230.25 210.019531 229.632812 209.132812 228.867188 C 208.242188 228.097656 207.488281 227.214844 206.867188 226.214844 L 213.96875 213.046875 L 216.34375 208.636719 C 217.015625 208.625 217.683594 208.667969 218.34375 208.769531 C 219.089844 208.882812 219.816406 209.070312 220.523438 209.328125 C 221.234375 209.585938 221.910156 209.910156 222.554688 210.300781 C 223.199219 210.691406 223.800781 211.140625 224.355469 211.648438 C 224.914062 212.160156 225.414062 212.71875 225.859375 213.328125 C 226.308594 213.933594 226.691406 214.582031 227.011719 215.265625 C 227.332031 215.949219 227.582031 216.65625 227.761719 217.390625 C 227.941406 218.125 228.050781 218.867188 228.085938 219.621094 C 228.121094 220.378906 228.082031 221.128906 227.96875 221.875 Z M 227.96875 221.875 " fill-opacity="1" fill-rule="nonzero"/><path fill="#000000" d="M 248.042969 209.183594 C 247.800781 209.140625 247.5625 209.144531 247.320312 209.195312 C 247.082031 209.246094 246.863281 209.34375 246.660156 209.484375 C 246.457031 209.625 246.292969 209.796875 246.160156 210.003906 C 246.027344 210.210938 245.9375 210.433594 245.894531 210.675781 C 245.789062 211.261719 245.714844 211.851562 245.675781 212.445312 C 245.636719 213.039062 245.632812 213.632812 245.660156 214.230469 C 245.691406 214.824219 245.757812 215.414062 245.855469 216 C 245.957031 216.589844 246.089844 217.167969 246.257812 217.738281 C 246.425781 218.308594 246.625 218.871094 246.855469 219.417969 C 247.089844 219.964844 247.355469 220.496094 247.648438 221.015625 C 247.945312 221.53125 248.269531 222.027344 248.621094 222.507812 C 248.976562 222.984375 249.355469 223.441406 249.761719 223.875 C 250.167969 224.308594 250.601562 224.71875 251.054688 225.101562 C 251.507812 225.484375 251.984375 225.839844 252.480469 226.167969 C 252.976562 226.492188 253.492188 226.789062 254.023438 227.058594 C 254.550781 227.324219 255.097656 227.558594 255.65625 227.761719 C 256.214844 227.964844 256.78125 228.132812 257.359375 228.269531 C 257.941406 228.40625 258.523438 228.507812 259.113281 228.574219 C 259.703125 228.640625 260.296875 228.671875 260.890625 228.671875 C 261.484375 228.667969 262.074219 228.632812 262.664062 228.558594 C 263.253906 228.488281 263.839844 228.378906 264.414062 228.238281 C 264.992188 228.097656 265.558594 227.925781 266.117188 227.71875 C 266.671875 227.511719 267.214844 227.269531 267.746094 227 C 268.273438 226.726562 268.785156 226.425781 269.277344 226.09375 C 269.773438 225.765625 270.242188 225.40625 270.695312 225.019531 C 271.148438 224.628906 271.574219 224.21875 271.976562 223.78125 C 272.378906 223.34375 272.757812 222.882812 273.105469 222.402344 C 273.457031 221.921875 273.777344 221.421875 274.066406 220.902344 C 274.355469 220.382812 274.617188 219.847656 274.84375 219.296875 C 275.074219 218.75 275.269531 218.1875 275.429688 217.617188 C 275.59375 217.042969 275.722656 216.460938 275.816406 215.875 C 275.910156 215.285156 275.972656 214.695312 275.996094 214.101562 C 276.023438 213.503906 276.011719 212.910156 275.96875 212.316406 C 275.925781 211.722656 275.84375 211.136719 275.730469 210.550781 C 275.617188 209.964844 275.472656 209.390625 275.292969 208.824219 C 275.109375 208.253906 274.898438 207.699219 274.652344 207.160156 C 274.40625 206.617188 274.128906 206.089844 273.824219 205.582031 C 273.515625 205.070312 273.179688 204.582031 272.816406 204.113281 C 272.449219 203.640625 272.058594 203.195312 271.644531 202.769531 C 271.226562 202.347656 270.785156 201.949219 270.324219 201.574219 C 269.859375 201.203125 269.375 200.859375 268.871094 200.542969 C 268.367188 200.226562 267.847656 199.941406 267.3125 199.6875 C 266.773438 199.433594 266.222656 199.210938 265.660156 199.023438 C 265.097656 198.832031 264.527344 198.675781 263.945312 198.554688 C 263.363281 198.433594 262.777344 198.34375 262.183594 198.292969 C 261.59375 198.238281 261 198.21875 260.40625 198.238281 C 259.8125 198.253906 259.222656 198.304688 258.632812 198.390625 C 258.046875 198.476562 257.464844 198.597656 256.890625 198.75 C 256.320312 198.90625 255.753906 199.09375 255.203125 199.3125 C 254.652344 199.535156 254.113281 199.785156 253.59375 200.070312 C 253.070312 200.351562 252.566406 200.664062 252.082031 201.007812 C 251.59375 201.351562 251.132812 201.722656 250.6875 202.121094 C 250.539062 202.289062 250.421875 202.480469 250.34375 202.691406 C 250.261719 202.90625 250.222656 203.125 250.222656 203.351562 C 250.222656 203.578125 250.261719 203.796875 250.34375 204.011719 C 250.421875 204.222656 250.539062 204.414062 250.6875 204.582031 C 250.839844 204.753906 251.011719 204.890625 251.214844 204.996094 C 251.414062 205.101562 251.628906 205.167969 251.851562 205.195312 C 252.078125 205.222656 252.300781 205.210938 252.519531 205.15625 C 252.738281 205.101562 252.941406 205.011719 253.128906 204.882812 C 253.464844 204.582031 253.816406 204.304688 254.183594 204.050781 C 254.550781 203.792969 254.929688 203.558594 255.324219 203.34375 C 255.71875 203.132812 256.125 202.945312 256.542969 202.78125 C 256.960938 202.617188 257.386719 202.476562 257.816406 202.359375 C 258.25 202.246094 258.691406 202.15625 259.132812 202.09375 C 259.578125 202.03125 260.023438 201.996094 260.472656 201.984375 C 260.917969 201.972656 261.367188 201.988281 261.8125 202.03125 C 262.257812 202.074219 262.699219 202.140625 263.136719 202.234375 C 263.578125 202.328125 264.007812 202.449219 264.433594 202.59375 C 264.855469 202.734375 265.269531 202.90625 265.675781 203.097656 C 266.078125 203.292969 266.472656 203.507812 266.851562 203.746094 C 267.230469 203.984375 267.59375 204.246094 267.941406 204.527344 C 268.292969 204.8125 268.621094 205.113281 268.9375 205.433594 C 269.25 205.753906 269.542969 206.09375 269.816406 206.449219 C 270.089844 206.804688 270.34375 207.171875 270.574219 207.558594 C 270.804688 207.945312 271.011719 208.339844 271.195312 208.75 C 271.378906 209.160156 271.539062 209.578125 271.675781 210.007812 C 271.808594 210.433594 271.917969 210.871094 272.003906 211.3125 C 272.085938 211.75 272.144531 212.195312 272.179688 212.644531 C 272.210938 213.09375 272.214844 213.539062 272.195312 213.988281 C 272.175781 214.4375 272.128906 214.882812 272.058594 215.328125 C 271.984375 215.769531 271.886719 216.207031 271.765625 216.640625 C 271.640625 217.070312 271.492188 217.496094 271.320312 217.910156 C 271.144531 218.324219 270.949219 218.726562 270.730469 219.117188 C 270.507812 219.507812 270.265625 219.886719 270.003906 220.246094 C 269.738281 220.609375 269.453125 220.957031 269.148438 221.285156 C 268.84375 221.613281 268.523438 221.925781 268.179688 222.21875 C 267.839844 222.507812 267.484375 222.777344 267.109375 223.027344 C 266.738281 223.277344 266.351562 223.503906 265.953125 223.707031 C 265.554688 223.914062 265.144531 224.09375 264.726562 224.25 C 264.304688 224.40625 263.875 224.535156 263.441406 224.640625 C 263.003906 224.746094 262.566406 224.828125 262.121094 224.878906 C 261.675781 224.933594 261.230469 224.960938 260.78125 224.964844 C 260.332031 224.964844 259.886719 224.941406 259.441406 224.890625 C 258.996094 224.839844 258.554688 224.761719 258.121094 224.660156 C 257.683594 224.554688 257.253906 224.429688 256.832031 224.273438 C 256.414062 224.121094 256 223.945312 255.601562 223.742188 C 255.199219 223.542969 254.8125 223.316406 254.4375 223.070312 C 254.066406 222.824219 253.707031 222.554688 253.363281 222.265625 C 253.019531 221.976562 252.695312 221.667969 252.390625 221.339844 C 252.082031 221.015625 251.796875 220.671875 251.527344 220.308594 C 251.261719 219.949219 251.019531 219.574219 250.796875 219.183594 C 250.574219 218.792969 250.375 218.390625 250.199219 217.980469 C 250.023438 217.566406 249.871094 217.144531 249.746094 216.710938 C 249.617188 216.28125 249.515625 215.84375 249.441406 215.402344 C 249.367188 214.960938 249.316406 214.515625 249.292969 214.066406 C 249.269531 213.617188 249.273438 213.167969 249.304688 212.71875 C 249.332031 212.273438 249.386719 211.828125 249.46875 211.386719 C 249.523438 211.144531 249.527344 210.902344 249.480469 210.660156 C 249.4375 210.417969 249.347656 210.195312 249.214844 209.988281 C 249.082031 209.78125 248.910156 209.609375 248.707031 209.46875 C 248.503906 209.328125 248.285156 209.234375 248.042969 209.183594 Z M 248.042969 209.183594 " fill-opacity="1" fill-rule="nonzero"/><path fill="#000000" d="M 272.386719 173.988281 C 272.214844 173.621094 271.945312 173.339844 271.589844 173.148438 C 271.230469 172.957031 270.847656 172.890625 270.445312 172.949219 C 270.15625 172.949219 263.335938 174 260.777344 178.855469 C 258.214844 183.707031 261.140625 190.054688 261.277344 190.308594 C 261.550781 190.914062 262.011719 191.265625 262.664062 191.375 C 262.847656 191.390625 263.03125 191.390625 263.214844 191.375 C 263.496094 191.375 270.3125 190.308594 272.863281 185.457031 C 275.410156 180.601562 272.507812 174.257812 272.386719 173.988281 Z M 269.59375 183.707031 C 268.542969 185.726562 265.933594 186.851562 264.105469 187.375 C 263.519531 185.519531 262.984375 182.621094 264.105469 180.589844 C 265.226562 178.5625 267.765625 177.472656 269.605469 176.921875 C 270.140625 178.792969 270.667969 181.679688 269.59375 183.707031 Z M 269.59375 183.707031 " fill-opacity="1" fill-rule="nonzero"/><path fill="#ffbd59" d="M 269.59375 183.707031 C 268.542969 185.726562 265.933594 186.851562 264.105469 187.375 C 263.519531 185.519531 262.984375 182.621094 264.105469 180.589844 C 265.226562 178.5625 267.765625 177.472656 269.605469 176.921875 C 270.140625 178.792969 270.667969 181.679688 269.59375 183.707031 Z M 269.59375 183.707031 " fill-opacity="1" fill-rule="nonzero"/><path fill="#000000" d="M 284.679688 199.210938 C 284.894531 199.347656 285.128906 199.433594 285.382812 199.472656 C 285.636719 199.515625 285.886719 199.5 286.132812 199.4375 C 286.378906 199.375 286.605469 199.261719 286.808594 199.105469 C 287.007812 198.949219 287.171875 198.757812 287.292969 198.53125 C 287.417969 198.308594 287.492188 198.066406 287.515625 197.8125 C 287.539062 197.558594 287.511719 197.308594 287.433594 197.066406 C 287.355469 196.820312 287.230469 196.601562 287.0625 196.410156 C 286.890625 196.21875 286.691406 196.066406 286.460938 195.957031 C 284.632812 194.988281 282.699219 194.34375 280.65625 194.027344 C 280.253906 193.972656 279.875 194.046875 279.519531 194.246094 C 279.167969 194.445312 278.90625 194.730469 278.742188 195.101562 C 278.617188 195.371094 275.835938 201.640625 278.53125 206.386719 C 281.144531 210.871094 287.191406 211.886719 288.363281 212.082031 C 288.765625 212.132812 289.148438 212.058594 289.503906 211.859375 C 289.859375 211.664062 290.121094 211.378906 290.289062 211.007812 C 291.070312 209.164062 291.523438 207.246094 291.65625 205.25 C 291.710938 204.984375 291.707031 204.71875 291.648438 204.453125 C 291.585938 204.1875 291.472656 203.949219 291.308594 203.734375 C 291.140625 203.519531 290.9375 203.351562 290.699219 203.222656 C 290.460938 203.097656 290.203125 203.027344 289.933594 203.015625 C 289.664062 203 289.402344 203.046875 289.152344 203.148438 C 288.898438 203.246094 288.679688 203.398438 288.496094 203.59375 C 288.308594 203.789062 288.171875 204.019531 288.085938 204.273438 C 288 204.53125 287.96875 204.796875 287.996094 205.066406 C 287.929688 206.097656 287.746094 207.105469 287.449219 208.097656 C 285.582031 207.597656 282.898438 206.507812 281.777344 204.539062 C 280.65625 202.570312 281.117188 199.820312 281.644531 198.011719 C 282.703125 198.292969 283.714844 198.691406 284.679688 199.210938 Z M 284.679688 199.210938 " fill-opacity="1" fill-rule="nonzero"/><path fill="#000000" d="M 243.664062 197.925781 C 242.445312 192.65625 236.199219 189.773438 235.945312 189.636719 C 235.570312 189.472656 235.1875 189.4375 234.789062 189.519531 C 234.394531 189.605469 234.058594 189.800781 233.785156 190.101562 C 233.601562 190.335938 229.125 195.503906 230.347656 200.800781 C 231.566406 206.09375 237.808594 208.964844 238.066406 209.085938 C 238.4375 209.257812 238.824219 209.296875 239.222656 209.210938 C 239.621094 209.125 239.957031 208.929688 240.226562 208.621094 C 240.40625 208.367188 244.882812 203.21875 243.664062 197.925781 Z M 238.308594 204.992188 C 236.824219 204.074219 234.480469 202.277344 233.945312 199.980469 C 233.40625 197.679688 234.664062 195.296875 235.699219 193.734375 C 237.1875 194.660156 239.53125 196.433594 240.066406 198.746094 C 240.601562 201.054688 239.347656 203.476562 238.308594 204.992188 Z M 238.308594 204.992188 " fill-opacity="1" fill-rule="nonzero"/><path fill="#ffbd59" d="M 238.308594 204.992188 C 236.824219 204.074219 234.480469 202.277344 233.945312 199.980469 C 233.40625 197.679688 234.664062 195.296875 235.699219 193.734375 C 237.1875 194.660156 239.53125 196.433594 240.066406 198.746094 C 240.601562 201.054688 239.347656 203.476562 238.308594 204.992188 Z M 238.308594 204.992188 " fill-opacity="1" fill-rule="nonzero"/><path fill="#f9a31e" d="M 120.277344 147.988281 C 111.449219 154.582031 103.46875 162.078125 96.332031 170.476562 C 89.191406 178.878906 83.082031 187.96875 77.992188 197.753906 C 77.886719 197.96875 77.820312 198.195312 77.804688 198.433594 C 77.785156 198.675781 77.8125 198.910156 77.882812 199.136719 C 77.957031 199.367188 78.070312 199.570312 78.222656 199.757812 C 78.378906 199.941406 78.5625 200.089844 78.773438 200.199219 L 78.957031 200.285156 C 78.1875 201.824219 77.46875 203.339844 76.808594 204.761719 L 76.601562 204.699219 C 76.378906 204.597656 76.144531 204.539062 75.898438 204.53125 C 75.65625 204.523438 75.417969 204.5625 75.1875 204.652344 C 74.957031 204.738281 74.753906 204.867188 74.578125 205.035156 C 74.398438 205.207031 74.261719 205.402344 74.164062 205.628906 C 71.648438 211.222656 69.492188 216.953125 67.6875 222.816406 C 67.53125 223.320312 67.324219 223.800781 67.074219 224.265625 C 66.820312 224.726562 66.527344 225.160156 66.191406 225.566406 C 65.855469 225.972656 65.480469 226.339844 65.074219 226.671875 C 64.664062 227.003906 64.230469 227.292969 63.765625 227.539062 C 63.300781 227.785156 62.816406 227.984375 62.3125 228.132812 C 61.808594 228.285156 61.292969 228.386719 60.769531 228.433594 C 60.246094 228.484375 59.722656 228.484375 59.199219 228.429688 C 58.675781 228.378906 58.164062 228.273438 57.660156 228.121094 C 57.160156 227.964844 56.683594 227.765625 56.222656 227.515625 C 55.761719 227.265625 55.332031 226.972656 54.929688 226.640625 C 54.527344 226.304688 54.160156 225.9375 53.828125 225.53125 C 53.496094 225.125 53.210938 224.691406 52.964844 224.226562 C 52.71875 223.765625 52.519531 223.28125 52.371094 222.78125 C 52.21875 222.277344 52.117188 221.765625 52.066406 221.246094 C 52.015625 220.722656 52.015625 220.203125 52.066406 219.679688 C 52.117188 219.160156 52.21875 218.648438 52.367188 218.144531 C 54.910156 209.914062 58.074219 201.929688 61.871094 194.195312 C 65.664062 186.460938 70.035156 179.070312 74.988281 172.027344 C 79.941406 164.980469 85.414062 158.367188 91.40625 152.1875 C 97.398438 146.003906 103.832031 140.332031 110.714844 135.164062 C 111.132812 134.808594 111.578125 134.503906 112.058594 134.242188 C 112.539062 133.980469 113.039062 133.769531 113.5625 133.609375 C 114.082031 133.453125 114.617188 133.347656 115.160156 133.296875 C 115.703125 133.25 116.246094 133.253906 116.789062 133.316406 C 117.328125 133.378906 117.859375 133.496094 118.378906 133.664062 C 118.898438 133.835938 119.394531 134.058594 119.867188 134.332031 C 120.339844 134.601562 120.78125 134.921875 121.1875 135.28125 C 121.597656 135.644531 121.964844 136.046875 122.292969 136.484375 C 122.617188 136.921875 122.898438 137.390625 123.128906 137.882812 C 123.359375 138.378906 123.539062 138.894531 123.664062 139.425781 C 123.792969 139.957031 123.863281 140.496094 123.878906 141.042969 C 123.894531 141.589844 123.855469 142.132812 123.761719 142.671875 C 123.667969 143.210938 123.519531 143.734375 123.320312 144.242188 C 123.117188 144.75 122.867188 145.234375 122.566406 145.691406 C 122.269531 146.148438 121.925781 146.570312 121.539062 146.957031 C 121.152344 147.34375 120.730469 147.6875 120.277344 147.988281 Z M 120.277344 147.988281 " fill-opacity="1" fill-rule="nonzero"/><path stroke-linecap="butt" transform="matrix(1.219612, 0, 0, 1.222494, 48.319098, 127.681602)" fill="none" stroke-linejoin="miter" d="M 34.281224 42.930657 C 30.921422 48.260439 27.869095 53.759573 25.12104 59.431253 " stroke="#000000" stroke-width="1" stroke-opacity="1" stroke-miterlimit="10"/><path stroke-linecap="butt" transform="matrix(1.219612, 0, 0, 1.222494, 48.319098, 127.681602)" fill="none" stroke-linejoin="miter" d="M 18.359799 74.279872 C 18.359799 74.279872 20.291124 69.541223 23.359466 63.089886 " stroke="#000000" stroke-width="1" stroke-opacity="1" stroke-miterlimit="10"/><path fill="#f9a31e" d="M 317.683594 224.871094 C 317.183594 225.035156 316.675781 225.148438 316.152344 225.214844 C 315.632812 225.28125 315.109375 225.292969 314.585938 225.253906 C 314.0625 225.214844 313.546875 225.125 313.042969 224.984375 C 312.535156 224.84375 312.046875 224.65625 311.578125 224.417969 C 311.109375 224.183594 310.667969 223.902344 310.253906 223.578125 C 309.839844 223.253906 309.460938 222.894531 309.121094 222.496094 C 308.777344 222.097656 308.476562 221.667969 308.21875 221.210938 C 307.960938 220.75 307.75 220.273438 307.585938 219.773438 C 304.152344 209.277344 299.597656 199.300781 293.921875 189.839844 C 288.242188 180.375 281.585938 171.664062 273.949219 163.707031 C 273.773438 163.535156 273.574219 163.402344 273.347656 163.308594 C 273.121094 163.214844 272.886719 163.171875 272.640625 163.171875 C 272.398438 163.171875 272.164062 163.214844 271.9375 163.308594 C 271.710938 163.402344 271.511719 163.535156 271.335938 163.707031 C 270.117188 162.484375 268.898438 161.324219 267.75 160.285156 C 267.75 160.285156 267.824219 160.222656 267.863281 160.199219 C 268.027344 160.015625 268.148438 159.808594 268.234375 159.578125 C 268.316406 159.34375 268.351562 159.105469 268.339844 158.859375 C 268.328125 158.613281 268.269531 158.378906 268.167969 158.15625 C 268.0625 157.933594 267.921875 157.738281 267.738281 157.570312 C 263.242188 153.425781 258.503906 149.574219 253.53125 146.019531 C 253.101562 145.710938 252.710938 145.367188 252.351562 144.980469 C 251.992188 144.597656 251.671875 144.179688 251.394531 143.730469 C 251.117188 143.285156 250.882812 142.8125 250.699219 142.320312 C 250.515625 141.828125 250.378906 141.320312 250.292969 140.800781 C 250.207031 140.277344 250.171875 139.753906 250.1875 139.226562 C 250.207031 138.703125 250.273438 138.179688 250.394531 137.667969 C 250.511719 137.152344 250.679688 136.65625 250.898438 136.175781 C 251.113281 135.695312 251.375 135.242188 251.683594 134.8125 C 251.988281 134.382812 252.332031 133.988281 252.71875 133.628906 C 253.101562 133.265625 253.515625 132.949219 253.960938 132.667969 C 254.410156 132.390625 254.878906 132.15625 255.371094 131.972656 C 255.863281 131.785156 256.367188 131.648438 256.886719 131.5625 C 257.40625 131.476562 257.929688 131.441406 258.453125 131.457031 C 258.980469 131.472656 259.5 131.542969 260.011719 131.660156 C 260.523438 131.78125 261.019531 131.949219 261.5 132.164062 C 261.980469 132.382812 262.433594 132.644531 262.859375 132.949219 C 269.832031 137.980469 276.367188 143.523438 282.46875 149.585938 C 288.570312 155.644531 294.164062 162.144531 299.246094 169.085938 C 304.328125 176.027344 308.839844 183.320312 312.777344 190.972656 C 316.714844 198.625 320.035156 206.535156 322.730469 214.710938 C 322.894531 215.210938 323.011719 215.722656 323.074219 216.242188 C 323.140625 216.765625 323.152344 217.289062 323.113281 217.816406 C 323.078125 218.339844 322.988281 218.855469 322.847656 219.363281 C 322.710938 219.871094 322.523438 220.359375 322.289062 220.832031 C 322.054688 221.300781 321.777344 221.746094 321.457031 222.160156 C 321.136719 222.578125 320.78125 222.960938 320.382812 223.304688 C 319.988281 223.652344 319.566406 223.957031 319.109375 224.21875 C 318.65625 224.484375 318.179688 224.699219 317.683594 224.871094 Z M 317.683594 224.871094 " fill-opacity="1" fill-rule="nonzero"/><path stroke-linecap="butt" transform="matrix(1.219612, 0, 0, 1.222494, 48.319098, 127.681602)" fill="none" stroke-linejoin="miter" d="M 199.660987 51.049947 C 195.000823 42.489704 188.428551 34.999891 182.849166 29.468804 " stroke="#000000" stroke-width="1" stroke-opacity="1" stroke-miterlimit="10"/><path stroke-linecap="butt" transform="matrix(1.219612, 0, 0, 1.222494, 48.319098, 127.681602)" fill="none" stroke-linejoin="miter" d="M 179.908939 26.66971 C 175.370484 22.471069 172.058725 20.020264 172.058725 20.020264 " stroke="#000000" stroke-width="1" stroke-opacity="1" stroke-miterlimit="10"/><path fill="#ff363d" d="M 201.320312 160.285156 C 201.320312 160.777344 201.273438 161.265625 201.175781 161.75 C 201.078125 162.234375 200.9375 162.703125 200.75 163.15625 C 200.5625 163.613281 200.332031 164.046875 200.058594 164.457031 C 199.785156 164.867188 199.472656 165.246094 199.125 165.59375 C 198.777344 165.941406 198.398438 166.253906 197.992188 166.527344 C 197.582031 166.800781 197.152344 167.03125 196.695312 167.21875 C 196.242188 167.410156 195.773438 167.550781 195.292969 167.648438 C 194.808594 167.742188 194.324219 167.792969 193.832031 167.792969 C 193.339844 167.792969 192.851562 167.742188 192.371094 167.648438 C 191.886719 167.550781 191.417969 167.410156 190.964844 167.21875 C 190.511719 167.03125 190.078125 166.800781 189.671875 166.527344 C 189.261719 166.253906 188.882812 165.941406 188.535156 165.59375 C 188.1875 165.246094 187.878906 164.867188 187.605469 164.457031 C 187.332031 164.046875 187.101562 163.613281 186.914062 163.15625 C 186.722656 162.703125 186.582031 162.234375 186.488281 161.75 C 186.390625 161.265625 186.34375 160.777344 186.34375 160.285156 C 186.34375 159.792969 186.390625 159.304688 186.488281 158.820312 C 186.582031 158.335938 186.722656 157.867188 186.914062 157.414062 C 187.101562 156.957031 187.332031 156.523438 187.605469 156.117188 C 187.878906 155.707031 188.1875 155.328125 188.535156 154.976562 C 188.882812 154.628906 189.261719 154.316406 189.671875 154.042969 C 190.078125 153.769531 190.511719 153.539062 190.964844 153.351562 C 191.417969 153.164062 191.886719 153.019531 192.371094 152.921875 C 192.851562 152.828125 193.339844 152.78125 193.832031 152.78125 C 194.324219 152.78125 194.808594 152.828125 195.292969 152.921875 C 195.773438 153.019531 196.242188 153.164062 196.695312 153.351562 C 197.152344 153.539062 197.582031 153.769531 197.992188 154.042969 C 198.398438 154.316406 198.777344 154.628906 199.125 154.976562 C 199.472656 155.328125 199.785156 155.707031 200.058594 156.117188 C 200.332031 156.523438 200.5625 156.957031 200.75 157.414062 C 200.9375 157.867188 201.078125 158.335938 201.175781 158.820312 C 201.273438 159.304688 201.320312 159.792969 201.320312 160.285156 Z M 201.320312 160.285156 " fill-opacity="1" fill-rule="nonzero"/><g clip-path="url(#31db28acae)"><path stroke-linecap="butt" transform="matrix(1.219612, 0, 0, 1.222494, 48.319098, 127.681602)" fill="none" stroke-linejoin="miter" d="M 125.450682 26.66971 C 125.450682 27.07232 125.412248 27.471734 125.332176 27.867953 C 125.252105 28.264171 125.136802 28.647609 124.983064 29.018265 C 124.829327 29.392117 124.640358 29.746797 124.416158 30.082304 C 124.191957 30.417812 123.935728 30.727758 123.650674 31.01214 C 123.365619 31.296523 123.054941 31.552148 122.721844 31.77582 C 122.385543 31.999492 122.033229 32.188016 121.658494 32.341391 C 121.286962 32.497961 120.902618 32.612992 120.508666 32.692875 C 120.111512 32.769563 119.714357 32.811102 119.310796 32.811102 C 118.907236 32.811102 118.506878 32.769563 118.112926 32.692875 C 117.715771 32.612992 117.331428 32.497961 116.959896 32.341391 C 116.588364 32.188016 116.232846 31.999492 115.899748 31.77582 C 115.563448 31.552148 115.25277 31.296523 114.967716 31.01214 C 114.682661 30.727758 114.429635 30.417812 114.205435 30.082304 C 113.981234 29.746797 113.792265 29.392117 113.638528 29.018265 C 113.481588 28.647609 113.366285 28.264171 113.289416 27.867953 C 113.209345 27.471734 113.17091 27.07232 113.17091 26.66971 C 113.17091 26.267101 113.209345 25.867687 113.289416 25.471468 C 113.366285 25.075249 113.481588 24.691812 113.638528 24.321155 C 113.792265 23.947304 113.981234 23.592624 114.205435 23.260312 C 114.429635 22.924804 114.682661 22.614858 114.967716 22.32728 C 115.25277 22.042897 115.563448 21.787272 115.899748 21.5636 C 116.232846 21.339928 116.588364 21.151405 116.959896 20.99803 C 117.331428 20.844655 117.715771 20.726428 118.112926 20.646546 C 118.506878 20.569858 118.907236 20.531514 119.310796 20.531514 C 119.714357 20.531514 120.111512 20.569858 120.508666 20.646546 C 120.902618 20.726428 121.286962 20.844655 121.658494 20.99803 C 122.033229 21.151405 122.385543 21.339928 122.721844 21.5636 C 123.054941 21.787272 123.365619 22.042897 123.650674 22.32728 C 123.935728 22.614858 124.191957 22.924804 124.416158 23.260312 C 124.640358 23.592624 124.829327 23.947304 124.983064 24.321155 C 125.136802 24.691812 125.252105 25.075249 125.332176 25.471468 C 125.412248 25.867687 125.450682 26.267101 125.450682 26.66971 Z M 125.450682 26.66971 " stroke="#231f20" stroke-width="2" stroke-opacity="1" stroke-miterlimit="10"/></g><path fill="#ff363d" d="M 71.699219 154.382812 C 71.699219 154.640625 71.671875 154.898438 71.621094 155.15625 C 71.570312 155.410156 71.496094 155.660156 71.398438 155.902344 C 71.296875 156.140625 71.175781 156.371094 71.03125 156.589844 C 70.886719 156.804688 70.722656 157.003906 70.539062 157.191406 C 70.355469 157.375 70.152344 157.539062 69.9375 157.683594 C 69.722656 157.828125 69.492188 157.953125 69.253906 158.050781 C 69.011719 158.152344 68.765625 158.226562 68.507812 158.277344 C 68.253906 158.328125 67.996094 158.355469 67.734375 158.355469 C 67.476562 158.355469 67.21875 158.328125 66.960938 158.277344 C 66.707031 158.226562 66.457031 158.152344 66.21875 158.050781 C 65.976562 157.953125 65.75 157.828125 65.53125 157.683594 C 65.316406 157.539062 65.117188 157.375 64.933594 157.191406 C 64.75 157.003906 64.585938 156.804688 64.441406 156.589844 C 64.296875 156.371094 64.171875 156.140625 64.074219 155.902344 C 63.972656 155.660156 63.898438 155.410156 63.847656 155.15625 C 63.796875 154.898438 63.773438 154.640625 63.773438 154.382812 C 63.773438 154.121094 63.796875 153.863281 63.847656 153.605469 C 63.898438 153.351562 63.972656 153.101562 64.074219 152.859375 C 64.171875 152.621094 64.296875 152.390625 64.441406 152.171875 C 64.585938 151.957031 64.75 151.757812 64.933594 151.570312 C 65.117188 151.386719 65.316406 151.222656 65.53125 151.078125 C 65.75 150.933594 65.976562 150.808594 66.21875 150.710938 C 66.457031 150.609375 66.707031 150.535156 66.960938 150.484375 C 67.21875 150.433594 67.476562 150.40625 67.734375 150.40625 C 67.996094 150.40625 68.253906 150.433594 68.507812 150.484375 C 68.765625 150.535156 69.011719 150.609375 69.253906 150.710938 C 69.492188 150.808594 69.722656 150.933594 69.9375 151.078125 C 70.152344 151.222656 70.355469 151.386719 70.539062 151.570312 C 70.722656 151.757812 70.886719 151.957031 71.03125 152.171875 C 71.175781 152.390625 71.296875 152.621094 71.398438 152.859375 C 71.496094 153.101562 71.570312 153.351562 71.621094 153.605469 C 71.671875 153.863281 71.699219 154.121094 71.699219 154.382812 Z M 71.699219 154.382812 " fill-opacity="1" fill-rule="nonzero"/><g clip-path="url(#dd1c09bcfc)"><path stroke-linecap="butt" transform="matrix(1.219612, 0, 0, 1.222494, 48.319098, 127.681602)" fill="none" stroke-linejoin="miter" d="M 19.170123 21.841593 C 19.170123 22.052483 19.147703 22.263374 19.106066 22.474265 C 19.064428 22.68196 19.003574 22.88646 18.923503 23.084569 C 18.840228 23.279483 18.740939 23.468007 18.622434 23.646944 C 18.503928 23.822687 18.369407 23.985648 18.218873 24.139023 C 18.068338 24.289202 17.90179 24.423405 17.725632 24.541632 C 17.549475 24.659859 17.360506 24.762109 17.165131 24.841991 C 16.966554 24.92507 16.764774 24.98578 16.553385 25.02732 C 16.345199 25.068859 16.13381 25.091226 15.919218 25.091226 C 15.707829 25.091226 15.496441 25.068859 15.285052 25.02732 C 15.076866 24.98578 14.871882 24.92507 14.676508 24.841991 C 14.47793 24.762109 14.292165 24.659859 14.112804 24.541632 C 13.936647 24.423405 13.773301 24.289202 13.622766 24.139023 C 13.472232 23.985648 13.337712 23.822687 13.219206 23.646944 C 13.1007 23.468007 12.998208 23.279483 12.918137 23.084569 C 12.834862 22.88646 12.774008 22.68196 12.732371 22.474265 C 12.690734 22.263374 12.671517 22.052483 12.671517 21.841593 C 12.671517 21.627507 12.690734 21.416616 12.732371 21.205725 C 12.774008 20.99803 12.834862 20.79353 12.918137 20.595421 C 12.998208 20.400507 13.1007 20.211983 13.219206 20.033046 C 13.337712 19.857303 13.472232 19.694342 13.622766 19.540967 C 13.773301 19.390788 13.936647 19.256585 14.112804 19.138358 C 14.292165 19.020131 14.47793 18.917881 14.676508 18.837999 C 14.871882 18.75492 15.076866 18.694209 15.285052 18.65267 C 15.496441 18.611131 15.707829 18.588764 15.919218 18.588764 C 16.13381 18.588764 16.345199 18.611131 16.553385 18.65267 C 16.764774 18.694209 16.966554 18.75492 17.165131 18.837999 C 17.360506 18.917881 17.549475 19.020131 17.725632 19.138358 C 17.90179 19.256585 18.068338 19.390788 18.218873 19.540967 C 18.369407 19.694342 18.503928 19.857303 18.622434 20.033046 C 18.740939 20.211983 18.840228 20.400507 18.923503 20.595421 C 19.003574 20.79353 19.064428 20.99803 19.106066 21.205725 C 19.147703 21.416616 19.170123 21.627507 19.170123 21.841593 Z M 19.170123 21.841593 " stroke="#231f20" stroke-width="1" stroke-opacity="1" stroke-miterlimit="10"/></g><path fill="#ffbd59" d="M 309.707031 241.628906 C 309.707031 241.890625 309.679688 242.148438 309.628906 242.40625 C 309.578125 242.660156 309.503906 242.910156 309.40625 243.152344 C 309.304688 243.390625 309.183594 243.621094 309.039062 243.835938 C 308.894531 244.054688 308.730469 244.253906 308.546875 244.441406 C 308.363281 244.625 308.160156 244.789062 307.945312 244.933594 C 307.726562 245.078125 307.5 245.199219 307.257812 245.300781 C 307.019531 245.402344 306.769531 245.476562 306.515625 245.527344 C 306.261719 245.578125 306.003906 245.601562 305.742188 245.601562 C 305.484375 245.601562 305.226562 245.578125 304.96875 245.527344 C 304.714844 245.476562 304.464844 245.402344 304.226562 245.300781 C 303.984375 245.199219 303.757812 245.078125 303.539062 244.933594 C 303.324219 244.789062 303.125 244.625 302.941406 244.441406 C 302.757812 244.253906 302.589844 244.054688 302.445312 243.835938 C 302.300781 243.621094 302.179688 243.390625 302.082031 243.152344 C 301.980469 242.910156 301.90625 242.660156 301.855469 242.40625 C 301.804688 242.148438 301.777344 241.890625 301.777344 241.628906 C 301.777344 241.371094 301.804688 241.109375 301.855469 240.855469 C 301.90625 240.597656 301.980469 240.351562 302.082031 240.109375 C 302.179688 239.867188 302.300781 239.640625 302.445312 239.421875 C 302.589844 239.207031 302.757812 239.003906 302.941406 238.820312 C 303.125 238.636719 303.324219 238.472656 303.539062 238.328125 C 303.757812 238.183594 303.984375 238.058594 304.226562 237.960938 C 304.464844 237.859375 304.714844 237.785156 304.96875 237.734375 C 305.226562 237.683594 305.484375 237.65625 305.742188 237.65625 C 306.003906 237.65625 306.261719 237.683594 306.515625 237.734375 C 306.769531 237.785156 307.019531 237.859375 307.257812 237.960938 C 307.5 238.058594 307.726562 238.183594 307.945312 238.328125 C 308.160156 238.472656 308.363281 238.636719 308.546875 238.820312 C 308.730469 239.003906 308.894531 239.207031 309.039062 239.421875 C 309.183594 239.640625 309.304688 239.867188 309.40625 240.109375 C 309.503906 240.351562 309.578125 240.597656 309.628906 240.855469 C 309.679688 241.109375 309.707031 241.371094 309.707031 241.628906 Z M 309.707031 241.628906 " fill-opacity="1" fill-rule="nonzero"/><g clip-path="url(#76ff2d0897)"><path stroke-linecap="butt" transform="matrix(1.219612, 0, 0, 1.222494, 48.319098, 127.681602)" fill="none" stroke-linejoin="miter" d="M 214.320485 93.208905 C 214.320485 93.422991 214.298065 93.633882 214.256428 93.844772 C 214.214791 94.052468 214.153936 94.256968 214.073865 94.455077 C 213.99059 94.649991 213.891302 94.838515 213.772796 95.014257 C 213.65429 95.193195 213.51977 95.356155 213.369235 95.50953 C 213.218701 95.65971 213.052152 95.793913 212.875994 95.91214 C 212.696634 96.030366 212.510868 96.129421 212.312291 96.212499 C 212.116916 96.295577 211.911933 96.356288 211.703747 96.397827 C 211.495561 96.439367 211.284172 96.458538 211.06958 96.458538 C 210.858192 96.458538 210.646803 96.439367 210.435414 96.397827 C 210.227228 96.356288 210.022245 96.295577 209.82687 96.212499 C 209.628293 96.129421 209.442527 96.030366 209.263166 95.91214 C 209.087009 95.793913 208.923663 95.65971 208.773129 95.50953 C 208.622594 95.356155 208.484871 95.193195 208.366365 95.014257 C 208.247859 94.838515 208.148571 94.649991 208.068499 94.455077 C 207.985225 94.256968 207.92437 94.052468 207.882733 93.844772 C 207.841096 93.633882 207.818676 93.422991 207.818676 93.208905 C 207.818676 92.998015 207.841096 92.783929 207.882733 92.576233 C 207.92437 92.365343 207.985225 92.164038 208.068499 91.965929 C 208.148571 91.767819 208.247859 91.582491 208.366365 91.403553 C 208.484871 91.227811 208.622594 91.061655 208.773129 90.911475 C 208.923663 90.761296 209.087009 90.627092 209.263166 90.508866 C 209.442527 90.390639 209.628293 90.288389 209.82687 90.208506 C 210.022245 90.125428 210.227228 90.064717 210.435414 90.023178 C 210.646803 89.981639 210.858192 89.959272 211.06958 89.959272 C 211.284172 89.959272 211.495561 89.981639 211.703747 90.023178 C 211.911933 90.064717 212.116916 90.125428 212.312291 90.208506 C 212.510868 90.288389 212.696634 90.390639 212.875994 90.508866 C 213.052152 90.627092 213.218701 90.761296 213.369235 90.911475 C 213.51977 91.061655 213.65429 91.227811 213.772796 91.403553 C 213.891302 91.582491 213.99059 91.767819 214.073865 91.965929 C 214.153936 92.164038 214.214791 92.365343 214.256428 92.576233 C 214.298065 92.783929 214.320485 92.998015 214.320485 93.208905 Z M 214.320485 93.208905 " stroke="#231f20" stroke-width="1" stroke-opacity="1" stroke-miterlimit="10"/></g><path stroke-linecap="butt" transform="matrix(1.219612, 0, 0, 1.222494, 48.319098, 127.681602)" fill-opacity="1" fill="#ff363d" fill-rule="nonzero" stroke-linejoin="miter" d="M 96.160512 36.000024 C 96.160512 36.242868 96.134889 36.485711 96.090049 36.72536 C 96.042006 36.961813 95.971543 37.195071 95.87866 37.418743 C 95.785777 37.64561 95.670474 37.859696 95.535954 38.061001 C 95.398231 38.262305 95.244493 38.450829 95.074742 38.623376 C 94.901787 38.795923 94.712818 38.949298 94.511038 39.083501 C 94.309258 39.220899 94.094666 39.33593 93.870466 39.428595 C 93.646266 39.521259 93.412457 39.591556 93.172242 39.639485 C 92.93523 39.687415 92.695016 39.709782 92.451598 39.709782 C 92.204978 39.709782 91.964763 39.687415 91.727751 39.639485 C 91.487537 39.591556 91.253728 39.521259 91.029528 39.428595 C 90.805327 39.33593 90.590735 39.220899 90.388955 39.083501 C 90.187175 38.949298 89.998206 38.795923 89.825252 38.623376 C 89.6555 38.450829 89.501763 38.262305 89.364039 38.061001 C 89.229519 37.859696 89.114216 37.64561 89.021333 37.418743 C 88.92845 37.195071 88.857987 36.961813 88.809944 36.72536 C 88.765104 36.485711 88.739481 36.242868 88.739481 36.000024 C 88.739481 35.75718 88.765104 35.514336 88.809944 35.274688 C 88.857987 35.038235 88.92845 34.804977 89.021333 34.581305 C 89.114216 34.354438 89.229519 34.140352 89.364039 33.939047 C 89.501763 33.737742 89.6555 33.549219 89.825252 33.376672 C 89.998206 33.204125 90.187175 33.05075 90.388955 32.916547 C 90.590735 32.779149 90.805327 32.664117 91.029528 32.571453 C 91.253728 32.478789 91.487537 32.408492 91.727751 32.360563 C 91.964763 32.312633 92.204978 32.290266 92.451598 32.290266 C 92.695016 32.290266 92.93523 32.312633 93.172242 32.360563 C 93.412457 32.408492 93.646266 32.478789 93.870466 32.571453 C 94.094666 32.664117 94.309258 32.779149 94.511038 32.916547 C 94.712818 33.05075 94.901787 33.204125 95.074742 33.376672 C 95.244493 33.549219 95.398231 33.737742 95.535954 33.939047 C 95.670474 34.140352 95.785777 34.354438 95.87866 34.581305 C 95.971543 34.804977 96.042006 35.038235 96.090049 35.274688 C 96.134889 35.514336 96.160512 35.75718 96.160512 36.000024 Z M 96.160512 36.000024 " stroke="#231f20" stroke-width="2" stroke-opacity="1" stroke-miterlimit="10"/><path stroke-linecap="butt" transform="matrix(1.219612, 0, 0, 1.222494, 48.319098, 127.681602)" fill-opacity="1" fill="#ffbd59" fill-rule="nonzero" stroke-linejoin="miter" d="M 119.310796 57.66105 C 119.310796 58.041292 119.272362 58.418339 119.198696 58.79219 C 119.12503 59.166042 119.01293 59.527112 118.868801 59.878597 C 118.72147 60.230081 118.545312 60.565589 118.333923 60.881925 C 118.119332 61.198261 117.879117 61.49223 117.610077 61.760636 C 117.341036 62.029042 117.049576 62.271886 116.732493 62.482777 C 116.415409 62.693667 116.082312 62.872605 115.729997 63.019589 C 115.377682 63.163378 115.015759 63.275214 114.641024 63.348707 C 114.269492 63.422199 113.891554 63.460543 113.510414 63.460543 C 113.129273 63.460543 112.751335 63.422199 112.379803 63.348707 C 112.005069 63.275214 111.643145 63.163378 111.290831 63.019589 C 110.938516 62.872605 110.605418 62.693667 110.288335 62.482777 C 109.971252 62.271886 109.676588 62.029042 109.407548 61.760636 C 109.138507 61.49223 108.898293 61.198261 108.686904 60.881925 C 108.475515 60.565589 108.296155 60.230081 108.152026 59.878597 C 108.004694 59.527112 107.895797 59.166042 107.822131 58.79219 C 107.748465 58.418339 107.710031 58.041292 107.710031 57.66105 C 107.710031 57.277612 107.748465 56.900565 107.822131 56.529909 C 107.895797 56.156057 108.004694 55.791792 108.152026 55.440307 C 108.296155 55.088823 108.475515 54.753315 108.686904 54.436979 C 108.898293 54.120643 109.138507 53.826674 109.407548 53.558268 C 109.676588 53.289862 109.971252 53.050213 110.288335 52.836127 C 110.605418 52.625237 110.938516 52.446299 111.290831 52.30251 C 111.643145 52.155526 112.005069 52.046885 112.379803 51.970198 C 112.751335 51.896705 113.129273 51.861557 113.510414 51.861557 C 113.891554 51.861557 114.269492 51.896705 114.641024 51.970198 C 115.015759 52.046885 115.377682 52.155526 115.729997 52.30251 C 116.082312 52.446299 116.415409 52.625237 116.732493 52.836127 C 117.049576 53.050213 117.341036 53.289862 117.610077 53.558268 C 117.879117 53.826674 118.119332 54.120643 118.333923 54.436979 C 118.545312 54.753315 118.72147 55.088823 118.868801 55.440307 C 119.01293 55.791792 119.12503 56.156057 119.198696 56.529909 C 119.272362 56.900565 119.310796 57.277612 119.310796 57.66105 Z M 119.310796 57.66105 " stroke="#231f20" stroke-width="2" stroke-opacity="1" stroke-miterlimit="10"/></svg>