<svg xmlns="http://www.w3.org/2000/svg" xmlns:xlink="http://www.w3.org/1999/xlink" width="500" zoomAndPan="magnify" viewBox="0 0 375 374.999991" height="500" preserveAspectRatio="xMidYMid meet" version="1.0"><defs><clipPath id="cf675143f5"><path d="M 85.714844 145 L 182 145 L 182 230.824219 L 85.714844 230.824219 Z M 85.714844 145 " clip-rule="nonzero"/></clipPath><clipPath id="c83acf58ad"><path d="M 193 143.824219 L 288.964844 143.824219 L 288.964844 230.824219 L 193 230.824219 Z M 193 143.824219 " clip-rule="nonzero"/></clipPath><clipPath id="458bd0703b"><path d="M 161 143.824219 L 223 143.824219 L 223 198 L 161 198 Z M 161 143.824219 " clip-rule="nonzero"/></clipPath><clipPath id="6adb7a000d"><path d="M 85.714844 147 L 116 147 L 116 179 L 85.714844 179 Z M 85.714844 147 " clip-rule="nonzero"/></clipPath><clipPath id="aae2a1da0b"><path d="M 257 211 L 288.964844 211 L 288.964844 230.824219 L 257 230.824219 Z M 257 211 " clip-rule="nonzero"/></clipPath></defs><g clip-path="url(#cf675143f5)"><path fill="#000000" d="M 180.816406 222.625 L 167.355469 199.007812 C 167.265625 198.851562 167.152344 198.71875 167.011719 198.609375 C 166.867188 198.5 166.710938 198.421875 166.539062 198.375 C 166.367188 198.328125 166.191406 198.316406 166.011719 198.339844 C 165.835938 198.363281 165.667969 198.417969 165.511719 198.503906 C 165.355469 198.59375 165.222656 198.710938 165.113281 198.851562 C 165.003906 198.992188 164.925781 199.148438 164.878906 199.320312 C 164.832031 199.492188 164.820312 199.667969 164.84375 199.847656 C 164.867188 200.023438 164.921875 200.191406 165.011719 200.34375 L 178.480469 223.964844 C 178.765625 224.4375 178.894531 224.945312 178.875 225.496094 C 178.851562 226.046875 178.679688 226.546875 178.359375 226.992188 C 178.035156 227.4375 177.617188 227.761719 177.101562 227.957031 C 176.585938 228.152344 176.058594 228.1875 175.519531 228.070312 L 175.46875 228.070312 L 169.042969 226.953125 C 169.28125 226.574219 169.492188 226.183594 169.679688 225.78125 C 169.871094 225.375 170.035156 224.960938 170.171875 224.539062 C 170.308594 224.117188 170.421875 223.6875 170.507812 223.25 C 170.59375 222.8125 170.652344 222.371094 170.6875 221.925781 C 170.71875 221.484375 170.726562 221.039062 170.703125 220.59375 C 170.683594 220.148438 170.632812 219.707031 170.558594 219.269531 C 170.484375 218.828125 170.382812 218.394531 170.253906 217.96875 C 170.128906 217.542969 169.976562 217.125 169.796875 216.71875 C 169.617188 216.308594 169.417969 215.914062 169.191406 215.527344 C 168.964844 215.144531 168.714844 214.777344 168.445312 214.421875 C 168.171875 214.070312 167.882812 213.734375 167.570312 213.414062 C 167.257812 213.09375 166.925781 212.796875 166.578125 212.519531 C 166.230469 212.238281 165.867188 211.984375 165.488281 211.75 C 165.109375 211.515625 164.714844 211.304688 164.3125 211.117188 C 163.90625 210.929688 163.492188 210.765625 163.066406 210.628906 C 162.640625 210.492188 162.210938 210.382812 161.773438 210.296875 C 161.332031 210.210938 160.890625 210.152344 160.445312 210.121094 C 160 210.089844 159.554688 210.085938 159.109375 210.109375 C 158.664062 210.128906 158.222656 210.179688 157.78125 210.253906 C 157.34375 210.332031 156.910156 210.433594 156.480469 210.5625 C 156.054688 210.691406 155.636719 210.84375 155.226562 211.023438 C 154.816406 211.203125 154.421875 211.402344 154.039062 211.632812 C 153.652344 211.859375 153.285156 212.105469 152.929688 212.378906 C 152.574219 212.648438 152.238281 212.941406 151.921875 213.253906 C 151.601562 213.566406 151.304688 213.894531 151.027344 214.242188 C 150.746094 214.589844 150.492188 214.957031 150.257812 215.335938 C 150.023438 215.714844 149.8125 216.105469 149.625 216.507812 C 149.4375 216.914062 149.277344 217.328125 149.140625 217.753906 C 149.003906 218.175781 148.894531 218.605469 148.8125 219.042969 C 148.726562 219.480469 148.667969 219.921875 148.640625 220.367188 C 148.609375 220.8125 148.605469 221.257812 148.628906 221.699219 C 148.652344 222.144531 148.703125 222.585938 148.78125 223.027344 C 148.800781 223.167969 148.832031 223.3125 148.867188 223.449219 L 127.46875 219.753906 C 127.683594 219.371094 127.871094 218.976562 128.039062 218.570312 C 128.207031 218.164062 128.351562 217.75 128.46875 217.324219 C 128.585938 216.902344 128.675781 216.472656 128.742188 216.039062 C 128.808594 215.605469 128.847656 215.167969 128.863281 214.730469 C 128.878906 214.289062 128.863281 213.851562 128.828125 213.414062 C 128.789062 212.976562 128.722656 212.542969 128.632812 212.113281 C 128.542969 211.683594 128.425781 211.261719 128.285156 210.84375 C 128.144531 210.429688 127.980469 210.023438 127.789062 209.625 C 127.601562 209.230469 127.386719 208.84375 127.152344 208.472656 C 126.917969 208.101562 126.660156 207.746094 126.382812 207.40625 C 126.101562 207.066406 125.804688 206.742188 125.488281 206.4375 C 125.171875 206.132812 124.835938 205.847656 124.488281 205.582031 C 124.136719 205.316406 123.769531 205.074219 123.390625 204.851562 C 123.007812 204.632812 122.617188 204.433594 122.214844 204.257812 C 121.808594 204.082031 121.398438 203.933594 120.976562 203.804688 C 120.554688 203.679688 120.125 203.582031 119.691406 203.503906 C 119.257812 203.429688 118.820312 203.382812 118.382812 203.359375 C 117.941406 203.335938 117.503906 203.339844 117.0625 203.371094 C 116.625 203.398438 116.1875 203.453125 115.753906 203.535156 C 115.320312 203.617188 114.894531 203.726562 114.476562 203.855469 C 114.054688 203.988281 113.644531 204.148438 113.246094 204.328125 C 112.84375 204.507812 112.453125 204.714844 112.078125 204.941406 C 111.703125 205.167969 111.339844 205.417969 110.992188 205.6875 C 110.644531 205.960938 110.316406 206.25 110.003906 206.558594 C 109.691406 206.871094 109.398438 207.195312 109.128906 207.542969 C 108.855469 207.886719 108.601562 208.246094 108.375 208.621094 C 108.144531 208.996094 107.9375 209.382812 107.753906 209.78125 C 107.570312 210.179688 107.410156 210.589844 107.277344 211.007812 C 107.140625 211.425781 107.03125 211.851562 106.949219 212.28125 C 106.867188 212.714844 106.808594 213.148438 106.777344 213.585938 C 106.746094 214.023438 106.738281 214.464844 106.761719 214.902344 C 106.78125 215.339844 106.828125 215.777344 106.902344 216.210938 L 101.828125 215.324219 C 103.730469 210.769531 105.007812 205.867188 107.210938 201.433594 C 107.347656 201.125 107.367188 200.808594 107.265625 200.484375 C 107.164062 200.160156 106.96875 199.910156 106.679688 199.734375 L 106.492188 199.664062 C 106.332031 199.589844 106.160156 199.546875 105.980469 199.542969 C 105.800781 199.535156 105.628906 199.5625 105.460938 199.628906 C 105.296875 199.691406 105.148438 199.785156 105.019531 199.90625 C 104.886719 200.03125 104.789062 200.171875 104.714844 200.335938 C 102.886719 204.390625 101.3125 208.546875 100 212.796875 C 99.882812 213.164062 99.734375 213.511719 99.550781 213.847656 C 99.367188 214.183594 99.152344 214.496094 98.910156 214.792969 C 98.664062 215.085938 98.394531 215.351562 98.09375 215.59375 C 97.796875 215.832031 97.480469 216.042969 97.140625 216.222656 C 96.800781 216.398438 96.449219 216.542969 96.082031 216.652344 C 95.714844 216.761719 95.339844 216.835938 94.960938 216.871094 C 94.578125 216.90625 94.199219 216.90625 93.816406 216.867188 C 93.4375 216.832031 93.0625 216.753906 92.695312 216.644531 C 92.332031 216.53125 91.984375 216.386719 91.648438 216.203125 C 91.3125 216.023438 91 215.8125 90.707031 215.570312 C 90.410156 215.328125 90.144531 215.058594 89.902344 214.765625 C 89.664062 214.472656 89.453125 214.15625 89.273438 213.820312 C 89.097656 213.484375 88.953125 213.136719 88.839844 212.773438 C 88.730469 212.40625 88.65625 212.039062 88.621094 211.660156 C 88.582031 211.28125 88.582031 210.902344 88.621094 210.523438 C 88.65625 210.148438 88.730469 209.777344 88.839844 209.410156 C 90.691406 203.441406 92.996094 197.652344 95.761719 192.046875 C 98.523438 186.441406 101.710938 181.082031 105.316406 175.976562 C 108.925781 170.867188 112.910156 166.074219 117.277344 161.589844 C 121.640625 157.109375 126.328125 152.996094 131.339844 149.25 C 131.644531 148.992188 131.96875 148.769531 132.320312 148.582031 C 132.667969 148.390625 133.035156 148.238281 133.414062 148.125 C 133.792969 148.007812 134.183594 147.933594 134.578125 147.898438 C 134.972656 147.863281 135.371094 147.867188 135.765625 147.910156 C 136.160156 147.957031 136.546875 148.039062 136.921875 148.164062 C 137.300781 148.289062 137.664062 148.449219 138.007812 148.644531 C 138.351562 148.84375 138.671875 149.074219 138.96875 149.335938 C 139.269531 149.597656 139.535156 149.890625 139.773438 150.207031 C 140.011719 150.523438 140.214844 150.863281 140.382812 151.222656 C 140.550781 151.582031 140.683594 151.953125 140.773438 152.339844 C 140.867188 152.726562 140.917969 153.117188 140.929688 153.511719 C 140.941406 153.910156 140.914062 154.300781 140.84375 154.691406 C 140.777344 155.082031 140.667969 155.464844 140.523438 155.832031 C 140.375 156.199219 140.191406 156.550781 139.976562 156.882812 C 139.757812 157.214844 139.507812 157.519531 139.226562 157.800781 C 138.945312 158.078125 138.636719 158.328125 138.304688 158.546875 C 131.875 163.328125 126.0625 168.761719 120.863281 174.851562 C 115.664062 180.941406 111.210938 187.535156 107.503906 194.628906 C 107.425781 194.785156 107.382812 194.949219 107.367188 195.121094 C 107.355469 195.296875 107.375 195.464844 107.425781 195.628906 C 107.480469 195.796875 107.5625 195.945312 107.675781 196.078125 C 107.785156 196.210938 107.917969 196.320312 108.074219 196.402344 L 108.207031 196.464844 C 108.519531 196.585938 108.835938 196.59375 109.15625 196.480469 C 109.472656 196.367188 109.714844 196.164062 109.878906 195.867188 C 117.304688 181.136719 128.640625 169.449219 141.546875 159.148438 L 161.910156 194.875 C 161.996094 195.03125 162.109375 195.167969 162.25 195.277344 C 162.390625 195.386719 162.546875 195.46875 162.71875 195.515625 C 162.890625 195.566406 163.0625 195.578125 163.242188 195.554688 C 163.417969 195.535156 163.585938 195.480469 163.742188 195.390625 C 163.898438 195.300781 164.03125 195.1875 164.140625 195.046875 C 164.25 194.902344 164.332031 194.746094 164.378906 194.574219 C 164.425781 194.402344 164.4375 194.226562 164.414062 194.046875 C 164.390625 193.871094 164.335938 193.703125 164.246094 193.546875 L 143.03125 156.320312 C 143.285156 155.464844 143.398438 154.585938 143.371094 153.691406 C 143.347656 152.796875 143.1875 151.929688 142.886719 151.085938 C 142.585938 150.242188 142.164062 149.464844 141.621094 148.753906 C 141.074219 148.042969 140.433594 147.433594 139.695312 146.925781 C 138.960938 146.414062 138.160156 146.03125 137.300781 145.773438 C 136.445312 145.515625 135.566406 145.394531 134.667969 145.414062 C 133.773438 145.429688 132.902344 145.585938 132.054688 145.878906 C 131.203125 146.167969 130.421875 146.585938 129.707031 147.121094 C 124.582031 150.949219 119.792969 155.152344 115.332031 159.734375 C 110.871094 164.3125 106.796875 169.210938 103.109375 174.429688 C 99.421875 179.648438 96.164062 185.121094 93.339844 190.851562 C 90.515625 196.582031 88.15625 202.496094 86.265625 208.597656 C 85.996094 209.46875 85.871094 210.359375 85.890625 211.273438 C 85.910156 212.183594 86.070312 213.070312 86.375 213.929688 C 86.679688 214.789062 87.113281 215.582031 87.671875 216.300781 C 88.230469 217.023438 88.890625 217.640625 89.648438 218.148438 C 90.40625 218.660156 91.226562 219.039062 92.105469 219.285156 C 92.984375 219.53125 93.882812 219.636719 94.796875 219.59375 C 95.710938 219.554688 96.59375 219.371094 97.449219 219.046875 C 98.300781 218.722656 99.085938 218.273438 99.792969 217.699219 L 108.519531 219.207031 L 112.425781 219.878906 L 150.628906 226.492188 L 154.875 227.226562 L 174.976562 230.683594 C 175.496094 230.792969 176.019531 230.828125 176.546875 230.785156 C 177.074219 230.742188 177.585938 230.628906 178.078125 230.4375 C 178.570312 230.246094 179.027344 229.992188 179.449219 229.667969 C 179.867188 229.34375 180.230469 228.96875 180.539062 228.542969 C 180.847656 228.113281 181.089844 227.648438 181.265625 227.152344 C 181.441406 226.652344 181.539062 226.140625 181.5625 225.613281 C 181.585938 225.085938 181.535156 224.5625 181.410156 224.050781 C 181.28125 223.539062 181.082031 223.054688 180.816406 222.601562 Z M 124.589844 219.25 L 114.089844 217.476562 L 109.78125 216.734375 C 109.695312 216.441406 109.625 216.144531 109.574219 215.847656 C 109.480469 215.308594 109.4375 214.765625 109.449219 214.214844 C 109.464844 213.667969 109.527344 213.128906 109.648438 212.59375 C 109.765625 212.058594 109.9375 211.542969 110.15625 211.039062 C 110.378906 210.539062 110.648438 210.066406 110.960938 209.617188 C 111.277344 209.167969 111.632812 208.753906 112.03125 208.375 C 112.425781 208 112.855469 207.660156 113.320312 207.367188 C 113.78125 207.074219 114.269531 206.828125 114.78125 206.628906 C 115.292969 206.429688 115.816406 206.285156 116.359375 206.191406 C 116.898438 206.09375 117.441406 206.054688 117.992188 206.066406 C 118.539062 206.078125 119.082031 206.144531 119.617188 206.261719 C 120.152344 206.382812 120.671875 206.550781 121.175781 206.769531 C 121.675781 206.992188 122.152344 207.257812 122.601562 207.574219 C 123.050781 207.886719 123.464844 208.242188 123.84375 208.636719 C 124.226562 209.035156 124.5625 209.460938 124.855469 209.925781 C 125.152344 210.386719 125.398438 210.871094 125.597656 211.382812 C 125.796875 211.894531 125.941406 212.417969 126.035156 212.957031 C 126.234375 214.058594 126.210938 215.160156 125.957031 216.25 C 125.707031 217.34375 125.25 218.34375 124.589844 219.25 Z M 166.101562 226.4375 L 155.390625 224.585938 L 151.835938 223.964844 C 151.675781 223.503906 151.550781 223.035156 151.460938 222.554688 C 151.402344 222.210938 151.363281 221.867188 151.347656 221.519531 C 151.332031 221.171875 151.335938 220.824219 151.363281 220.476562 C 151.390625 220.128906 151.4375 219.785156 151.507812 219.441406 C 151.578125 219.101562 151.671875 218.765625 151.785156 218.4375 C 151.894531 218.105469 152.027344 217.785156 152.179688 217.472656 C 152.335938 217.15625 152.507812 216.855469 152.695312 216.5625 C 152.886719 216.269531 153.097656 215.992188 153.320312 215.726562 C 153.546875 215.460938 153.789062 215.210938 154.046875 214.976562 C 154.304688 214.738281 154.574219 214.519531 154.859375 214.320312 C 155.144531 214.117188 155.441406 213.933594 155.75 213.769531 C 156.058594 213.605469 156.375 213.460938 156.699219 213.335938 C 157.027344 213.210938 157.359375 213.105469 157.699219 213.023438 C 158.039062 212.941406 158.378906 212.878906 158.726562 212.835938 C 159.074219 212.796875 159.421875 212.777344 159.773438 212.78125 C 160.121094 212.785156 160.46875 212.808594 160.816406 212.855469 C 161.160156 212.902344 161.503906 212.96875 161.839844 213.058594 C 162.179688 213.148438 162.507812 213.257812 162.832031 213.390625 C 163.15625 213.519531 163.46875 213.671875 163.777344 213.839844 C 164.082031 214.011719 164.375 214.199219 164.65625 214.40625 C 164.9375 214.613281 165.203125 214.835938 165.457031 215.074219 C 165.710938 215.316406 165.945312 215.570312 166.167969 215.839844 C 166.390625 216.109375 166.59375 216.390625 166.777344 216.6875 C 166.964844 216.980469 167.128906 217.289062 167.277344 217.605469 C 167.425781 217.917969 167.550781 218.242188 167.660156 218.574219 C 167.765625 218.90625 167.851562 219.246094 167.914062 219.585938 C 167.980469 219.929688 168.023438 220.273438 168.042969 220.621094 C 168.0625 220.96875 168.0625 221.316406 168.039062 221.664062 C 168.015625 222.011719 167.972656 222.359375 167.90625 222.699219 C 167.839844 223.042969 167.753906 223.378906 167.644531 223.710938 C 167.535156 224.042969 167.40625 224.363281 167.257812 224.679688 C 167.109375 224.996094 166.941406 225.300781 166.753906 225.59375 C 166.566406 225.886719 166.363281 226.167969 166.140625 226.4375 Z M 166.101562 226.4375 " fill-opacity="1" fill-rule="nonzero"/></g><path fill="#ff363d" d="M 166.101562 226.4375 L 155.390625 224.585938 L 151.835938 223.964844 C 151.675781 223.503906 151.550781 223.035156 151.460938 222.554688 C 151.402344 222.210938 151.363281 221.867188 151.347656 221.519531 C 151.332031 221.171875 151.335938 220.824219 151.363281 220.476562 C 151.390625 220.128906 151.4375 219.785156 151.507812 219.441406 C 151.578125 219.101562 151.671875 218.765625 151.785156 218.4375 C 151.894531 218.105469 152.027344 217.785156 152.179688 217.472656 C 152.335938 217.15625 152.507812 216.855469 152.695312 216.5625 C 152.886719 216.269531 153.097656 215.992188 153.320312 215.726562 C 153.546875 215.460938 153.789062 215.210938 154.046875 214.976562 C 154.304688 214.738281 154.574219 214.519531 154.859375 214.320312 C 155.144531 214.117188 155.441406 213.933594 155.75 213.769531 C 156.058594 213.605469 156.375 213.460938 156.699219 213.335938 C 157.027344 213.210938 157.359375 213.105469 157.699219 213.023438 C 158.039062 212.941406 158.378906 212.878906 158.726562 212.835938 C 159.074219 212.796875 159.421875 212.777344 159.773438 212.78125 C 160.121094 212.785156 160.46875 212.808594 160.816406 212.855469 C 161.160156 212.902344 161.503906 212.96875 161.839844 213.058594 C 162.179688 213.148438 162.507812 213.257812 162.832031 213.390625 C 163.15625 213.519531 163.46875 213.671875 163.777344 213.839844 C 164.082031 214.011719 164.375 214.199219 164.65625 214.40625 C 164.9375 214.613281 165.203125 214.835938 165.457031 215.074219 C 165.710938 215.316406 165.945312 215.570312 166.167969 215.839844 C 166.390625 216.109375 166.59375 216.390625 166.777344 216.6875 C 166.964844 216.980469 167.128906 217.289062 167.277344 217.605469 C 167.425781 217.917969 167.550781 218.242188 167.660156 218.574219 C 167.765625 218.90625 167.851562 219.246094 167.914062 219.585938 C 167.980469 219.929688 168.023438 220.273438 168.042969 220.621094 C 168.0625 220.96875 168.0625 221.316406 168.039062 221.664062 C 168.015625 222.011719 167.972656 222.359375 167.90625 222.699219 C 167.839844 223.042969 167.753906 223.378906 167.644531 223.710938 C 167.535156 224.042969 167.40625 224.363281 167.257812 224.679688 C 167.109375 224.996094 166.941406 225.300781 166.753906 225.59375 C 166.566406 225.886719 166.363281 226.167969 166.140625 226.4375 Z M 166.101562 226.4375 " fill-opacity="1" fill-rule="nonzero"/><path fill="#ff363d" d="M 124.589844 219.25 L 114.089844 217.476562 L 109.78125 216.734375 C 109.695312 216.441406 109.625 216.144531 109.574219 215.847656 C 109.480469 215.308594 109.4375 214.765625 109.449219 214.214844 C 109.464844 213.667969 109.527344 213.128906 109.648438 212.59375 C 109.765625 212.058594 109.9375 211.542969 110.15625 211.039062 C 110.378906 210.539062 110.648438 210.066406 110.960938 209.617188 C 111.277344 209.167969 111.632812 208.753906 112.03125 208.375 C 112.425781 208 112.855469 207.660156 113.320312 207.367188 C 113.78125 207.074219 114.269531 206.828125 114.78125 206.628906 C 115.292969 206.429688 115.816406 206.285156 116.359375 206.191406 C 116.898438 206.09375 117.441406 206.054688 117.992188 206.066406 C 118.539062 206.078125 119.082031 206.144531 119.617188 206.261719 C 120.152344 206.382812 120.671875 206.550781 121.175781 206.769531 C 121.675781 206.992188 122.152344 207.257812 122.601562 207.574219 C 123.050781 207.886719 123.464844 208.242188 123.84375 208.636719 C 124.226562 209.035156 124.5625 209.460938 124.855469 209.925781 C 125.152344 210.386719 125.398438 210.871094 125.597656 211.382812 C 125.796875 211.894531 125.941406 212.417969 126.035156 212.957031 C 126.234375 214.058594 126.210938 215.160156 125.957031 216.25 C 125.707031 217.34375 125.25 218.34375 124.589844 219.25 Z M 124.589844 219.25 " fill-opacity="1" fill-rule="nonzero"/><path fill="#000000" d="M 155.65625 190.339844 C 155.574219 189.882812 155.464844 189.433594 155.328125 188.992188 C 155.191406 188.550781 155.023438 188.121094 154.832031 187.699219 C 154.640625 187.28125 154.421875 186.875 154.179688 186.480469 C 153.9375 186.085938 153.667969 185.710938 153.378906 185.351562 C 153.085938 184.992188 152.773438 184.648438 152.441406 184.328125 C 152.105469 184.007812 151.753906 183.710938 151.382812 183.433594 C 151.011719 183.15625 150.625 182.90625 150.21875 182.679688 C 149.816406 182.449219 149.402344 182.25 148.972656 182.074219 C 148.542969 181.898438 148.105469 181.75 147.660156 181.628906 C 147.210938 181.507812 146.757812 181.417969 146.300781 181.351562 C 145.839844 181.289062 145.378906 181.253906 144.917969 181.25 C 144.453125 181.242188 143.992188 181.265625 143.53125 181.316406 C 143.070312 181.371094 142.613281 181.449219 142.164062 181.558594 C 141.714844 181.667969 141.273438 181.804688 140.839844 181.96875 C 140.40625 182.132812 139.984375 182.324219 139.578125 182.542969 C 139.167969 182.761719 138.773438 183.003906 138.394531 183.269531 C 138.019531 183.535156 137.65625 183.824219 137.316406 184.136719 C 136.972656 184.449219 136.652344 184.78125 136.351562 185.132812 C 136.054688 185.488281 135.777344 185.855469 135.523438 186.242188 C 135.269531 186.628906 135.042969 187.03125 134.839844 187.449219 C 134.636719 187.863281 134.460938 188.289062 134.3125 188.726562 C 134.164062 189.164062 134.042969 189.609375 133.949219 190.0625 C 133.855469 190.515625 133.792969 190.972656 133.757812 191.433594 C 133.722656 191.894531 133.714844 192.355469 133.738281 192.816406 C 133.761719 193.28125 133.8125 193.738281 133.894531 194.191406 C 133.972656 194.648438 134.082031 195.097656 134.21875 195.539062 C 134.355469 195.980469 134.523438 196.410156 134.714844 196.832031 C 134.90625 197.253906 135.121094 197.660156 135.363281 198.054688 C 135.609375 198.449219 135.875 198.824219 136.164062 199.183594 C 136.457031 199.542969 136.765625 199.886719 137.101562 200.207031 C 137.433594 200.527344 137.785156 200.824219 138.15625 201.101562 C 138.527344 201.378906 138.914062 201.632812 139.320312 201.859375 C 139.472656 201.9375 139.636719 201.984375 139.808594 202 C 139.980469 202.015625 140.152344 201.996094 140.316406 201.949219 C 140.484375 201.898438 140.632812 201.820312 140.769531 201.710938 C 140.90625 201.601562 141.015625 201.472656 141.101562 201.324219 C 141.1875 201.171875 141.242188 201.011719 141.265625 200.839844 C 141.289062 200.667969 141.28125 200.5 141.238281 200.332031 C 141.195312 200.164062 141.125 200.011719 141.023438 199.871094 C 140.921875 199.730469 140.796875 199.613281 140.652344 199.519531 C 140.367188 199.359375 140.09375 199.183594 139.828125 198.992188 C 139.566406 198.796875 139.3125 198.589844 139.074219 198.367188 C 138.835938 198.148438 138.609375 197.910156 138.398438 197.664062 C 138.1875 197.414062 137.988281 197.15625 137.808594 196.882812 C 137.628906 196.613281 137.464844 196.332031 137.316406 196.039062 C 137.167969 195.75 137.035156 195.453125 136.921875 195.144531 C 136.808594 194.839844 136.714844 194.527344 136.640625 194.210938 C 136.5625 193.894531 136.503906 193.574219 136.464844 193.25 C 136.429688 192.925781 136.40625 192.601562 136.40625 192.277344 C 136.40625 191.949219 136.425781 191.625 136.464844 191.300781 C 136.5 190.976562 136.558594 190.65625 136.632812 190.339844 C 136.707031 190.023438 136.800781 189.710938 136.914062 189.402344 C 137.027344 189.097656 137.15625 188.800781 137.300781 188.507812 C 137.449219 188.21875 137.613281 187.933594 137.792969 187.664062 C 137.972656 187.390625 138.167969 187.128906 138.378906 186.882812 C 138.589844 186.632812 138.816406 186.398438 139.054688 186.171875 C 139.292969 185.949219 139.542969 185.742188 139.804688 185.550781 C 140.070312 185.355469 140.34375 185.179688 140.625 185.015625 C 140.910156 184.855469 141.203125 184.710938 141.503906 184.582031 C 141.804688 184.457031 142.109375 184.347656 142.425781 184.253906 C 142.738281 184.164062 143.054688 184.089844 143.378906 184.039062 C 143.699219 183.984375 144.023438 183.949219 144.351562 183.933594 C 144.679688 183.914062 145.003906 183.917969 145.332031 183.941406 C 145.65625 183.960938 145.980469 184.003906 146.300781 184.0625 C 146.621094 184.121094 146.9375 184.203125 147.25 184.296875 C 147.5625 184.394531 147.867188 184.507812 148.167969 184.640625 C 148.464844 184.773438 148.753906 184.925781 149.035156 185.089844 C 149.316406 185.257812 149.585938 185.441406 149.847656 185.636719 C 150.105469 185.835938 150.355469 186.046875 150.589844 186.277344 C 150.824219 186.503906 151.042969 186.742188 151.25 186.996094 C 151.457031 187.246094 151.648438 187.511719 151.820312 187.785156 C 151.996094 188.0625 152.15625 188.347656 152.296875 188.640625 C 152.441406 188.933594 152.5625 189.234375 152.671875 189.542969 C 152.777344 189.851562 152.863281 190.164062 152.933594 190.484375 C 153.003906 190.800781 153.054688 191.125 153.085938 191.449219 C 153.117188 191.773438 153.132812 192.097656 153.125 192.421875 C 153.117188 192.75 153.09375 193.074219 153.050781 193.398438 C 153.003906 193.71875 152.941406 194.039062 152.859375 194.355469 C 152.777344 194.671875 152.675781 194.980469 152.558594 195.285156 C 152.441406 195.585938 152.304688 195.882812 152.152344 196.171875 C 152 196.460938 151.828125 196.738281 151.644531 197.003906 C 151.457031 197.273438 151.257812 197.53125 151.039062 197.773438 C 150.824219 198.019531 150.59375 198.25 150.351562 198.46875 C 150.109375 198.6875 149.851562 198.890625 149.585938 199.078125 C 149.320312 199.265625 149.042969 199.4375 148.753906 199.59375 C 148.46875 199.746094 148.171875 199.886719 147.867188 200.007812 C 147.566406 200.128906 147.253906 200.230469 146.941406 200.316406 C 146.625 200.398438 146.304688 200.464844 145.980469 200.511719 C 145.816406 200.550781 145.660156 200.617188 145.519531 200.710938 C 145.378906 200.804688 145.257812 200.921875 145.160156 201.0625 C 145.066406 201.203125 144.996094 201.355469 144.957031 201.523438 C 144.917969 201.6875 144.914062 201.855469 144.9375 202.023438 C 144.960938 202.191406 145.015625 202.351562 145.101562 202.5 C 145.1875 202.644531 145.296875 202.773438 145.429688 202.878906 C 145.5625 202.984375 145.710938 203.066406 145.871094 203.117188 C 146.035156 203.164062 146.203125 203.183594 146.371094 203.171875 C 147.101562 203.0625 147.816406 202.882812 148.511719 202.632812 C 149.207031 202.382812 149.871094 202.066406 150.5 201.683594 C 151.132812 201.296875 151.71875 200.855469 152.261719 200.355469 C 152.804688 199.855469 153.292969 199.304688 153.726562 198.707031 C 154.160156 198.109375 154.527344 197.476562 154.832031 196.804688 C 155.136719 196.132812 155.375 195.4375 155.539062 194.71875 C 155.703125 194 155.796875 193.269531 155.816406 192.535156 C 155.835938 191.796875 155.78125 191.066406 155.65625 190.339844 Z M 155.65625 190.339844 " fill-opacity="1" fill-rule="nonzero"/><path fill="#000000" d="M 129.171875 196.046875 C 129.152344 195.914062 129.113281 195.792969 129.046875 195.675781 C 128.960938 195.488281 126.660156 191.019531 122.730469 190.355469 C 118.804688 189.691406 115.101562 193.175781 114.957031 193.324219 C 114.742188 193.527344 114.605469 193.777344 114.554688 194.070312 C 114.5 194.363281 114.539062 194.644531 114.675781 194.910156 C 114.773438 195.089844 117.054688 199.554688 120.992188 200.230469 C 124.925781 200.902344 128.621094 197.410156 128.773438 197.25 C 129.125 196.921875 129.257812 196.519531 129.171875 196.046875 Z M 121.425781 197.578125 C 119.800781 197.304688 118.40625 195.808594 117.625 194.628906 C 118.777344 193.796875 120.644531 192.765625 122.277344 193.03125 C 123.914062 193.296875 125.300781 194.804688 126.074219 195.964844 C 124.980469 196.808594 123.070312 197.835938 121.425781 197.578125 Z M 121.425781 197.578125 " fill-opacity="1" fill-rule="nonzero"/><path fill="#ffbd59" d="M 126.082031 195.964844 C 124.945312 196.851562 123.070312 197.835938 121.433594 197.578125 C 119.800781 197.324219 118.414062 195.808594 117.632812 194.628906 C 118.789062 193.796875 120.652344 192.765625 122.289062 193.03125 C 123.921875 193.296875 125.308594 194.839844 126.082031 195.964844 Z M 126.082031 195.964844 " fill-opacity="1" fill-rule="nonzero"/><path fill="#000000" d="M 135.84375 181.652344 C 138.332031 178.816406 137.621094 174.410156 137.488281 173.5625 C 137.429688 173.269531 137.292969 173.027344 137.074219 172.828125 C 136.855469 172.628906 136.601562 172.511719 136.308594 172.480469 C 134.859375 172.371094 133.429688 172.5 132.023438 172.871094 C 131.839844 172.90625 131.671875 172.980469 131.519531 173.089844 C 131.367188 173.195312 131.242188 173.328125 131.144531 173.488281 C 131.050781 173.648438 130.988281 173.820312 130.960938 174.003906 C 130.9375 174.191406 130.949219 174.371094 131 174.550781 C 131.050781 174.730469 131.136719 174.894531 131.253906 175.039062 C 131.371094 175.183594 131.515625 175.300781 131.679688 175.382812 C 131.847656 175.46875 132.023438 175.519531 132.210938 175.53125 C 132.394531 175.546875 132.578125 175.519531 132.753906 175.457031 C 133.480469 175.261719 134.222656 175.15625 134.972656 175.136719 C 135.0625 176.539062 134.921875 178.683594 133.828125 179.863281 C 132.734375 181.042969 130.738281 181.40625 129.386719 181.457031 C 129.324219 180.65625 129.359375 179.859375 129.492188 179.066406 C 129.523438 178.886719 129.519531 178.714844 129.484375 178.539062 C 129.445312 178.363281 129.375 178.203125 129.269531 178.054688 C 129.167969 177.910156 129.042969 177.785156 128.890625 177.691406 C 128.742188 177.59375 128.578125 177.53125 128.398438 177.496094 C 128.222656 177.464844 128.046875 177.46875 127.871094 177.507812 C 127.695312 177.546875 127.535156 177.617188 127.386719 177.71875 C 127.242188 177.820312 127.117188 177.945312 127.019531 178.097656 C 126.925781 178.246094 126.859375 178.410156 126.828125 178.585938 C 126.589844 180.0625 126.589844 181.539062 126.828125 183.019531 C 126.886719 183.304688 127.027344 183.550781 127.246094 183.746094 C 127.46875 183.945312 127.722656 184.058594 128.019531 184.089844 C 128.242188 184.132812 133.207031 184.59375 135.84375 181.652344 Z M 135.84375 181.652344 " fill-opacity="1" fill-rule="nonzero"/><path fill="#000000" d="M 146.300781 207.523438 C 146.113281 207.445312 141.511719 205.566406 138.136719 207.621094 C 134.761719 209.679688 134.246094 214.648438 134.21875 214.863281 C 134.191406 215.15625 134.25 215.425781 134.402344 215.679688 C 134.554688 215.929688 134.765625 216.113281 135.035156 216.226562 C 135.242188 216.316406 139.84375 218.1875 143.210938 216.140625 C 146.578125 214.089844 147.101562 209.109375 147.128906 208.898438 C 147.152344 208.605469 147.089844 208.332031 146.9375 208.078125 C 146.785156 207.824219 146.574219 207.640625 146.300781 207.523438 Z M 141.761719 213.84375 C 140.394531 214.730469 138.375 214.4375 137.054688 214.082031 C 137.347656 212.84375 138.019531 210.8125 139.496094 209.917969 C 140.972656 209.023438 142.882812 209.324219 144.203125 209.679688 C 143.921875 210.917969 143.234375 212.957031 141.761719 213.84375 Z M 141.761719 213.84375 " fill-opacity="1" fill-rule="nonzero"/><path fill="#ffbd59" d="M 144.203125 209.679688 C 143.921875 210.917969 143.234375 212.949219 141.761719 213.84375 C 140.285156 214.738281 138.375 214.4375 137.054688 214.082031 C 137.347656 212.84375 138.019531 210.8125 139.496094 209.917969 C 140.972656 209.023438 142.882812 209.324219 144.203125 209.679688 Z M 144.203125 209.679688 " fill-opacity="1" fill-rule="nonzero"/><g clip-path="url(#c83acf58ad)"><path fill="#000000" d="M 288.355469 206.078125 C 286.347656 200.015625 283.878906 194.140625 280.945312 188.464844 C 278.011719 182.789062 274.652344 177.375 270.863281 172.222656 C 267.074219 167.074219 262.90625 162.253906 258.359375 157.757812 C 253.808594 153.261719 248.9375 149.148438 243.738281 145.421875 C 242.996094 144.886719 242.1875 144.488281 241.3125 144.214844 C 240.4375 143.941406 239.542969 143.816406 238.628906 143.828125 C 237.714844 143.84375 236.824219 144.003906 235.960938 144.304688 C 235.097656 144.605469 234.300781 145.035156 233.574219 145.589844 C 232.847656 146.148438 232.230469 146.804688 231.714844 147.558594 C 231.203125 148.316406 230.820312 149.132812 230.570312 150.011719 C 230.320312 150.890625 230.214844 151.785156 230.25 152.695312 C 230.289062 153.609375 230.472656 154.492188 230.796875 155.347656 L 226.585938 163.121094 L 224.703125 166.601562 L 206.277344 200.546875 L 204.222656 204.332031 L 194.515625 222.296875 C 194.246094 222.753906 194.046875 223.238281 193.921875 223.75 C 193.792969 224.261719 193.742188 224.78125 193.765625 225.308594 C 193.792969 225.835938 193.890625 226.347656 194.0625 226.84375 C 194.238281 227.34375 194.480469 227.804688 194.789062 228.234375 C 195.097656 228.664062 195.460938 229.039062 195.878906 229.363281 C 196.296875 229.683594 196.753906 229.941406 197.246094 230.132812 C 197.738281 230.320312 198.25 230.4375 198.773438 230.480469 C 199.300781 230.523438 199.824219 230.492188 200.34375 230.382812 L 227.054688 225.171875 C 227.230469 225.136719 227.394531 225.070312 227.542969 224.972656 C 227.691406 224.871094 227.816406 224.75 227.917969 224.601562 C 228.019531 224.453125 228.085938 224.292969 228.125 224.117188 C 228.160156 223.945312 228.164062 223.769531 228.128906 223.59375 C 228.09375 223.417969 228.027344 223.257812 227.929688 223.109375 C 227.828125 222.960938 227.703125 222.835938 227.554688 222.738281 C 227.40625 222.636719 227.242188 222.570312 227.066406 222.535156 C 226.890625 222.503906 226.714844 222.503906 226.539062 222.539062 L 199.800781 227.757812 C 199.253906 227.894531 198.722656 227.863281 198.195312 227.664062 C 197.671875 227.464844 197.253906 227.132812 196.9375 226.667969 C 196.613281 226.222656 196.4375 225.726562 196.414062 225.175781 C 196.390625 224.625 196.523438 224.113281 196.816406 223.644531 L 196.816406 223.59375 L 199.90625 217.875 C 200.191406 218.21875 200.496094 218.542969 200.816406 218.851562 C 201.140625 219.15625 201.480469 219.441406 201.839844 219.707031 C 202.199219 219.972656 202.570312 220.214844 202.960938 220.4375 C 203.347656 220.65625 203.746094 220.851562 204.15625 221.023438 C 204.570312 221.195312 204.988281 221.34375 205.417969 221.464844 C 205.847656 221.585938 206.285156 221.679688 206.722656 221.75 C 207.164062 221.816406 207.609375 221.859375 208.054688 221.875 C 208.5 221.886719 208.945312 221.875 209.390625 221.835938 C 209.832031 221.800781 210.273438 221.734375 210.710938 221.640625 C 211.148438 221.550781 211.578125 221.433594 212 221.289062 C 212.421875 221.144531 212.832031 220.976562 213.234375 220.78125 C 213.636719 220.589844 214.023438 220.371094 214.398438 220.128906 C 214.773438 219.890625 215.132812 219.628906 215.476562 219.34375 C 215.820312 219.058594 216.148438 218.757812 216.453125 218.433594 C 216.761719 218.109375 217.046875 217.769531 217.3125 217.410156 C 217.578125 217.054688 217.820312 216.679688 218.039062 216.292969 C 218.257812 215.90625 218.457031 215.507812 218.628906 215.097656 C 218.800781 214.6875 218.945312 214.265625 219.066406 213.839844 C 219.1875 213.410156 219.28125 212.976562 219.347656 212.535156 C 219.417969 212.097656 219.457031 211.652344 219.472656 211.210938 C 219.488281 210.765625 219.472656 210.320312 219.433594 209.878906 C 219.394531 209.433594 219.328125 208.996094 219.234375 208.558594 C 219.144531 208.125 219.023438 207.695312 218.878906 207.273438 C 218.734375 206.855469 218.566406 206.441406 218.371094 206.042969 C 218.175781 205.640625 217.957031 205.253906 217.714844 204.882812 C 217.472656 204.507812 217.210938 204.148438 216.925781 203.804688 C 216.640625 203.464844 216.335938 203.140625 216.011719 202.835938 C 215.6875 202.53125 215.34375 202.246094 214.984375 201.980469 C 214.628906 201.714844 214.253906 201.476562 213.863281 201.253906 C 213.476562 201.035156 213.078125 200.84375 212.664062 200.671875 C 212.253906 200.5 211.832031 200.355469 211.402344 200.234375 C 210.972656 200.117188 210.539062 200.023438 210.097656 199.953125 C 209.945312 199.953125 209.804688 199.953125 209.652344 199.902344 L 220.039062 180.828125 C 220.332031 181.152344 220.648438 181.460938 220.980469 181.746094 C 221.3125 182.035156 221.660156 182.300781 222.023438 182.546875 C 222.390625 182.792969 222.765625 183.015625 223.15625 183.214844 C 223.550781 183.417969 223.949219 183.59375 224.363281 183.746094 C 224.773438 183.902344 225.195312 184.027344 225.621094 184.132812 C 226.050781 184.234375 226.484375 184.3125 226.917969 184.363281 C 227.355469 184.414062 227.792969 184.441406 228.234375 184.4375 C 228.675781 184.4375 229.113281 184.410156 229.550781 184.359375 C 229.984375 184.304688 230.417969 184.226562 230.84375 184.121094 C 231.273438 184.019531 231.691406 183.890625 232.101562 183.734375 C 232.515625 183.582031 232.917969 183.402344 233.308594 183.199219 C 233.695312 183 234.074219 182.773438 234.4375 182.527344 C 234.800781 182.28125 235.148438 182.011719 235.480469 181.722656 C 235.8125 181.433594 236.125 181.128906 236.417969 180.800781 C 236.714844 180.476562 236.988281 180.132812 237.242188 179.777344 C 237.496094 179.417969 237.726562 179.046875 237.9375 178.660156 C 238.144531 178.273438 238.332031 177.875 238.492188 177.46875 C 238.65625 177.058594 238.792969 176.644531 238.902344 176.21875 C 239.015625 175.796875 239.101562 175.367188 239.164062 174.929688 C 239.222656 174.496094 239.257812 174.058594 239.265625 173.621094 C 239.273438 173.183594 239.257812 172.746094 239.210938 172.308594 C 239.167969 171.871094 239.097656 171.4375 239.003906 171.011719 C 238.90625 170.582031 238.785156 170.160156 238.640625 169.746094 C 238.492188 169.332031 238.324219 168.929688 238.128906 168.535156 C 237.933594 168.144531 237.714844 167.761719 237.476562 167.394531 C 237.234375 167.027344 236.972656 166.675781 236.691406 166.339844 C 236.410156 166 236.109375 165.683594 235.789062 165.382812 C 235.46875 165.082031 235.128906 164.800781 234.777344 164.539062 C 234.421875 164.28125 234.054688 164.042969 233.671875 163.824219 C 233.289062 163.609375 232.894531 163.414062 232.488281 163.246094 C 232.082031 163.074219 231.667969 162.929688 231.246094 162.808594 C 230.824219 162.691406 230.394531 162.59375 229.960938 162.527344 L 232.414062 158.007812 C 236.125 161.257812 240.40625 164.015625 243.882812 167.480469 C 244.007812 167.597656 244.148438 167.6875 244.308594 167.746094 C 244.464844 167.808594 244.628906 167.839844 244.800781 167.839844 C 244.972656 167.839844 245.136719 167.808594 245.296875 167.746094 C 245.453125 167.6875 245.597656 167.597656 245.71875 167.480469 C 245.71875 167.480469 245.773438 167.4375 245.800781 167.417969 C 245.921875 167.285156 246.011719 167.136719 246.070312 166.96875 C 246.132812 166.800781 246.15625 166.625 246.148438 166.449219 C 246.140625 166.269531 246.097656 166.097656 246.023438 165.9375 C 245.945312 165.777344 245.84375 165.632812 245.710938 165.511719 C 242.4375 162.5 238.992188 159.703125 235.371094 157.121094 C 235.058594 156.898438 234.773438 156.644531 234.511719 156.367188 C 234.25 156.089844 234.015625 155.785156 233.8125 155.460938 C 233.613281 155.136719 233.441406 154.796875 233.308594 154.4375 C 233.171875 154.078125 233.074219 153.710938 233.011719 153.335938 C 232.949219 152.957031 232.925781 152.578125 232.9375 152.195312 C 232.949219 151.8125 233 151.4375 233.085938 151.066406 C 233.171875 150.691406 233.292969 150.332031 233.453125 149.984375 C 233.609375 149.636719 233.800781 149.304688 234.023438 148.996094 C 234.246094 148.683594 234.5 148.398438 234.777344 148.136719 C 235.058594 147.875 235.359375 147.644531 235.683594 147.441406 C 236.011719 147.238281 236.351562 147.070312 236.710938 146.933594 C 237.070312 146.800781 237.4375 146.699219 237.816406 146.636719 C 238.195312 146.574219 238.574219 146.550781 238.957031 146.5625 C 239.339844 146.574219 239.71875 146.625 240.089844 146.710938 C 240.464844 146.796875 240.828125 146.917969 241.175781 147.074219 C 241.523438 147.234375 241.855469 147.421875 242.167969 147.644531 C 247.246094 151.292969 252.007812 155.3125 256.449219 159.703125 C 260.894531 164.097656 264.96875 168.8125 268.671875 173.84375 C 272.371094 178.875 275.660156 184.164062 278.527344 189.710938 C 281.394531 195.257812 283.8125 200.996094 285.777344 206.921875 C 285.898438 207.285156 285.984375 207.652344 286.03125 208.03125 C 286.078125 208.410156 286.089844 208.792969 286.0625 209.171875 C 286.035156 209.554688 285.96875 209.929688 285.867188 210.296875 C 285.765625 210.664062 285.632812 211.019531 285.460938 211.359375 C 285.289062 211.703125 285.085938 212.023438 284.851562 212.324219 C 284.617188 212.628906 284.351562 212.902344 284.0625 213.152344 C 283.773438 213.402344 283.464844 213.621094 283.132812 213.8125 C 282.796875 214 282.449219 214.15625 282.085938 214.273438 C 281.722656 214.394531 281.351562 214.480469 280.972656 214.527344 C 280.59375 214.574219 280.210938 214.585938 279.832031 214.558594 C 279.449219 214.53125 279.074219 214.464844 278.703125 214.363281 C 278.335938 214.261719 277.980469 214.128906 277.636719 213.957031 C 277.296875 213.785156 276.972656 213.582031 276.671875 213.347656 C 276.367188 213.113281 276.09375 212.851562 275.84375 212.5625 C 275.589844 212.273438 275.371094 211.964844 275.183594 211.632812 C 274.992188 211.300781 274.839844 210.953125 274.71875 210.589844 C 272.222656 202.984375 268.910156 195.75 264.777344 188.890625 C 260.648438 182.03125 255.800781 175.714844 250.242188 169.945312 C 250.117188 169.820312 249.96875 169.722656 249.804688 169.65625 C 249.640625 169.589844 249.46875 169.554688 249.292969 169.554688 C 249.113281 169.554688 248.941406 169.589844 248.777344 169.65625 C 248.613281 169.722656 248.46875 169.820312 248.339844 169.945312 C 248.21875 170.070312 248.125 170.210938 248.058594 170.371094 C 247.992188 170.535156 247.960938 170.703125 247.960938 170.875 C 247.960938 171.050781 247.992188 171.214844 248.058594 171.378906 C 248.125 171.539062 248.21875 171.679688 248.339844 171.804688 C 259.980469 183.515625 267.496094 197.953125 273.164062 213.460938 L 232.742188 221.339844 C 232.566406 221.375 232.402344 221.441406 232.25 221.542969 C 232.101562 221.640625 231.976562 221.765625 231.875 221.914062 C 231.773438 222.0625 231.707031 222.222656 231.667969 222.398438 C 231.632812 222.574219 231.632812 222.75 231.667969 222.929688 C 231.699219 223.105469 231.765625 223.265625 231.867188 223.417969 C 231.964844 223.566406 232.089844 223.691406 232.238281 223.792969 C 232.386719 223.894531 232.550781 223.960938 232.726562 223.996094 C 232.902344 224.035156 233.078125 224.035156 233.257812 224 L 275.402344 215.777344 C 276.136719 216.285156 276.933594 216.671875 277.789062 216.933594 C 278.644531 217.195312 279.523438 217.316406 280.417969 217.300781 C 281.3125 217.289062 282.183594 217.136719 283.03125 216.847656 C 283.878906 216.558594 284.664062 216.148438 285.378906 215.613281 C 286.097656 215.078125 286.714844 214.445312 287.234375 213.71875 C 287.75 212.988281 288.144531 212.199219 288.414062 211.347656 C 288.683594 210.492188 288.8125 209.621094 288.804688 208.726562 C 288.796875 207.832031 288.652344 206.960938 288.371094 206.113281 Z M 209.75 202.613281 C 210.09375 202.667969 210.433594 202.742188 210.769531 202.835938 C 211.105469 202.933594 211.433594 203.046875 211.757812 203.183594 C 212.078125 203.320312 212.390625 203.476562 212.691406 203.652344 C 212.992188 203.828125 213.28125 204.019531 213.558594 204.234375 C 213.835938 204.445312 214.097656 204.671875 214.347656 204.917969 C 214.597656 205.160156 214.828125 205.421875 215.042969 205.695312 C 215.261719 205.96875 215.460938 206.253906 215.640625 206.550781 C 215.820312 206.847656 215.980469 207.15625 216.121094 207.476562 C 216.265625 207.792969 216.382812 208.121094 216.484375 208.453125 C 216.585938 208.789062 216.664062 209.125 216.722656 209.46875 C 216.78125 209.8125 216.816406 210.160156 216.832031 210.507812 C 216.847656 210.855469 216.839844 211.203125 216.8125 211.546875 C 216.78125 211.894531 216.730469 212.238281 216.660156 212.582031 C 216.585938 212.921875 216.496094 213.257812 216.378906 213.585938 C 216.265625 213.914062 216.132812 214.234375 215.976562 214.546875 C 215.824219 214.859375 215.648438 215.160156 215.457031 215.453125 C 215.265625 215.742188 215.054688 216.019531 214.828125 216.285156 C 214.601562 216.550781 214.359375 216.796875 214.097656 217.03125 C 213.839844 217.265625 213.570312 217.484375 213.28125 217.683594 C 212.996094 217.882812 212.699219 218.066406 212.390625 218.226562 C 212.082031 218.390625 211.765625 218.535156 211.4375 218.65625 C 211.113281 218.78125 210.78125 218.882812 210.441406 218.964844 C 210.101562 219.046875 209.757812 219.105469 209.410156 219.144531 C 209.0625 219.183594 208.714844 219.203125 208.367188 219.195312 C 208.019531 219.191406 207.671875 219.164062 207.324219 219.117188 C 206.980469 219.070312 206.636719 219 206.300781 218.910156 C 205.964844 218.816406 205.632812 218.707031 205.308594 218.574219 C 204.988281 218.441406 204.675781 218.289062 204.371094 218.121094 C 204.066406 217.949219 203.773438 217.757812 203.492188 217.550781 C 203.214844 217.34375 202.949219 217.117188 202.695312 216.878906 C 202.445312 216.636719 202.207031 216.382812 201.988281 216.109375 C 201.769531 215.839844 201.566406 215.558594 201.382812 215.261719 L 206.550781 205.714844 L 208.285156 202.515625 C 208.773438 202.507812 209.265625 202.539062 209.75 202.613281 Z M 236.472656 174.667969 C 236.347656 175.488281 236.105469 176.269531 235.746094 177.015625 C 235.386719 177.761719 234.925781 178.441406 234.363281 179.050781 C 233.800781 179.660156 233.160156 180.175781 232.445312 180.59375 C 231.730469 181.015625 230.96875 181.320312 230.164062 181.515625 C 229.355469 181.707031 228.535156 181.78125 227.707031 181.730469 C 226.878906 181.679688 226.078125 181.511719 225.296875 181.222656 C 224.519531 180.933594 223.800781 180.539062 223.140625 180.039062 C 222.480469 179.535156 221.90625 178.949219 221.421875 178.277344 L 226.496094 168.90625 L 228.574219 165.097656 C 228.871094 165.109375 229.167969 165.136719 229.464844 165.183594 C 230.003906 165.265625 230.535156 165.402344 231.050781 165.585938 C 231.566406 165.773438 232.058594 166.007812 232.527344 166.289062 C 232.996094 166.574219 233.433594 166.898438 233.839844 167.265625 C 234.242188 167.636719 234.609375 168.039062 234.933594 168.480469 C 235.257812 168.921875 235.539062 169.386719 235.773438 169.882812 C 236.003906 170.378906 236.1875 170.890625 236.320312 171.421875 C 236.453125 171.953125 236.53125 172.492188 236.554688 173.039062 C 236.582031 173.585938 236.554688 174.128906 236.472656 174.667969 Z M 236.472656 174.667969 " fill-opacity="1" fill-rule="nonzero"/></g><path fill="#ff363d" d="M 236.472656 174.667969 C 236.347656 175.488281 236.105469 176.269531 235.746094 177.015625 C 235.386719 177.761719 234.925781 178.441406 234.363281 179.050781 C 233.800781 179.660156 233.160156 180.175781 232.445312 180.59375 C 231.730469 181.015625 230.96875 181.320312 230.164062 181.515625 C 229.355469 181.707031 228.535156 181.78125 227.707031 181.730469 C 226.878906 181.679688 226.078125 181.511719 225.296875 181.222656 C 224.519531 180.933594 223.800781 180.539062 223.140625 180.039062 C 222.480469 179.535156 221.90625 178.949219 221.421875 178.277344 L 226.496094 168.90625 L 228.574219 165.097656 C 228.871094 165.109375 229.167969 165.136719 229.464844 165.183594 C 230.003906 165.265625 230.535156 165.402344 231.050781 165.585938 C 231.566406 165.773438 232.058594 166.007812 232.527344 166.289062 C 232.996094 166.574219 233.433594 166.898438 233.839844 167.265625 C 234.242188 167.636719 234.609375 168.039062 234.933594 168.480469 C 235.257812 168.921875 235.539062 169.386719 235.773438 169.882812 C 236.003906 170.378906 236.1875 170.890625 236.320312 171.421875 C 236.453125 171.953125 236.53125 172.492188 236.554688 173.039062 C 236.582031 173.585938 236.554688 174.128906 236.472656 174.667969 Z M 236.472656 174.667969 " fill-opacity="1" fill-rule="nonzero"/><path fill="#ff363d" d="M 216.75 212.113281 C 216.621094 212.957031 216.371094 213.761719 215.996094 214.53125 C 215.617188 215.296875 215.136719 215.988281 214.546875 216.605469 C 213.960938 217.226562 213.289062 217.742188 212.542969 218.15625 C 211.796875 218.570312 211.003906 218.863281 210.164062 219.035156 C 209.328125 219.207031 208.484375 219.25 207.632812 219.160156 C 206.78125 219.074219 205.964844 218.863281 205.179688 218.523438 C 204.394531 218.1875 203.675781 217.742188 203.027344 217.183594 C 202.382812 216.628906 201.832031 215.988281 201.382812 215.261719 L 206.550781 205.714844 L 208.285156 202.515625 C 208.773438 202.507812 209.257812 202.542969 209.742188 202.613281 C 210.285156 202.695312 210.8125 202.832031 211.328125 203.019531 C 211.84375 203.203125 212.335938 203.441406 212.808594 203.722656 C 213.277344 204.007812 213.714844 204.332031 214.121094 204.703125 C 214.523438 205.070312 214.890625 205.476562 215.214844 205.917969 C 215.539062 206.359375 215.820312 206.828125 216.054688 207.324219 C 216.285156 207.820312 216.46875 208.332031 216.601562 208.863281 C 216.730469 209.394531 216.808594 209.933594 216.835938 210.480469 C 216.859375 211.03125 216.832031 211.574219 216.75 212.113281 Z M 216.75 212.113281 " fill-opacity="1" fill-rule="nonzero"/><path fill="#000000" d="M 231.375 202.914062 C 231.199219 202.882812 231.023438 202.886719 230.847656 202.921875 C 230.671875 202.960938 230.511719 203.03125 230.367188 203.132812 C 230.21875 203.234375 230.097656 203.359375 230 203.507812 C 229.90625 203.660156 229.839844 203.820312 229.808594 203.996094 C 229.730469 204.421875 229.675781 204.847656 229.648438 205.277344 C 229.621094 205.710938 229.617188 206.140625 229.640625 206.570312 C 229.660156 207.003906 229.707031 207.429688 229.78125 207.855469 C 229.851562 208.28125 229.949219 208.703125 230.070312 209.117188 C 230.195312 209.53125 230.339844 209.9375 230.507812 210.332031 C 230.679688 210.730469 230.871094 211.117188 231.085938 211.492188 C 231.300781 211.867188 231.539062 212.226562 231.796875 212.574219 C 232.050781 212.921875 232.328125 213.25 232.625 213.566406 C 232.921875 213.878906 233.234375 214.175781 233.566406 214.453125 C 233.898438 214.730469 234.246094 214.988281 234.605469 215.226562 C 234.96875 215.464844 235.339844 215.679688 235.726562 215.871094 C 236.113281 216.066406 236.511719 216.234375 236.917969 216.382812 C 237.324219 216.53125 237.738281 216.652344 238.160156 216.75 C 238.582031 216.851562 239.007812 216.921875 239.4375 216.972656 C 239.867188 217.019531 240.296875 217.042969 240.730469 217.042969 C 241.164062 217.039062 241.59375 217.011719 242.023438 216.960938 C 242.453125 216.910156 242.878906 216.832031 243.300781 216.730469 C 243.71875 216.628906 244.132812 216.5 244.539062 216.351562 C 244.945312 216.199219 245.339844 216.027344 245.722656 215.832031 C 246.109375 215.632812 246.480469 215.414062 246.839844 215.175781 C 247.199219 214.933594 247.542969 214.675781 247.875 214.394531 C 248.203125 214.113281 248.515625 213.8125 248.808594 213.496094 C 249.101562 213.179688 249.375 212.847656 249.628906 212.5 C 249.882812 212.148438 250.117188 211.785156 250.328125 211.410156 C 250.539062 211.035156 250.730469 210.644531 250.894531 210.246094 C 251.0625 209.847656 251.203125 209.441406 251.324219 209.027344 C 251.441406 208.613281 251.535156 208.191406 251.605469 207.765625 C 251.671875 207.339844 251.714844 206.910156 251.734375 206.480469 C 251.753906 206.046875 251.746094 205.617188 251.714844 205.1875 C 251.683594 204.753906 251.625 204.328125 251.542969 203.90625 C 251.460938 203.480469 251.351562 203.0625 251.222656 202.652344 C 251.089844 202.242188 250.933594 201.839844 250.753906 201.445312 C 250.578125 201.054688 250.375 200.671875 250.152344 200.300781 C 249.929688 199.933594 249.683594 199.578125 249.417969 199.238281 C 249.152344 198.894531 248.867188 198.570312 248.5625 198.265625 C 248.261719 197.957031 247.941406 197.667969 247.601562 197.398438 C 247.265625 197.128906 246.914062 196.878906 246.546875 196.648438 C 246.179688 196.421875 245.800781 196.214844 245.410156 196.03125 C 245.015625 195.847656 244.617188 195.683594 244.207031 195.546875 C 243.796875 195.410156 243.378906 195.296875 242.957031 195.207031 C 242.53125 195.121094 242.105469 195.054688 241.675781 195.019531 C 241.242188 194.980469 240.8125 194.964844 240.378906 194.976562 C 239.945312 194.988281 239.515625 195.027344 239.089844 195.089844 C 238.660156 195.152344 238.238281 195.238281 237.820312 195.351562 C 237.402344 195.460938 236.992188 195.597656 236.589844 195.757812 C 236.1875 195.917969 235.796875 196.101562 235.414062 196.304688 C 235.035156 196.511719 234.667969 196.738281 234.316406 196.988281 C 233.960938 197.234375 233.625 197.503906 233.300781 197.792969 C 233.074219 198.046875 232.960938 198.34375 232.960938 198.6875 C 232.960938 199.027344 233.074219 199.324219 233.300781 199.578125 C 233.527344 199.835938 233.808594 199.984375 234.148438 200.023438 C 234.488281 200.066406 234.796875 199.988281 235.078125 199.796875 C 235.320312 199.578125 235.578125 199.378906 235.84375 199.191406 C 236.113281 199.003906 236.390625 198.835938 236.679688 198.679688 C 236.964844 198.527344 237.261719 198.390625 237.566406 198.269531 C 237.867188 198.152344 238.179688 198.050781 238.492188 197.96875 C 238.808594 197.882812 239.128906 197.820312 239.453125 197.773438 C 239.773438 197.730469 240.101562 197.703125 240.425781 197.695312 C 240.753906 197.6875 241.078125 197.699219 241.402344 197.726562 C 241.726562 197.757812 242.050781 197.808594 242.367188 197.875 C 242.6875 197.945312 243.003906 198.03125 243.3125 198.136719 C 243.621094 198.238281 243.921875 198.363281 244.21875 198.503906 C 244.511719 198.640625 244.796875 198.800781 245.074219 198.972656 C 245.347656 199.144531 245.613281 199.335938 245.867188 199.539062 C 246.121094 199.742188 246.363281 199.960938 246.59375 200.195312 C 246.820312 200.425781 247.035156 200.671875 247.234375 200.929688 C 247.433594 201.1875 247.617188 201.457031 247.785156 201.734375 C 247.953125 202.015625 248.105469 202.304688 248.238281 202.601562 C 248.371094 202.898438 248.488281 203.199219 248.585938 203.511719 C 248.683594 203.820312 248.765625 204.136719 248.828125 204.457031 C 248.886719 204.777344 248.929688 205.097656 248.953125 205.421875 C 248.976562 205.746094 248.980469 206.074219 248.96875 206.398438 C 248.953125 206.722656 248.917969 207.046875 248.867188 207.367188 C 248.8125 207.6875 248.742188 208.007812 248.652344 208.320312 C 248.5625 208.632812 248.453125 208.9375 248.328125 209.238281 C 248.203125 209.539062 248.058594 209.832031 247.898438 210.117188 C 247.738281 210.398438 247.5625 210.671875 247.371094 210.933594 C 247.175781 211.199219 246.96875 211.449219 246.746094 211.6875 C 246.527344 211.925781 246.289062 212.152344 246.042969 212.363281 C 245.792969 212.574219 245.535156 212.769531 245.261719 212.953125 C 244.992188 213.132812 244.710938 213.296875 244.417969 213.445312 C 244.128906 213.59375 243.832031 213.722656 243.523438 213.835938 C 243.21875 213.949219 242.90625 214.042969 242.589844 214.121094 C 242.273438 214.199219 241.953125 214.253906 241.628906 214.292969 C 241.304688 214.332031 240.980469 214.351562 240.652344 214.355469 C 240.324219 214.355469 240 214.335938 239.675781 214.300781 C 239.351562 214.265625 239.03125 214.207031 238.714844 214.132812 C 238.394531 214.058594 238.082031 213.964844 237.777344 213.855469 C 237.46875 213.742188 237.171875 213.617188 236.878906 213.46875 C 236.585938 213.324219 236.304688 213.160156 236.03125 212.980469 C 235.761719 212.804688 235.5 212.609375 235.25 212.398438 C 235 212.1875 234.761719 211.964844 234.539062 211.730469 C 234.316406 211.492188 234.105469 211.242188 233.914062 210.980469 C 233.71875 210.71875 233.539062 210.445312 233.378906 210.164062 C 233.214844 209.882812 233.070312 209.589844 232.941406 209.289062 C 232.816406 208.992188 232.703125 208.683594 232.613281 208.371094 C 232.519531 208.058594 232.445312 207.742188 232.390625 207.421875 C 232.335938 207.101562 232.300781 206.777344 232.285156 206.453125 C 232.269531 206.128906 232.269531 205.804688 232.292969 205.476562 C 232.3125 205.152344 232.351562 204.832031 232.414062 204.511719 C 232.449219 204.335938 232.453125 204.160156 232.421875 203.984375 C 232.390625 203.808594 232.324219 203.644531 232.226562 203.496094 C 232.128906 203.347656 232.007812 203.222656 231.859375 203.121094 C 231.710938 203.019531 231.546875 202.953125 231.375 202.914062 Z M 231.375 202.914062 " fill-opacity="1" fill-rule="nonzero"/><path fill="#000000" d="M 249.105469 177.398438 C 248.980469 177.132812 248.785156 176.925781 248.523438 176.789062 C 248.261719 176.648438 247.984375 176.601562 247.691406 176.644531 C 247.480469 176.644531 242.511719 177.40625 240.648438 180.925781 C 238.78125 184.445312 240.914062 189.042969 241.011719 189.230469 C 241.210938 189.667969 241.550781 189.925781 242.023438 190 C 242.160156 190.015625 242.292969 190.015625 242.425781 190 C 242.628906 190 247.59375 189.230469 249.453125 185.710938 C 251.308594 182.191406 249.195312 177.59375 249.105469 177.398438 Z M 247.070312 184.445312 C 246.308594 185.90625 244.40625 186.722656 243.074219 187.101562 C 242.648438 185.757812 242.257812 183.65625 243.074219 182.183594 C 243.890625 180.714844 245.738281 179.925781 247.078125 179.527344 C 247.472656 180.882812 247.851562 182.972656 247.070312 184.445312 Z M 247.070312 184.445312 " fill-opacity="1" fill-rule="nonzero"/><path fill="#ffbd59" d="M 247.070312 184.445312 C 246.308594 185.90625 244.40625 186.722656 243.074219 187.101562 C 242.648438 185.757812 242.257812 183.65625 243.074219 182.183594 C 243.890625 180.714844 245.738281 179.925781 247.078125 179.527344 C 247.472656 180.882812 247.851562 182.972656 247.070312 184.445312 Z M 247.070312 184.445312 " fill-opacity="1" fill-rule="nonzero"/><path fill="#000000" d="M 258.058594 195.683594 C 258.21875 195.78125 258.386719 195.847656 258.574219 195.875 C 258.757812 195.902344 258.9375 195.894531 259.117188 195.847656 C 259.300781 195.800781 259.460938 195.722656 259.609375 195.605469 C 259.757812 195.492188 259.875 195.355469 259.964844 195.191406 C 260.054688 195.027344 260.109375 194.855469 260.125 194.671875 C 260.144531 194.484375 260.121094 194.304688 260.066406 194.128906 C 260.007812 193.949219 259.917969 193.792969 259.792969 193.652344 C 259.671875 193.515625 259.527344 193.40625 259.355469 193.324219 C 258.027344 192.625 256.617188 192.15625 255.128906 191.925781 C 254.835938 191.886719 254.558594 191.941406 254.300781 192.085938 C 254.042969 192.230469 253.855469 192.4375 253.734375 192.703125 C 253.644531 192.898438 251.621094 197.445312 253.582031 200.886719 C 255.484375 204.136719 259.890625 204.875 260.742188 205.015625 C 261.039062 205.050781 261.3125 205 261.574219 204.855469 C 261.832031 204.710938 262.023438 204.503906 262.148438 204.234375 C 262.714844 202.898438 263.046875 201.507812 263.140625 200.0625 C 263.183594 199.867188 263.179688 199.675781 263.136719 199.484375 C 263.089844 199.292969 263.007812 199.121094 262.886719 198.964844 C 262.765625 198.808594 262.621094 198.683594 262.445312 198.59375 C 262.269531 198.503906 262.085938 198.453125 261.886719 198.441406 C 261.691406 198.433594 261.5 198.464844 261.316406 198.539062 C 261.132812 198.609375 260.976562 198.71875 260.839844 198.863281 C 260.703125 199.003906 260.605469 199.167969 260.539062 199.355469 C 260.476562 199.542969 260.457031 199.734375 260.476562 199.929688 C 260.425781 200.675781 260.292969 201.410156 260.078125 202.125 C 258.71875 201.761719 256.761719 200.972656 255.945312 199.546875 C 255.128906 198.121094 255.464844 196.125 255.847656 194.8125 C 256.617188 195.019531 257.355469 195.308594 258.058594 195.683594 Z M 258.058594 195.683594 " fill-opacity="1" fill-rule="nonzero"/><path fill="#000000" d="M 228.183594 194.753906 C 227.296875 190.933594 222.746094 188.839844 222.558594 188.742188 C 222.289062 188.625 222.007812 188.597656 221.71875 188.660156 C 221.429688 188.722656 221.1875 188.859375 220.988281 189.078125 C 220.855469 189.25 217.59375 192.996094 218.484375 196.835938 C 219.371094 200.671875 223.917969 202.753906 224.105469 202.84375 C 224.375 202.96875 224.65625 202.996094 224.949219 202.933594 C 225.238281 202.871094 225.480469 202.730469 225.679688 202.507812 C 225.8125 202.320312 229.070312 198.589844 228.183594 194.753906 Z M 224.285156 199.875 C 223.199219 199.210938 221.496094 197.90625 221.101562 196.242188 C 220.710938 194.574219 221.628906 192.847656 222.382812 191.710938 C 223.464844 192.386719 225.171875 193.671875 225.5625 195.347656 C 225.953125 197.019531 225.039062 198.777344 224.285156 199.875 Z M 224.285156 199.875 " fill-opacity="1" fill-rule="nonzero"/><path fill="#ffbd59" d="M 224.285156 199.875 C 223.199219 199.210938 221.496094 197.90625 221.101562 196.242188 C 220.710938 194.574219 221.628906 192.847656 222.382812 191.710938 C 223.464844 192.386719 225.171875 193.671875 225.5625 195.347656 C 225.953125 197.019531 225.039062 198.777344 224.285156 199.875 Z M 224.285156 199.875 " fill-opacity="1" fill-rule="nonzero"/><path fill="#f9a31e" d="M 138.304688 158.546875 C 131.875 163.328125 126.0625 168.761719 120.863281 174.851562 C 115.664062 180.941406 111.210938 187.535156 107.503906 194.628906 C 107.425781 194.785156 107.382812 194.949219 107.367188 195.121094 C 107.355469 195.296875 107.375 195.464844 107.425781 195.628906 C 107.480469 195.796875 107.5625 195.945312 107.675781 196.078125 C 107.785156 196.210938 107.917969 196.320312 108.074219 196.402344 L 108.207031 196.464844 C 107.648438 197.578125 107.125 198.679688 106.644531 199.707031 L 106.492188 199.664062 C 106.332031 199.589844 106.160156 199.546875 105.980469 199.542969 C 105.800781 199.535156 105.628906 199.5625 105.460938 199.628906 C 105.296875 199.691406 105.148438 199.785156 105.019531 199.90625 C 104.886719 200.03125 104.789062 200.171875 104.714844 200.335938 C 102.886719 204.390625 101.3125 208.546875 100 212.796875 C 99.882812 213.164062 99.734375 213.511719 99.550781 213.847656 C 99.367188 214.183594 99.152344 214.496094 98.910156 214.792969 C 98.664062 215.085938 98.394531 215.351562 98.09375 215.59375 C 97.796875 215.832031 97.480469 216.042969 97.140625 216.222656 C 96.800781 216.398438 96.449219 216.542969 96.082031 216.652344 C 95.714844 216.761719 95.339844 216.835938 94.960938 216.871094 C 94.578125 216.90625 94.199219 216.90625 93.816406 216.867188 C 93.4375 216.832031 93.0625 216.753906 92.695312 216.644531 C 92.332031 216.53125 91.984375 216.386719 91.648438 216.203125 C 91.3125 216.023438 91 215.8125 90.707031 215.570312 C 90.410156 215.328125 90.144531 215.058594 89.902344 214.765625 C 89.664062 214.472656 89.453125 214.15625 89.273438 213.820312 C 89.097656 213.484375 88.953125 213.136719 88.839844 212.773438 C 88.730469 212.40625 88.65625 212.039062 88.621094 211.660156 C 88.582031 211.28125 88.582031 210.902344 88.621094 210.523438 C 88.65625 210.148438 88.730469 209.777344 88.839844 209.410156 C 90.691406 203.441406 92.996094 197.652344 95.761719 192.046875 C 98.523438 186.441406 101.710938 181.082031 105.316406 175.976562 C 108.925781 170.867188 112.910156 166.074219 117.277344 161.589844 C 121.640625 157.109375 126.328125 152.996094 131.339844 149.25 C 131.644531 148.992188 131.96875 148.769531 132.320312 148.582031 C 132.667969 148.390625 133.035156 148.238281 133.414062 148.125 C 133.792969 148.007812 134.183594 147.933594 134.578125 147.898438 C 134.972656 147.863281 135.371094 147.867188 135.765625 147.910156 C 136.160156 147.957031 136.546875 148.039062 136.921875 148.164062 C 137.300781 148.289062 137.664062 148.449219 138.007812 148.644531 C 138.351562 148.84375 138.671875 149.074219 138.96875 149.335938 C 139.269531 149.597656 139.535156 149.890625 139.773438 150.207031 C 140.011719 150.523438 140.214844 150.863281 140.382812 151.222656 C 140.550781 151.582031 140.683594 151.953125 140.773438 152.339844 C 140.867188 152.726562 140.917969 153.117188 140.929688 153.511719 C 140.941406 153.910156 140.914062 154.300781 140.84375 154.691406 C 140.777344 155.082031 140.667969 155.464844 140.523438 155.832031 C 140.375 156.199219 140.191406 156.550781 139.976562 156.882812 C 139.757812 157.214844 139.507812 157.519531 139.226562 157.800781 C 138.945312 158.078125 138.636719 158.328125 138.304688 158.546875 Z M 138.304688 158.546875 " fill-opacity="1" fill-rule="nonzero"/><path stroke-linecap="butt" transform="matrix(0.888387, 0, 0, 0.886308, 85.890892, 143.825088)" fill="none" stroke-linejoin="miter" d="M 34.278814 42.930801 C 30.923893 48.25926 27.867969 53.759606 25.119836 59.431837 " stroke="#000000" stroke-width="1" stroke-opacity="1" stroke-miterlimit="10"/><path stroke-linecap="butt" transform="matrix(0.888387, 0, 0, 0.886308, 85.890892, 143.825088)" fill="none" stroke-linejoin="miter" d="M 18.361627 74.280125 C 18.361627 74.280125 20.291915 69.53784 23.361031 63.089919 " stroke="#000000" stroke-width="1" stroke-opacity="1" stroke-miterlimit="10"/><path fill="#f9a31e" d="M 282.101562 214.285156 C 281.738281 214.40625 281.367188 214.488281 280.984375 214.535156 C 280.605469 214.582031 280.226562 214.59375 279.84375 214.566406 C 279.464844 214.535156 279.089844 214.472656 278.71875 214.371094 C 278.351562 214.269531 277.996094 214.132812 277.652344 213.960938 C 277.3125 213.789062 276.992188 213.585938 276.691406 213.351562 C 276.386719 213.117188 276.113281 212.855469 275.863281 212.566406 C 275.613281 212.277344 275.394531 211.964844 275.207031 211.632812 C 275.019531 211.300781 274.863281 210.953125 274.746094 210.589844 C 272.246094 202.984375 268.925781 195.75 264.792969 188.890625 C 260.65625 182.027344 255.804688 175.714844 250.242188 169.945312 C 250.117188 169.820312 249.96875 169.722656 249.804688 169.65625 C 249.640625 169.589844 249.46875 169.554688 249.292969 169.554688 C 249.113281 169.554688 248.941406 169.589844 248.777344 169.65625 C 248.613281 169.722656 248.46875 169.820312 248.339844 169.945312 C 247.453125 169.058594 246.566406 168.214844 245.730469 167.464844 C 245.730469 167.464844 245.78125 167.417969 245.808594 167.402344 C 245.929688 167.269531 246.019531 167.117188 246.078125 166.949219 C 246.140625 166.78125 246.164062 166.609375 246.15625 166.429688 C 246.148438 166.25 246.105469 166.082031 246.03125 165.917969 C 245.957031 165.757812 245.851562 165.617188 245.71875 165.496094 C 242.445312 162.488281 238.996094 159.699219 235.371094 157.121094 C 235.058594 156.898438 234.773438 156.644531 234.511719 156.367188 C 234.25 156.089844 234.015625 155.785156 233.8125 155.460938 C 233.613281 155.136719 233.441406 154.796875 233.308594 154.4375 C 233.171875 154.078125 233.074219 153.710938 233.011719 153.335938 C 232.949219 152.957031 232.925781 152.578125 232.9375 152.195312 C 232.949219 151.8125 233 151.4375 233.085938 151.066406 C 233.171875 150.691406 233.292969 150.332031 233.453125 149.984375 C 233.609375 149.636719 233.800781 149.304688 234.023438 148.996094 C 234.246094 148.683594 234.5 148.398438 234.777344 148.136719 C 235.058594 147.875 235.359375 147.644531 235.683594 147.441406 C 236.011719 147.238281 236.351562 147.070312 236.710938 146.933594 C 237.070312 146.800781 237.4375 146.699219 237.816406 146.636719 C 238.195312 146.574219 238.574219 146.550781 238.957031 146.5625 C 239.339844 146.574219 239.71875 146.625 240.089844 146.710938 C 240.464844 146.796875 240.828125 146.917969 241.175781 147.074219 C 241.523438 147.234375 241.855469 147.421875 242.167969 147.644531 C 247.246094 151.292969 252.007812 155.3125 256.449219 159.703125 C 260.894531 164.097656 264.96875 168.8125 268.671875 173.84375 C 272.371094 178.875 275.660156 184.164062 278.527344 189.710938 C 281.394531 195.257812 283.8125 200.996094 285.777344 206.921875 C 285.898438 207.285156 285.980469 207.652344 286.027344 208.03125 C 286.074219 208.410156 286.085938 208.789062 286.054688 209.171875 C 286.027344 209.550781 285.964844 209.925781 285.863281 210.292969 C 285.761719 210.660156 285.628906 211.015625 285.457031 211.359375 C 285.285156 211.699219 285.082031 212.019531 284.851562 212.324219 C 284.617188 212.625 284.355469 212.902344 284.066406 213.152344 C 283.78125 213.402344 283.472656 213.625 283.140625 213.816406 C 282.808594 214.007812 282.460938 214.164062 282.101562 214.285156 Z M 282.101562 214.285156 " fill-opacity="1" fill-rule="nonzero"/><path stroke-linecap="butt" transform="matrix(0.888387, 0, 0, 0.886308, 85.890892, 143.825088)" fill="none" stroke-linejoin="miter" d="M 199.659272 51.049099 C 194.998438 42.490068 188.429301 35.002018 182.849491 29.470821 " stroke="#000000" stroke-width="1" stroke-opacity="1" stroke-miterlimit="10"/><path stroke-linecap="butt" transform="matrix(0.888387, 0, 0, 0.886308, 85.890892, 143.825088)" fill="none" stroke-linejoin="miter" d="M 179.907889 26.672168 C 175.370172 22.471984 172.059221 20.02151 172.059221 20.02151 " stroke="#000000" stroke-width="1" stroke-opacity="1" stroke-miterlimit="10"/><path fill="#ff363d" d="M 197.339844 167.464844 C 197.339844 167.820312 197.304688 168.175781 197.234375 168.523438 C 197.164062 168.875 197.0625 169.214844 196.921875 169.546875 C 196.785156 169.875 196.617188 170.1875 196.417969 170.484375 C 196.222656 170.785156 195.996094 171.058594 195.742188 171.3125 C 195.488281 171.5625 195.210938 171.789062 194.914062 171.988281 C 194.617188 172.1875 194.300781 172.355469 193.972656 172.492188 C 193.640625 172.628906 193.300781 172.730469 192.949219 172.800781 C 192.597656 172.871094 192.242188 172.90625 191.882812 172.90625 C 191.527344 172.90625 191.171875 172.871094 190.820312 172.800781 C 190.46875 172.730469 190.128906 172.628906 189.796875 172.492188 C 189.464844 172.355469 189.152344 172.1875 188.855469 171.988281 C 188.554688 171.789062 188.28125 171.5625 188.027344 171.3125 C 187.773438 171.058594 187.546875 170.785156 187.347656 170.484375 C 187.148438 170.1875 186.980469 169.875 186.84375 169.546875 C 186.707031 169.214844 186.605469 168.875 186.535156 168.523438 C 186.464844 168.175781 186.429688 167.820312 186.429688 167.464844 C 186.429688 167.105469 186.464844 166.75 186.535156 166.402344 C 186.605469 166.050781 186.707031 165.710938 186.84375 165.378906 C 186.980469 165.050781 187.148438 164.738281 187.347656 164.441406 C 187.546875 164.140625 187.773438 163.867188 188.027344 163.613281 C 188.28125 163.363281 188.554688 163.136719 188.855469 162.9375 C 189.152344 162.738281 189.464844 162.570312 189.796875 162.433594 C 190.128906 162.296875 190.46875 162.195312 190.820312 162.125 C 191.171875 162.054688 191.527344 162.019531 191.882812 162.019531 C 192.242188 162.019531 192.597656 162.054688 192.949219 162.125 C 193.300781 162.195312 193.640625 162.296875 193.972656 162.433594 C 194.300781 162.570312 194.617188 162.738281 194.914062 162.9375 C 195.210938 163.136719 195.488281 163.363281 195.742188 163.613281 C 195.996094 163.867188 196.222656 164.140625 196.417969 164.441406 C 196.617188 164.738281 196.785156 165.050781 196.925781 165.378906 C 197.0625 165.710938 197.164062 166.050781 197.234375 166.402344 C 197.304688 166.75 197.339844 167.105469 197.339844 167.464844 Z M 197.339844 167.464844 " fill-opacity="1" fill-rule="nonzero"/><g clip-path="url(#458bd0703b)"><path stroke-linecap="butt" transform="matrix(0.888387, 0, 0, 0.886308, 85.890892, 143.825088)" fill="none" stroke-linejoin="miter" d="M 125.450882 26.672168 C 125.450882 27.073235 125.411308 27.474302 125.332162 27.866554 C 125.253016 28.263213 125.138694 28.646651 124.980401 29.021274 C 124.826506 29.391489 124.637434 29.744076 124.413186 30.079033 C 124.193336 30.418397 123.938309 30.72691 123.652503 31.013386 C 123.366697 31.295455 123.054509 31.55108 122.720336 31.775854 C 122.386163 32.000628 122.030005 32.190143 121.660656 32.344399 C 121.28691 32.498656 120.90437 32.613246 120.508639 32.692578 C 120.112908 32.77191 119.712779 32.811576 119.308254 32.811576 C 118.908126 32.811576 118.507998 32.77191 118.112267 32.692578 C 117.716535 32.613246 117.333995 32.498656 116.960249 32.344399 C 116.586503 32.190143 116.234742 32.000628 115.900569 31.775854 C 115.561999 31.55108 115.254208 31.295455 114.968402 31.013386 C 114.682596 30.72691 114.42757 30.418397 114.203322 30.079033 C 113.979074 29.744076 113.790003 29.391489 113.636107 29.021274 C 113.482212 28.646651 113.367889 28.263213 113.288743 27.866554 C 113.209597 27.474302 113.170024 27.073235 113.170024 26.672168 C 113.170024 26.266694 113.209597 25.865627 113.288743 25.473375 C 113.367889 25.076715 113.482212 24.693278 113.636107 24.318655 C 113.790003 23.948439 113.979074 23.595853 114.203322 23.260896 C 114.42757 22.921532 114.682596 22.613019 114.968402 22.326543 C 115.254208 22.044474 115.561999 21.788849 115.900569 21.564075 C 116.234742 21.339301 116.586503 21.149786 116.960249 20.99553 C 117.333995 20.841273 117.716535 20.726683 118.112267 20.647351 C 118.507998 20.568019 118.908126 20.528353 119.308254 20.528353 C 119.712779 20.528353 120.112908 20.568019 120.508639 20.647351 C 120.90437 20.726683 121.28691 20.841273 121.660656 20.99553 C 122.030005 21.149786 122.386163 21.339301 122.720336 21.564075 C 123.054509 21.788849 123.366697 22.044474 123.652503 22.326543 C 123.938309 22.613019 124.193336 22.921532 124.413186 23.260896 C 124.637434 23.595853 124.826506 23.948439 124.984798 24.318655 C 125.138694 24.693278 125.253016 25.076715 125.332162 25.473375 C 125.411308 25.865627 125.450882 26.266694 125.450882 26.672168 Z M 125.450882 26.672168 " stroke="#231f20" stroke-width="2" stroke-opacity="1" stroke-miterlimit="10"/></g><path fill="#ff363d" d="M 102.921875 163.183594 C 102.921875 163.5625 102.847656 163.929688 102.703125 164.285156 C 102.554688 164.636719 102.347656 164.949219 102.074219 165.21875 C 101.804688 165.488281 101.492188 165.695312 101.140625 165.84375 C 100.785156 165.988281 100.417969 166.0625 100.035156 166.0625 C 99.652344 166.0625 99.28125 165.988281 98.929688 165.84375 C 98.574219 165.695312 98.261719 165.488281 97.992188 165.21875 C 97.722656 164.949219 97.511719 164.636719 97.367188 164.285156 C 97.21875 163.929688 97.148438 163.5625 97.148438 163.183594 C 97.148438 162.800781 97.21875 162.433594 97.367188 162.078125 C 97.511719 161.726562 97.722656 161.414062 97.992188 161.144531 C 98.261719 160.875 98.574219 160.667969 98.929688 160.519531 C 99.28125 160.375 99.652344 160.300781 100.035156 160.300781 C 100.417969 160.300781 100.785156 160.375 101.140625 160.519531 C 101.492188 160.667969 101.804688 160.875 102.074219 161.144531 C 102.347656 161.414062 102.554688 161.726562 102.703125 162.078125 C 102.847656 162.433594 102.921875 162.800781 102.921875 163.183594 Z M 102.921875 163.183594 " fill-opacity="1" fill-rule="nonzero"/><g clip-path="url(#6adb7a000d)"><path stroke-linecap="butt" transform="matrix(0.888387, 0, 0, 0.886308, 85.890892, 143.825088)" fill="none" stroke-linejoin="miter" d="M 19.170677 21.841737 C 19.170677 22.269247 19.087134 22.683536 18.924444 23.084603 C 18.757358 23.481263 18.524316 23.833849 18.216525 24.137954 C 17.913131 24.44206 17.56137 24.675648 17.165639 24.843127 C 16.765511 25.006198 16.352192 25.089937 15.921284 25.089937 C 15.490377 25.089937 15.072661 25.006198 14.67693 24.843127 C 14.276801 24.675648 13.92504 24.44206 13.621647 24.137954 C 13.318253 23.833849 13.080814 23.481263 12.918124 23.084603 C 12.751038 22.683536 12.671892 22.269247 12.671892 21.841737 C 12.671892 21.409818 12.751038 20.99553 12.918124 20.594463 C 13.080814 20.197803 13.318253 19.845217 13.621647 19.541111 C 13.92504 19.237006 14.276801 19.003417 14.67693 18.835939 C 15.072661 18.672868 15.490377 18.589128 15.921284 18.589128 C 16.352192 18.589128 16.765511 18.672868 17.165639 18.835939 C 17.56137 19.003417 17.913131 19.237006 18.216525 19.541111 C 18.524316 19.845217 18.757358 20.197803 18.924444 20.594463 C 19.087134 20.99553 19.170677 21.409818 19.170677 21.841737 Z M 19.170677 21.841737 " stroke="#231f20" stroke-width="1" stroke-opacity="1" stroke-miterlimit="10"/></g><path fill="#ffbd59" d="M 276.289062 226.4375 C 276.289062 226.820312 276.214844 227.1875 276.070312 227.539062 C 275.921875 227.894531 275.714844 228.203125 275.445312 228.476562 C 275.171875 228.746094 274.863281 228.953125 274.507812 229.097656 C 274.152344 229.246094 273.785156 229.316406 273.402344 229.316406 C 273.019531 229.316406 272.652344 229.246094 272.296875 229.097656 C 271.945312 228.953125 271.632812 228.746094 271.359375 228.476562 C 271.089844 228.203125 270.882812 227.894531 270.734375 227.539062 C 270.589844 227.1875 270.515625 226.820312 270.515625 226.4375 C 270.515625 226.054688 270.589844 225.6875 270.734375 225.335938 C 270.882812 224.984375 271.089844 224.671875 271.359375 224.402344 C 271.632812 224.132812 271.945312 223.921875 272.296875 223.777344 C 272.652344 223.628906 273.019531 223.558594 273.402344 223.558594 C 273.785156 223.558594 274.152344 223.628906 274.507812 223.777344 C 274.863281 223.921875 275.171875 224.132812 275.445312 224.402344 C 275.714844 224.671875 275.921875 224.984375 276.070312 225.335938 C 276.214844 225.6875 276.289062 226.054688 276.289062 226.4375 Z M 276.289062 226.4375 " fill-opacity="1" fill-rule="nonzero"/><g clip-path="url(#aae2a1da0b)"><path stroke-linecap="butt" transform="matrix(0.888387, 0, 0, 0.886308, 85.890892, 143.825088)" fill="none" stroke-linejoin="miter" d="M 214.318914 93.209598 C 214.318914 93.641517 214.235371 94.055805 214.072681 94.452465 C 213.905595 94.853532 213.672553 95.201711 213.369159 95.510224 C 213.061368 95.814329 212.714004 96.047918 212.313876 96.210989 C 211.913748 96.378467 211.500429 96.457799 211.069521 96.457799 C 210.638614 96.457799 210.225295 96.378467 209.825167 96.210989 C 209.429435 96.047918 209.077674 95.814329 208.769883 95.510224 C 208.46649 95.201711 208.233448 94.853532 208.066361 94.452465 C 207.903672 94.055805 207.820129 93.641517 207.820129 93.209598 C 207.820129 92.77768 207.903672 92.363391 208.066361 91.966732 C 208.233448 91.570072 208.46649 91.217486 208.769883 90.913381 C 209.077674 90.609275 209.429435 90.371279 209.825167 90.208208 C 210.225295 90.04073 210.638614 89.961398 211.069521 89.961398 C 211.500429 89.961398 211.913748 90.04073 212.313876 90.208208 C 212.714004 90.371279 213.061368 90.609275 213.369159 90.913381 C 213.672553 91.217486 213.905595 91.570072 214.072681 91.966732 C 214.235371 92.363391 214.318914 92.77768 214.318914 93.209598 Z M 214.318914 93.209598 " stroke="#231f20" stroke-width="1" stroke-opacity="1" stroke-miterlimit="10"/></g><path stroke-linecap="butt" transform="matrix(0.888387, 0, 0, 0.886308, 85.890892, 143.825088)" fill-opacity="1" fill="#ff363d" fill-rule="nonzero" stroke-linejoin="miter" d="M 96.15798 35.998074 C 96.15798 36.491695 96.065643 36.963279 95.876571 37.421641 C 95.6875 37.875596 95.419282 38.276663 95.071918 38.624841 C 94.724554 38.97302 94.324426 39.23746 93.871533 39.426975 C 93.414244 39.61649 92.943763 39.709044 92.451298 39.709044 C 91.958833 39.709044 91.483955 39.61649 91.031063 39.426975 C 90.573773 39.23746 90.173645 38.97302 89.826281 38.624841 C 89.478917 38.276663 89.210699 37.875596 89.021628 37.421641 C 88.832556 36.963279 88.740219 36.491695 88.740219 35.998074 C 88.740219 35.508861 88.832556 35.032869 89.021628 34.578914 C 89.210699 34.12496 89.478917 33.723893 89.826281 33.375714 C 90.173645 33.027535 90.573773 32.758688 91.031063 32.57358 C 91.483955 32.384065 91.958833 32.291511 92.451298 32.291511 C 92.943763 32.291511 93.414244 32.384065 93.871533 32.57358 C 94.324426 32.758688 94.724554 33.027535 95.071918 33.375714 C 95.419282 33.723893 95.6875 34.12496 95.876571 34.578914 C 96.065643 35.032869 96.15798 35.508861 96.15798 35.998074 Z M 96.15798 35.998074 " stroke="#231f20" stroke-width="2" stroke-opacity="1" stroke-miterlimit="10"/><path stroke-linecap="butt" transform="matrix(0.888387, 0, 0, 0.886308, 85.890892, 143.825088)" fill-opacity="1" fill="#ffbd59" fill-rule="nonzero" stroke-linejoin="miter" d="M 119.308254 57.660091 C 119.308254 58.039121 119.273078 58.418151 119.198329 58.792774 C 119.12358 59.16299 119.013654 59.528798 118.868553 59.881384 C 118.723451 60.229563 118.543174 60.56452 118.332117 60.881848 C 118.121061 61.199175 117.879225 61.490059 117.611007 61.763313 C 117.342789 62.03216 117.048189 62.270156 116.731605 62.481708 C 116.41502 62.69326 116.080847 62.87396 115.729086 63.019402 C 115.377324 63.164844 115.016769 63.275027 114.643023 63.349951 C 114.269277 63.424876 113.891134 63.460135 113.508594 63.460135 C 113.130451 63.460135 112.752308 63.424876 112.378562 63.349951 C 112.004815 63.275027 111.64426 63.164844 111.292499 63.019402 C 110.940738 62.87396 110.602168 62.69326 110.285583 62.481708 C 109.968998 62.270156 109.678795 62.03216 109.410578 61.763313 C 109.137963 61.490059 108.900524 61.199175 108.689467 60.881848 C 108.474014 60.56452 108.298133 60.229563 108.153032 59.881384 C 108.00793 59.528798 107.893608 59.16299 107.823256 58.792774 C 107.748507 58.418151 107.708934 58.039121 107.708934 57.660091 C 107.708934 57.281061 107.748507 56.902031 107.823256 56.527408 C 107.893608 56.152785 108.00793 55.791384 108.153032 55.438798 C 108.298133 55.090619 108.474014 54.755662 108.689467 54.438334 C 108.900524 54.121007 109.137963 53.830123 109.410578 53.556869 C 109.678795 53.288022 109.968998 53.050026 110.285583 52.838474 C 110.602168 52.626922 110.940738 52.446222 111.292499 52.30078 C 111.64426 52.155338 112.004815 52.045155 112.378562 51.970231 C 112.752308 51.895306 113.130451 51.860047 113.508594 51.860047 C 113.891134 51.860047 114.269277 51.895306 114.643023 51.970231 C 115.016769 52.045155 115.377324 52.155338 115.729086 52.30078 C 116.080847 52.446222 116.41502 52.626922 116.731605 52.838474 C 117.048189 53.050026 117.342789 53.288022 117.611007 53.556869 C 117.879225 53.830123 118.121061 54.121007 118.332117 54.438334 C 118.543174 54.755662 118.723451 55.090619 118.868553 55.438798 C 119.013654 55.791384 119.12358 56.152785 119.198329 56.527408 C 119.273078 56.902031 119.308254 57.281061 119.308254 57.660091 Z M 119.308254 57.660091 " stroke="#231f20" stroke-width="2" stroke-opacity="1" stroke-miterlimit="10"/></svg>