<svg xmlns="http://www.w3.org/2000/svg" xmlns:xlink="http://www.w3.org/1999/xlink" width="500" zoomAndPan="magnify" viewBox="0 0 375 374.999991" height="500" preserveAspectRatio="xMidYMid meet" version="1.0"><defs><g/><clipPath id="1e4117684a"><path d="M 85.714844 105 L 182 105 L 182 190.894531 L 85.714844 190.894531 Z M 85.714844 105 " clip-rule="nonzero"/></clipPath><clipPath id="2b3c2e498d"><path d="M 193 103.894531 L 288.964844 103.894531 L 288.964844 190.894531 L 193 190.894531 Z M 193 103.894531 " clip-rule="nonzero"/></clipPath><clipPath id="41159c5f2f"><path d="M 161 103.894531 L 223 103.894531 L 223 159 L 161 159 Z M 161 103.894531 " clip-rule="nonzero"/></clipPath><clipPath id="3a7ab3ae6d"><path d="M 85.714844 107 L 116 107 L 116 139 L 85.714844 139 Z M 85.714844 107 " clip-rule="nonzero"/></clipPath><clipPath id="ef96af7613"><path d="M 257 171 L 288.964844 171 L 288.964844 190.894531 L 257 190.894531 Z M 257 171 " clip-rule="nonzero"/></clipPath></defs><g clip-path="url(#1e4117684a)"><path fill="#000000" d="M 180.816406 182.695312 L 167.355469 159.074219 C 167.265625 158.917969 167.152344 158.789062 167.011719 158.679688 C 166.867188 158.570312 166.710938 158.492188 166.539062 158.445312 C 166.367188 158.398438 166.191406 158.382812 166.011719 158.40625 C 165.835938 158.429688 165.667969 158.484375 165.511719 158.574219 C 165.355469 158.664062 165.222656 158.777344 165.113281 158.917969 C 165.003906 159.0625 164.925781 159.21875 164.878906 159.390625 C 164.832031 159.5625 164.820312 159.738281 164.84375 159.914062 C 164.867188 160.09375 164.921875 160.257812 165.011719 160.414062 L 178.480469 184.035156 C 178.765625 184.503906 178.894531 185.015625 178.875 185.566406 C 178.851562 186.113281 178.679688 186.613281 178.359375 187.058594 C 178.035156 187.507812 177.617188 187.828125 177.101562 188.023438 C 176.585938 188.21875 176.058594 188.257812 175.519531 188.136719 L 175.46875 188.136719 L 169.042969 187.019531 C 169.28125 186.640625 169.492188 186.25 169.679688 185.847656 C 169.871094 185.445312 170.035156 185.03125 170.171875 184.609375 C 170.308594 184.183594 170.421875 183.753906 170.507812 183.316406 C 170.59375 182.878906 170.652344 182.441406 170.6875 181.996094 C 170.71875 181.550781 170.726562 181.105469 170.703125 180.660156 C 170.683594 180.21875 170.632812 179.773438 170.558594 179.335938 C 170.484375 178.898438 170.382812 178.464844 170.253906 178.039062 C 170.128906 177.609375 169.976562 177.195312 169.796875 176.785156 C 169.617188 176.375 169.417969 175.980469 169.191406 175.597656 C 168.964844 175.214844 168.714844 174.84375 168.445312 174.492188 C 168.171875 174.136719 167.882812 173.800781 167.570312 173.480469 C 167.257812 173.164062 166.925781 172.867188 166.578125 172.585938 C 166.230469 172.308594 165.867188 172.050781 165.488281 171.816406 C 165.109375 171.582031 164.714844 171.371094 164.3125 171.183594 C 163.90625 170.996094 163.492188 170.835938 163.066406 170.699219 C 162.640625 170.5625 162.210938 170.449219 161.773438 170.363281 C 161.332031 170.28125 160.890625 170.222656 160.445312 170.191406 C 160 170.160156 159.554688 170.152344 159.109375 170.175781 C 158.664062 170.199219 158.222656 170.246094 157.78125 170.324219 C 157.34375 170.398438 156.910156 170.5 156.480469 170.628906 C 156.054688 170.757812 155.636719 170.910156 155.226562 171.089844 C 154.816406 171.269531 154.421875 171.472656 154.039062 171.699219 C 153.652344 171.925781 153.285156 172.175781 152.929688 172.445312 C 152.574219 172.71875 152.238281 173.007812 151.921875 173.320312 C 151.601562 173.632812 151.304688 173.964844 151.027344 174.3125 C 150.746094 174.660156 150.492188 175.023438 150.257812 175.402344 C 150.023438 175.78125 149.8125 176.171875 149.625 176.578125 C 149.4375 176.984375 149.277344 177.398438 149.140625 177.820312 C 149.003906 178.246094 148.894531 178.675781 148.8125 179.113281 C 148.726562 179.550781 148.667969 179.992188 148.640625 180.433594 C 148.609375 180.878906 148.605469 181.324219 148.628906 181.769531 C 148.652344 182.214844 148.703125 182.65625 148.78125 183.09375 C 148.800781 183.238281 148.832031 183.378906 148.867188 183.519531 L 127.46875 179.824219 C 127.683594 179.441406 127.871094 179.042969 128.039062 178.636719 C 128.207031 178.230469 128.351562 177.816406 128.46875 177.394531 C 128.585938 176.96875 128.675781 176.542969 128.742188 176.109375 C 128.808594 175.671875 128.847656 175.238281 128.863281 174.796875 C 128.878906 174.359375 128.863281 173.921875 128.828125 173.484375 C 128.789062 173.046875 128.722656 172.609375 128.632812 172.179688 C 128.542969 171.75 128.425781 171.328125 128.285156 170.914062 C 128.144531 170.496094 127.980469 170.089844 127.789062 169.695312 C 127.601562 169.296875 127.386719 168.914062 127.152344 168.542969 C 126.917969 168.171875 126.660156 167.816406 126.382812 167.476562 C 126.101562 167.132812 125.804688 166.8125 125.488281 166.507812 C 125.171875 166.203125 124.835938 165.917969 124.488281 165.652344 C 124.136719 165.386719 123.769531 165.144531 123.390625 164.921875 C 123.007812 164.699219 122.617188 164.5 122.214844 164.324219 C 121.808594 164.152344 121.398438 164 120.976562 163.875 C 120.554688 163.75 120.125 163.648438 119.691406 163.574219 C 119.257812 163.5 118.820312 163.449219 118.382812 163.429688 C 117.941406 163.40625 117.503906 163.410156 117.0625 163.4375 C 116.625 163.46875 116.1875 163.523438 115.753906 163.605469 C 115.320312 163.6875 114.894531 163.792969 114.476562 163.925781 C 114.054688 164.058594 113.644531 164.214844 113.246094 164.394531 C 112.84375 164.578125 112.453125 164.78125 112.078125 165.007812 C 111.703125 165.238281 111.339844 165.484375 110.992188 165.757812 C 110.644531 166.027344 110.316406 166.316406 110.003906 166.628906 C 109.691406 166.9375 109.398438 167.265625 109.128906 167.609375 C 108.855469 167.953125 108.601562 168.3125 108.375 168.6875 C 108.144531 169.0625 107.9375 169.449219 107.753906 169.851562 C 107.570312 170.25 107.410156 170.660156 107.277344 171.078125 C 107.140625 171.496094 107.03125 171.917969 106.949219 172.351562 C 106.867188 172.78125 106.808594 173.214844 106.777344 173.65625 C 106.746094 174.09375 106.738281 174.53125 106.761719 174.96875 C 106.78125 175.410156 106.828125 175.84375 106.902344 176.277344 L 101.828125 175.390625 C 103.730469 170.835938 105.007812 165.933594 107.210938 161.503906 C 107.347656 161.191406 107.367188 160.875 107.265625 160.554688 C 107.164062 160.230469 106.96875 159.980469 106.679688 159.800781 L 106.492188 159.730469 C 106.332031 159.65625 106.160156 159.617188 105.980469 159.609375 C 105.800781 159.605469 105.628906 159.632812 105.460938 159.695312 C 105.296875 159.757812 105.148438 159.851562 105.019531 159.976562 C 104.886719 160.097656 104.789062 160.242188 104.714844 160.40625 C 102.886719 164.460938 101.3125 168.613281 100 172.867188 C 99.882812 173.230469 99.734375 173.582031 99.550781 173.917969 C 99.367188 174.25 99.152344 174.566406 98.910156 174.859375 C 98.664062 175.152344 98.394531 175.421875 98.09375 175.660156 C 97.796875 175.902344 97.480469 176.109375 97.140625 176.289062 C 96.800781 176.46875 96.449219 176.613281 96.082031 176.722656 C 95.714844 176.832031 95.339844 176.902344 94.960938 176.941406 C 94.578125 176.976562 94.199219 176.976562 93.816406 176.9375 C 93.4375 176.898438 93.0625 176.824219 92.695312 176.710938 C 92.332031 176.601562 91.984375 176.453125 91.648438 176.273438 C 91.3125 176.09375 91 175.878906 90.707031 175.636719 C 90.410156 175.394531 90.144531 175.128906 89.902344 174.832031 C 89.664062 174.539062 89.453125 174.222656 89.273438 173.890625 C 89.097656 173.554688 88.953125 173.203125 88.839844 172.839844 C 88.730469 172.476562 88.65625 172.105469 88.621094 171.726562 C 88.582031 171.347656 88.582031 170.972656 88.621094 170.59375 C 88.65625 170.214844 88.730469 169.84375 88.839844 169.480469 C 90.691406 163.511719 92.996094 157.722656 95.761719 152.117188 C 98.523438 146.507812 101.710938 141.152344 105.316406 136.042969 C 108.925781 130.9375 112.910156 126.140625 117.277344 121.660156 C 121.640625 117.175781 126.328125 113.0625 131.339844 109.316406 C 131.644531 109.0625 131.96875 108.839844 132.320312 108.648438 C 132.667969 108.460938 133.035156 108.308594 133.414062 108.191406 C 133.792969 108.078125 134.183594 108 134.578125 107.964844 C 134.972656 107.929688 135.371094 107.933594 135.765625 107.980469 C 136.160156 108.023438 136.546875 108.109375 136.921875 108.230469 C 137.300781 108.355469 137.664062 108.515625 138.007812 108.714844 C 138.351562 108.910156 138.671875 109.140625 138.96875 109.40625 C 139.269531 109.667969 139.535156 109.957031 139.773438 110.273438 C 140.011719 110.59375 140.214844 110.929688 140.382812 111.289062 C 140.550781 111.648438 140.683594 112.023438 140.773438 112.40625 C 140.867188 112.792969 140.917969 113.183594 140.929688 113.582031 C 140.941406 113.976562 140.914062 114.371094 140.84375 114.761719 C 140.777344 115.152344 140.667969 115.53125 140.523438 115.898438 C 140.375 116.269531 140.191406 116.617188 139.976562 116.949219 C 139.757812 117.28125 139.507812 117.585938 139.226562 117.867188 C 138.945312 118.148438 138.636719 118.398438 138.304688 118.613281 C 131.875 123.394531 126.0625 128.832031 120.863281 134.921875 C 115.664062 141.011719 111.210938 147.601562 107.503906 154.695312 C 107.425781 154.851562 107.382812 155.015625 107.367188 155.191406 C 107.355469 155.363281 107.375 155.53125 107.425781 155.699219 C 107.480469 155.863281 107.5625 156.015625 107.675781 156.148438 C 107.785156 156.28125 107.917969 156.386719 108.074219 156.46875 L 108.207031 156.53125 C 108.519531 156.65625 108.835938 156.660156 109.15625 156.550781 C 109.472656 156.4375 109.714844 156.230469 109.878906 155.9375 C 117.304688 141.207031 128.640625 129.515625 141.546875 119.21875 L 161.910156 154.945312 C 161.996094 155.101562 162.109375 155.234375 162.25 155.347656 C 162.390625 155.457031 162.546875 155.535156 162.71875 155.585938 C 162.890625 155.632812 163.0625 155.644531 163.242188 155.625 C 163.417969 155.601562 163.585938 155.546875 163.742188 155.457031 C 163.898438 155.371094 164.03125 155.253906 164.140625 155.113281 C 164.25 154.972656 164.332031 154.816406 164.378906 154.640625 C 164.425781 154.46875 164.4375 154.292969 164.414062 154.117188 C 164.390625 153.9375 164.335938 153.769531 164.246094 153.617188 L 143.03125 116.390625 C 143.285156 115.53125 143.398438 114.65625 143.371094 113.761719 C 143.347656 112.867188 143.1875 111.996094 142.886719 111.152344 C 142.585938 110.3125 142.164062 109.535156 141.621094 108.824219 C 141.074219 108.113281 140.433594 107.503906 139.695312 106.992188 C 138.960938 106.484375 138.160156 106.101562 137.300781 105.84375 C 136.445312 105.582031 135.566406 105.464844 134.667969 105.480469 C 133.773438 105.5 132.902344 105.652344 132.054688 105.945312 C 131.203125 106.238281 130.421875 106.652344 129.707031 107.191406 C 124.582031 111.019531 119.792969 115.222656 115.332031 119.800781 C 110.871094 124.378906 106.796875 129.28125 103.109375 134.5 C 99.421875 139.71875 96.164062 145.191406 93.339844 150.921875 C 90.515625 156.652344 88.15625 162.566406 86.265625 168.664062 C 85.996094 169.535156 85.871094 170.429688 85.890625 171.339844 C 85.910156 172.253906 86.070312 173.136719 86.375 174 C 86.679688 174.859375 87.113281 175.648438 87.671875 176.371094 C 88.230469 177.09375 88.890625 177.707031 89.648438 178.21875 C 90.40625 178.726562 91.226562 179.105469 92.105469 179.351562 C 92.984375 179.601562 93.882812 179.703125 94.796875 179.664062 C 95.710938 179.621094 96.59375 179.441406 97.449219 179.117188 C 98.300781 178.792969 99.085938 178.34375 99.792969 177.765625 L 108.519531 179.273438 L 112.425781 179.949219 L 150.628906 186.558594 L 154.875 187.296875 L 174.976562 190.75 C 175.496094 190.863281 176.019531 190.894531 176.546875 190.855469 C 177.074219 190.8125 177.585938 190.695312 178.078125 190.507812 C 178.570312 190.316406 179.027344 190.058594 179.449219 189.738281 C 179.867188 189.414062 180.230469 189.039062 180.539062 188.609375 C 180.847656 188.179688 181.089844 187.71875 181.265625 187.21875 C 181.441406 186.71875 181.539062 186.207031 181.5625 185.679688 C 181.585938 185.152344 181.535156 184.632812 181.410156 184.121094 C 181.28125 183.605469 181.082031 183.125 180.816406 182.667969 Z M 124.589844 179.316406 L 114.089844 177.546875 L 109.78125 176.800781 C 109.695312 176.507812 109.625 176.214844 109.574219 175.914062 C 109.480469 175.375 109.4375 174.832031 109.449219 174.285156 C 109.464844 173.738281 109.527344 173.195312 109.648438 172.664062 C 109.765625 172.128906 109.9375 171.609375 110.15625 171.109375 C 110.378906 170.609375 110.648438 170.132812 110.960938 169.683594 C 111.277344 169.238281 111.632812 168.824219 112.03125 168.445312 C 112.425781 168.066406 112.855469 167.730469 113.320312 167.4375 C 113.78125 167.140625 114.269531 166.894531 114.78125 166.699219 C 115.292969 166.5 115.816406 166.351562 116.359375 166.257812 C 116.898438 166.164062 117.441406 166.121094 117.992188 166.132812 C 118.539062 166.148438 119.082031 166.210938 119.617188 166.332031 C 120.152344 166.449219 120.671875 166.621094 121.175781 166.839844 C 121.675781 167.058594 122.152344 167.328125 122.601562 167.640625 C 123.050781 167.957031 123.464844 168.3125 123.84375 168.707031 C 124.226562 169.101562 124.5625 169.53125 124.855469 169.992188 C 125.152344 170.453125 125.398438 170.941406 125.597656 171.453125 C 125.796875 171.960938 125.941406 172.484375 126.035156 173.027344 C 126.234375 174.128906 126.210938 175.226562 125.957031 176.320312 C 125.707031 177.414062 125.25 178.410156 124.589844 179.316406 Z M 166.101562 186.507812 L 155.390625 184.652344 L 151.835938 184.035156 C 151.675781 183.574219 151.550781 183.105469 151.460938 182.625 C 151.402344 182.28125 151.363281 181.933594 151.347656 181.585938 C 151.332031 181.238281 151.335938 180.890625 151.363281 180.542969 C 151.390625 180.195312 151.4375 179.851562 151.507812 179.511719 C 151.578125 179.167969 151.671875 178.835938 151.785156 178.503906 C 151.894531 178.175781 152.027344 177.851562 152.179688 177.539062 C 152.335938 177.226562 152.507812 176.921875 152.695312 176.632812 C 152.886719 176.339844 153.097656 176.0625 153.320312 175.796875 C 153.546875 175.53125 153.789062 175.277344 154.046875 175.042969 C 154.304688 174.808594 154.574219 174.589844 154.859375 174.386719 C 155.144531 174.1875 155.441406 174.003906 155.75 173.839844 C 156.058594 173.671875 156.375 173.527344 156.699219 173.402344 C 157.027344 173.277344 157.359375 173.175781 157.699219 173.089844 C 158.039062 173.007812 158.378906 172.945312 158.726562 172.90625 C 159.074219 172.867188 159.421875 172.847656 159.773438 172.851562 C 160.121094 172.851562 160.46875 172.878906 160.816406 172.925781 C 161.160156 172.972656 161.503906 173.039062 161.839844 173.128906 C 162.179688 173.21875 162.507812 173.328125 162.832031 173.457031 C 163.15625 173.589844 163.46875 173.738281 163.777344 173.910156 C 164.082031 174.078125 164.375 174.265625 164.65625 174.472656 C 164.9375 174.679688 165.203125 174.902344 165.457031 175.144531 C 165.710938 175.382812 165.945312 175.636719 166.167969 175.910156 C 166.390625 176.179688 166.59375 176.460938 166.777344 176.753906 C 166.964844 177.050781 167.128906 177.355469 167.277344 177.671875 C 167.425781 177.988281 167.550781 178.3125 167.660156 178.644531 C 167.765625 178.976562 167.851562 179.3125 167.914062 179.65625 C 167.980469 179.996094 168.023438 180.34375 168.042969 180.691406 C 168.0625 181.039062 168.0625 181.386719 168.039062 181.734375 C 168.015625 182.082031 167.972656 182.425781 167.90625 182.769531 C 167.839844 183.109375 167.753906 183.449219 167.644531 183.777344 C 167.535156 184.109375 167.40625 184.433594 167.257812 184.75 C 167.109375 185.0625 166.941406 185.367188 166.753906 185.664062 C 166.566406 185.957031 166.363281 186.238281 166.140625 186.507812 Z M 166.101562 186.507812 " fill-opacity="1" fill-rule="nonzero"/></g><path fill="#ff363d" d="M 166.101562 186.507812 L 155.390625 184.652344 L 151.835938 184.035156 C 151.675781 183.574219 151.550781 183.105469 151.460938 182.625 C 151.402344 182.28125 151.363281 181.933594 151.347656 181.585938 C 151.332031 181.238281 151.335938 180.890625 151.363281 180.542969 C 151.390625 180.195312 151.4375 179.851562 151.507812 179.511719 C 151.578125 179.167969 151.671875 178.835938 151.785156 178.503906 C 151.894531 178.175781 152.027344 177.851562 152.179688 177.539062 C 152.335938 177.226562 152.507812 176.921875 152.695312 176.632812 C 152.886719 176.339844 153.097656 176.0625 153.320312 175.796875 C 153.546875 175.53125 153.789062 175.277344 154.046875 175.042969 C 154.304688 174.808594 154.574219 174.589844 154.859375 174.386719 C 155.144531 174.1875 155.441406 174.003906 155.75 173.839844 C 156.058594 173.671875 156.375 173.527344 156.699219 173.402344 C 157.027344 173.277344 157.359375 173.175781 157.699219 173.089844 C 158.039062 173.007812 158.378906 172.945312 158.726562 172.90625 C 159.074219 172.867188 159.421875 172.847656 159.773438 172.851562 C 160.121094 172.851562 160.46875 172.878906 160.816406 172.925781 C 161.160156 172.972656 161.503906 173.039062 161.839844 173.128906 C 162.179688 173.21875 162.507812 173.328125 162.832031 173.457031 C 163.15625 173.589844 163.46875 173.738281 163.777344 173.910156 C 164.082031 174.078125 164.375 174.265625 164.65625 174.472656 C 164.9375 174.679688 165.203125 174.902344 165.457031 175.144531 C 165.710938 175.382812 165.945312 175.636719 166.167969 175.910156 C 166.390625 176.179688 166.59375 176.460938 166.777344 176.753906 C 166.964844 177.050781 167.128906 177.355469 167.277344 177.671875 C 167.425781 177.988281 167.550781 178.3125 167.660156 178.644531 C 167.765625 178.976562 167.851562 179.3125 167.914062 179.65625 C 167.980469 179.996094 168.023438 180.34375 168.042969 180.691406 C 168.0625 181.039062 168.0625 181.386719 168.039062 181.734375 C 168.015625 182.082031 167.972656 182.425781 167.90625 182.769531 C 167.839844 183.109375 167.753906 183.449219 167.644531 183.777344 C 167.535156 184.109375 167.40625 184.433594 167.257812 184.75 C 167.109375 185.0625 166.941406 185.367188 166.753906 185.664062 C 166.566406 185.957031 166.363281 186.238281 166.140625 186.507812 Z M 166.101562 186.507812 " fill-opacity="1" fill-rule="nonzero"/><path fill="#ff363d" d="M 124.589844 179.316406 L 114.089844 177.546875 L 109.78125 176.800781 C 109.695312 176.507812 109.625 176.214844 109.574219 175.914062 C 109.480469 175.375 109.4375 174.832031 109.449219 174.285156 C 109.464844 173.738281 109.527344 173.195312 109.648438 172.664062 C 109.765625 172.128906 109.9375 171.609375 110.15625 171.109375 C 110.378906 170.609375 110.648438 170.132812 110.960938 169.683594 C 111.277344 169.238281 111.632812 168.824219 112.03125 168.445312 C 112.425781 168.066406 112.855469 167.730469 113.320312 167.4375 C 113.78125 167.140625 114.269531 166.894531 114.78125 166.699219 C 115.292969 166.5 115.816406 166.351562 116.359375 166.257812 C 116.898438 166.164062 117.441406 166.121094 117.992188 166.132812 C 118.539062 166.148438 119.082031 166.210938 119.617188 166.332031 C 120.152344 166.449219 120.671875 166.621094 121.175781 166.839844 C 121.675781 167.058594 122.152344 167.328125 122.601562 167.640625 C 123.050781 167.957031 123.464844 168.3125 123.84375 168.707031 C 124.226562 169.101562 124.5625 169.53125 124.855469 169.992188 C 125.152344 170.453125 125.398438 170.941406 125.597656 171.453125 C 125.796875 171.960938 125.941406 172.484375 126.035156 173.027344 C 126.234375 174.128906 126.210938 175.226562 125.957031 176.320312 C 125.707031 177.414062 125.25 178.410156 124.589844 179.316406 Z M 124.589844 179.316406 " fill-opacity="1" fill-rule="nonzero"/><path fill="#000000" d="M 155.65625 150.40625 C 155.574219 149.953125 155.464844 149.503906 155.328125 149.0625 C 155.191406 148.621094 155.023438 148.191406 154.832031 147.769531 C 154.640625 147.347656 154.421875 146.941406 154.179688 146.546875 C 153.9375 146.15625 153.667969 145.777344 153.378906 145.417969 C 153.085938 145.058594 152.773438 144.71875 152.441406 144.398438 C 152.105469 144.078125 151.753906 143.777344 151.382812 143.503906 C 151.011719 143.226562 150.625 142.972656 150.21875 142.746094 C 149.816406 142.519531 149.402344 142.316406 148.972656 142.140625 C 148.542969 141.964844 148.105469 141.816406 147.660156 141.699219 C 147.210938 141.578125 146.757812 141.484375 146.300781 141.421875 C 145.839844 141.355469 145.378906 141.324219 144.917969 141.316406 C 144.453125 141.3125 143.992188 141.332031 143.53125 141.386719 C 143.070312 141.4375 142.613281 141.519531 142.164062 141.628906 C 141.714844 141.738281 141.273438 141.875 140.839844 142.039062 C 140.40625 142.203125 139.984375 142.394531 139.578125 142.613281 C 139.167969 142.828125 138.773438 143.070312 138.394531 143.339844 C 138.019531 143.605469 137.65625 143.894531 137.316406 144.207031 C 136.972656 144.519531 136.652344 144.851562 136.351562 145.203125 C 136.054688 145.554688 135.777344 145.925781 135.523438 146.3125 C 135.269531 146.699219 135.042969 147.101562 134.839844 147.515625 C 134.636719 147.929688 134.460938 148.359375 134.3125 148.796875 C 134.164062 149.234375 134.042969 149.679688 133.949219 150.132812 C 133.855469 150.585938 133.792969 151.042969 133.757812 151.503906 C 133.722656 151.964844 133.714844 152.425781 133.738281 152.886719 C 133.761719 153.347656 133.8125 153.804688 133.894531 154.261719 C 133.972656 154.714844 134.082031 155.164062 134.21875 155.605469 C 134.355469 156.046875 134.523438 156.480469 134.714844 156.898438 C 134.90625 157.320312 135.121094 157.726562 135.363281 158.121094 C 135.609375 158.515625 135.875 158.890625 136.164062 159.253906 C 136.457031 159.613281 136.765625 159.953125 137.101562 160.273438 C 137.433594 160.59375 137.785156 160.894531 138.15625 161.171875 C 138.527344 161.449219 138.914062 161.699219 139.320312 161.929688 C 139.472656 162.007812 139.636719 162.054688 139.808594 162.070312 C 139.980469 162.082031 140.152344 162.066406 140.316406 162.015625 C 140.484375 161.964844 140.632812 161.886719 140.769531 161.78125 C 140.90625 161.671875 141.015625 161.542969 141.101562 161.390625 C 141.1875 161.242188 141.242188 161.082031 141.265625 160.910156 C 141.289062 160.738281 141.28125 160.570312 141.238281 160.402344 C 141.195312 160.234375 141.125 160.078125 141.023438 159.9375 C 140.921875 159.796875 140.796875 159.683594 140.652344 159.589844 C 140.367188 159.429688 140.09375 159.253906 139.828125 159.058594 C 139.566406 158.867188 139.3125 158.660156 139.074219 158.4375 C 138.835938 158.214844 138.609375 157.980469 138.398438 157.730469 C 138.1875 157.484375 137.988281 157.222656 137.808594 156.953125 C 137.628906 156.679688 137.464844 156.398438 137.316406 156.109375 C 137.167969 155.820312 137.035156 155.519531 136.921875 155.214844 C 136.808594 154.910156 136.714844 154.597656 136.640625 154.28125 C 136.5625 153.964844 136.503906 153.644531 136.464844 153.320312 C 136.429688 152.996094 136.40625 152.671875 136.40625 152.34375 C 136.40625 152.019531 136.425781 151.695312 136.464844 151.371094 C 136.5 151.046875 136.558594 150.726562 136.632812 150.40625 C 136.707031 150.089844 136.800781 149.777344 136.914062 149.472656 C 137.027344 149.167969 137.15625 148.867188 137.300781 148.578125 C 137.449219 148.285156 137.613281 148.003906 137.792969 147.730469 C 137.972656 147.460938 138.167969 147.199219 138.378906 146.949219 C 138.589844 146.699219 138.816406 146.464844 139.054688 146.242188 C 139.292969 146.019531 139.542969 145.8125 139.804688 145.617188 C 140.070312 145.425781 140.34375 145.246094 140.625 145.085938 C 140.910156 144.921875 141.203125 144.777344 141.503906 144.652344 C 141.804688 144.523438 142.109375 144.414062 142.425781 144.324219 C 142.738281 144.234375 143.054688 144.160156 143.378906 144.105469 C 143.699219 144.050781 144.023438 144.015625 144.351562 144 C 144.679688 143.984375 145.003906 143.988281 145.332031 144.007812 C 145.65625 144.03125 145.980469 144.070312 146.300781 144.132812 C 146.621094 144.191406 146.9375 144.269531 147.25 144.367188 C 147.5625 144.464844 147.867188 144.578125 148.167969 144.710938 C 148.464844 144.84375 148.753906 144.992188 149.035156 145.160156 C 149.316406 145.324219 149.585938 145.507812 149.847656 145.707031 C 150.105469 145.902344 150.355469 146.117188 150.589844 146.34375 C 150.824219 146.570312 151.042969 146.8125 151.25 147.0625 C 151.457031 147.316406 151.648438 147.582031 151.820312 147.855469 C 151.996094 148.128906 152.15625 148.414062 152.296875 148.707031 C 152.441406 149.003906 152.5625 149.304688 152.671875 149.613281 C 152.777344 149.917969 152.863281 150.234375 152.933594 150.550781 C 153.003906 150.871094 153.054688 151.191406 153.085938 151.515625 C 153.117188 151.839844 153.132812 152.164062 153.125 152.492188 C 153.117188 152.816406 153.09375 153.140625 153.050781 153.464844 C 153.003906 153.789062 152.941406 154.109375 152.859375 154.421875 C 152.777344 154.738281 152.675781 155.046875 152.558594 155.351562 C 152.441406 155.65625 152.304688 155.953125 152.152344 156.238281 C 152 156.527344 151.828125 156.804688 151.644531 157.074219 C 151.457031 157.34375 151.257812 157.597656 151.039062 157.84375 C 150.824219 158.089844 150.59375 158.320312 150.351562 158.535156 C 150.109375 158.753906 149.851562 158.957031 149.585938 159.144531 C 149.320312 159.332031 149.042969 159.503906 148.753906 159.660156 C 148.46875 159.816406 148.171875 159.953125 147.867188 160.074219 C 147.566406 160.195312 147.253906 160.300781 146.941406 160.382812 C 146.625 160.46875 146.304688 160.535156 145.980469 160.582031 C 145.816406 160.617188 145.660156 160.683594 145.519531 160.78125 C 145.378906 160.875 145.257812 160.992188 145.160156 161.132812 C 145.066406 161.273438 144.996094 161.425781 144.957031 161.589844 C 144.917969 161.757812 144.914062 161.925781 144.9375 162.09375 C 144.960938 162.261719 145.015625 162.417969 145.101562 162.566406 C 145.1875 162.714844 145.296875 162.839844 145.429688 162.949219 C 145.5625 163.054688 145.710938 163.132812 145.871094 163.183594 C 146.035156 163.234375 146.203125 163.253906 146.371094 163.242188 C 147.101562 163.132812 147.816406 162.953125 148.511719 162.703125 C 149.207031 162.449219 149.871094 162.132812 150.5 161.75 C 151.132812 161.367188 151.71875 160.925781 152.261719 160.425781 C 152.804688 159.921875 153.292969 159.375 153.726562 158.777344 C 154.160156 158.179688 154.527344 157.542969 154.832031 156.871094 C 155.136719 156.199219 155.375 155.503906 155.539062 154.785156 C 155.703125 154.066406 155.796875 153.339844 155.816406 152.601562 C 155.835938 151.867188 155.78125 151.132812 155.65625 150.40625 Z M 155.65625 150.40625 " fill-opacity="1" fill-rule="nonzero"/><path fill="#000000" d="M 129.171875 156.113281 C 129.152344 155.984375 129.113281 155.859375 129.046875 155.742188 C 128.960938 155.554688 126.660156 151.089844 122.730469 150.425781 C 118.804688 149.761719 115.101562 153.242188 114.957031 153.394531 C 114.742188 153.597656 114.605469 153.847656 114.554688 154.140625 C 114.5 154.433594 114.539062 154.714844 114.675781 154.980469 C 114.773438 155.15625 117.054688 159.625 120.992188 160.296875 C 124.925781 160.972656 128.621094 157.480469 128.773438 157.320312 C 129.125 156.992188 129.257812 156.589844 129.171875 156.113281 Z M 121.425781 157.648438 C 119.800781 157.375 118.40625 155.875 117.625 154.695312 C 118.777344 153.863281 120.644531 152.835938 122.277344 153.101562 C 123.914062 153.367188 125.300781 154.875 126.074219 156.035156 C 124.980469 156.878906 123.070312 157.90625 121.425781 157.648438 Z M 121.425781 157.648438 " fill-opacity="1" fill-rule="nonzero"/><path fill="#ffbd59" d="M 126.082031 156.035156 C 124.945312 156.921875 123.070312 157.90625 121.433594 157.648438 C 119.800781 157.390625 118.414062 155.875 117.632812 154.695312 C 118.789062 153.863281 120.652344 152.835938 122.289062 153.101562 C 123.921875 153.367188 125.308594 154.910156 126.082031 156.035156 Z M 126.082031 156.035156 " fill-opacity="1" fill-rule="nonzero"/><path fill="#000000" d="M 135.84375 141.722656 C 138.332031 138.886719 137.621094 134.480469 137.488281 133.628906 C 137.429688 133.339844 137.292969 133.09375 137.074219 132.894531 C 136.855469 132.695312 136.601562 132.582031 136.308594 132.546875 C 134.859375 132.4375 133.429688 132.566406 132.023438 132.9375 C 131.839844 132.976562 131.671875 133.046875 131.519531 133.15625 C 131.367188 133.265625 131.242188 133.398438 131.144531 133.558594 C 131.050781 133.71875 130.988281 133.890625 130.960938 134.074219 C 130.9375 134.257812 130.949219 134.441406 131 134.621094 C 131.050781 134.800781 131.136719 134.960938 131.253906 135.105469 C 131.371094 135.253906 131.515625 135.367188 131.679688 135.453125 C 131.847656 135.539062 132.023438 135.589844 132.210938 135.601562 C 132.394531 135.613281 132.578125 135.589844 132.753906 135.527344 C 133.480469 135.332031 134.222656 135.226562 134.972656 135.207031 C 135.0625 136.605469 134.921875 138.753906 133.828125 139.929688 C 132.734375 141.109375 130.738281 141.472656 129.386719 141.527344 C 129.324219 140.722656 129.359375 139.925781 129.492188 139.132812 C 129.523438 138.957031 129.519531 138.78125 129.484375 138.605469 C 129.445312 138.433594 129.375 138.269531 129.269531 138.125 C 129.167969 137.976562 129.042969 137.855469 128.890625 137.757812 C 128.742188 137.660156 128.578125 137.597656 128.398438 137.566406 C 128.222656 137.535156 128.046875 137.539062 127.871094 137.574219 C 127.695312 137.613281 127.535156 137.683594 127.386719 137.785156 C 127.242188 137.886719 127.117188 138.015625 127.019531 138.164062 C 126.925781 138.316406 126.859375 138.476562 126.828125 138.65625 C 126.589844 140.132812 126.589844 141.609375 126.828125 143.085938 C 126.886719 143.375 127.027344 143.617188 127.246094 143.816406 C 127.46875 144.015625 127.722656 144.128906 128.019531 144.160156 C 128.242188 144.203125 133.207031 144.664062 135.84375 141.722656 Z M 135.84375 141.722656 " fill-opacity="1" fill-rule="nonzero"/><path fill="#000000" d="M 146.300781 167.59375 C 146.113281 167.511719 141.511719 165.632812 138.136719 167.691406 C 134.761719 169.746094 134.246094 174.71875 134.21875 174.929688 C 134.191406 175.222656 134.25 175.496094 134.402344 175.746094 C 134.554688 176 134.765625 176.183594 135.035156 176.296875 C 135.242188 176.382812 139.84375 178.253906 143.210938 176.207031 C 146.578125 174.160156 147.101562 169.179688 147.128906 168.964844 C 147.152344 168.671875 147.089844 168.398438 146.9375 168.144531 C 146.785156 167.894531 146.574219 167.707031 146.300781 167.59375 Z M 141.761719 173.910156 C 140.394531 174.796875 138.375 174.503906 137.054688 174.152344 C 137.347656 172.910156 138.019531 170.878906 139.496094 169.984375 C 140.972656 169.089844 142.882812 169.390625 144.203125 169.746094 C 143.921875 170.988281 143.234375 173.027344 141.761719 173.910156 Z M 141.761719 173.910156 " fill-opacity="1" fill-rule="nonzero"/><path fill="#ffbd59" d="M 144.203125 169.746094 C 143.921875 170.988281 143.234375 173.015625 141.761719 173.910156 C 140.285156 174.808594 138.375 174.503906 137.054688 174.152344 C 137.347656 172.910156 138.019531 170.878906 139.496094 169.984375 C 140.972656 169.089844 142.882812 169.390625 144.203125 169.746094 Z M 144.203125 169.746094 " fill-opacity="1" fill-rule="nonzero"/><g clip-path="url(#2b3c2e498d)"><path fill="#000000" d="M 288.355469 166.148438 C 286.347656 160.082031 283.878906 154.210938 280.945312 148.535156 C 278.011719 142.855469 274.652344 137.441406 270.863281 132.292969 C 267.074219 127.144531 262.90625 122.320312 258.359375 117.824219 C 253.808594 113.332031 248.9375 109.21875 243.738281 105.488281 C 242.996094 104.957031 242.1875 104.554688 241.3125 104.28125 C 240.4375 104.011719 239.542969 103.882812 238.628906 103.898438 C 237.714844 103.914062 236.824219 104.070312 235.960938 104.375 C 235.097656 104.675781 234.300781 105.101562 233.574219 105.660156 C 232.847656 106.214844 232.230469 106.871094 231.714844 107.628906 C 231.203125 108.382812 230.820312 109.199219 230.570312 110.078125 C 230.320312 110.957031 230.214844 111.851562 230.25 112.765625 C 230.289062 113.679688 230.472656 114.5625 230.796875 115.414062 L 226.585938 123.1875 L 224.703125 126.671875 L 206.277344 160.617188 L 204.222656 164.402344 L 194.515625 182.367188 C 194.246094 182.820312 194.046875 183.304688 193.921875 183.816406 C 193.792969 184.328125 193.742188 184.847656 193.765625 185.375 C 193.792969 185.902344 193.890625 186.414062 194.0625 186.914062 C 194.238281 187.410156 194.480469 187.875 194.789062 188.304688 C 195.097656 188.730469 195.460938 189.105469 195.878906 189.429688 C 196.296875 189.753906 196.753906 190.007812 197.246094 190.199219 C 197.738281 190.390625 198.25 190.507812 198.773438 190.550781 C 199.300781 190.59375 199.824219 190.558594 200.34375 190.449219 L 227.054688 185.238281 C 227.230469 185.203125 227.394531 185.136719 227.542969 185.039062 C 227.691406 184.941406 227.816406 184.816406 227.917969 184.671875 C 228.019531 184.523438 228.085938 184.363281 228.125 184.1875 C 228.160156 184.011719 228.164062 183.835938 228.128906 183.660156 C 228.09375 183.484375 228.027344 183.324219 227.929688 183.175781 C 227.828125 183.027344 227.703125 182.902344 227.554688 182.804688 C 227.40625 182.707031 227.242188 182.640625 227.066406 182.605469 C 226.890625 182.570312 226.714844 182.570312 226.539062 182.605469 L 199.800781 187.828125 C 199.253906 187.964844 198.722656 187.933594 198.195312 187.734375 C 197.671875 187.53125 197.253906 187.199219 196.9375 186.738281 C 196.613281 186.292969 196.4375 185.796875 196.414062 185.246094 C 196.390625 184.695312 196.523438 184.183594 196.816406 183.714844 L 196.816406 183.660156 L 199.90625 177.945312 C 200.191406 178.289062 200.496094 178.613281 200.816406 178.917969 C 201.140625 179.226562 201.480469 179.511719 201.839844 179.777344 C 202.199219 180.042969 202.570312 180.285156 202.960938 180.503906 C 203.347656 180.722656 203.746094 180.921875 204.15625 181.09375 C 204.570312 181.265625 204.988281 181.410156 205.417969 181.53125 C 205.847656 181.652344 206.285156 181.746094 206.722656 181.816406 C 207.164062 181.886719 207.609375 181.925781 208.054688 181.941406 C 208.5 181.957031 208.945312 181.945312 209.390625 181.90625 C 209.832031 181.867188 210.273438 181.800781 210.710938 181.710938 C 211.148438 181.617188 211.578125 181.5 212 181.355469 C 212.421875 181.210938 212.832031 181.042969 213.234375 180.851562 C 213.636719 180.65625 214.023438 180.441406 214.398438 180.199219 C 214.773438 179.957031 215.132812 179.695312 215.476562 179.414062 C 215.820312 179.128906 216.148438 178.824219 216.453125 178.5 C 216.761719 178.179688 217.046875 177.835938 217.3125 177.480469 C 217.578125 177.121094 217.820312 176.75 218.039062 176.363281 C 218.257812 175.976562 218.457031 175.578125 218.628906 175.164062 C 218.800781 174.753906 218.945312 174.335938 219.066406 173.90625 C 219.1875 173.480469 219.28125 173.042969 219.347656 172.605469 C 219.417969 172.164062 219.457031 171.722656 219.472656 171.277344 C 219.488281 170.832031 219.472656 170.390625 219.433594 169.945312 C 219.394531 169.503906 219.328125 169.0625 219.234375 168.628906 C 219.144531 168.191406 219.023438 167.765625 218.878906 167.34375 C 218.734375 166.921875 218.566406 166.511719 218.371094 166.109375 C 218.175781 165.710938 217.957031 165.324219 217.714844 164.949219 C 217.472656 164.574219 217.210938 164.21875 216.925781 163.875 C 216.640625 163.53125 216.335938 163.207031 216.011719 162.902344 C 215.6875 162.597656 215.34375 162.3125 214.984375 162.050781 C 214.628906 161.785156 214.253906 161.542969 213.863281 161.324219 C 213.476562 161.105469 213.078125 160.910156 212.664062 160.738281 C 212.253906 160.570312 211.832031 160.421875 211.402344 160.304688 C 210.972656 160.183594 210.539062 160.089844 210.097656 160.023438 C 209.945312 160.023438 209.804688 160.023438 209.652344 159.96875 L 220.039062 140.898438 C 220.332031 141.222656 220.648438 141.527344 220.980469 141.816406 C 221.3125 142.101562 221.660156 142.367188 222.023438 142.613281 C 222.390625 142.859375 222.765625 143.085938 223.15625 143.285156 C 223.550781 143.484375 223.949219 143.664062 224.363281 143.816406 C 224.773438 143.96875 225.195312 144.097656 225.621094 144.199219 C 226.050781 144.304688 226.484375 144.378906 226.917969 144.429688 C 227.355469 144.484375 227.792969 144.507812 228.234375 144.507812 C 228.675781 144.507812 229.113281 144.480469 229.550781 144.425781 C 229.984375 144.375 230.417969 144.296875 230.84375 144.191406 C 231.273438 144.085938 231.691406 143.957031 232.101562 143.804688 C 232.515625 143.648438 232.917969 143.472656 233.308594 143.269531 C 233.695312 143.066406 234.074219 142.84375 234.4375 142.59375 C 234.800781 142.347656 235.148438 142.082031 235.480469 141.792969 C 235.8125 141.503906 236.125 141.195312 236.417969 140.871094 C 236.714844 140.542969 236.988281 140.203125 237.242188 139.84375 C 237.496094 139.484375 237.726562 139.113281 237.9375 138.726562 C 238.144531 138.34375 238.332031 137.945312 238.492188 137.535156 C 238.65625 137.128906 238.792969 136.710938 238.902344 136.289062 C 239.015625 135.863281 239.101562 135.433594 239.164062 135 C 239.222656 134.566406 239.257812 134.128906 239.265625 133.6875 C 239.273438 133.25 239.257812 132.8125 239.210938 132.375 C 239.167969 131.941406 239.097656 131.507812 239.003906 131.078125 C 238.90625 130.652344 238.785156 130.230469 238.640625 129.816406 C 238.492188 129.402344 238.324219 129 238.128906 128.605469 C 237.933594 128.210938 237.714844 127.832031 237.476562 127.460938 C 237.234375 127.09375 236.972656 126.742188 236.691406 126.40625 C 236.410156 126.070312 236.109375 125.75 235.789062 125.449219 C 235.46875 125.148438 235.128906 124.871094 234.777344 124.609375 C 234.421875 124.347656 234.054688 124.109375 233.671875 123.894531 C 233.289062 123.675781 232.894531 123.484375 232.488281 123.3125 C 232.082031 123.144531 231.667969 123 231.246094 122.878906 C 230.824219 122.757812 230.394531 122.664062 229.960938 122.59375 L 232.414062 118.074219 C 236.125 121.328125 240.40625 124.082031 243.882812 127.550781 C 244.007812 127.664062 244.148438 127.753906 244.308594 127.816406 C 244.464844 127.878906 244.628906 127.910156 244.800781 127.910156 C 244.972656 127.910156 245.136719 127.878906 245.296875 127.816406 C 245.453125 127.753906 245.597656 127.664062 245.71875 127.550781 C 245.71875 127.550781 245.773438 127.503906 245.800781 127.488281 C 245.921875 127.355469 246.011719 127.203125 246.070312 127.035156 C 246.132812 126.867188 246.15625 126.695312 246.148438 126.515625 C 246.140625 126.335938 246.097656 126.167969 246.023438 126.003906 C 245.945312 125.84375 245.84375 125.703125 245.710938 125.582031 C 242.4375 122.570312 238.992188 119.773438 235.371094 117.1875 C 235.058594 116.964844 234.773438 116.714844 234.511719 116.433594 C 234.25 116.15625 234.015625 115.855469 233.8125 115.53125 C 233.613281 115.207031 233.441406 114.863281 233.308594 114.507812 C 233.171875 114.148438 233.074219 113.78125 233.011719 113.402344 C 232.949219 113.027344 232.925781 112.648438 232.9375 112.265625 C 232.949219 111.882812 233 111.503906 233.085938 111.132812 C 233.171875 110.761719 233.292969 110.402344 233.453125 110.050781 C 233.609375 109.703125 233.800781 109.375 234.023438 109.0625 C 234.246094 108.753906 234.5 108.464844 234.777344 108.203125 C 235.058594 107.941406 235.359375 107.710938 235.683594 107.507812 C 236.011719 107.308594 236.351562 107.136719 236.710938 107.003906 C 237.070312 106.867188 237.4375 106.769531 237.816406 106.707031 C 238.195312 106.644531 238.574219 106.617188 238.957031 106.632812 C 239.339844 106.644531 239.71875 106.691406 240.089844 106.777344 C 240.464844 106.863281 240.828125 106.988281 241.175781 107.144531 C 241.523438 107.300781 241.855469 107.492188 242.167969 107.714844 C 247.246094 111.359375 252.007812 115.378906 256.449219 119.773438 C 260.894531 124.167969 264.96875 128.878906 268.671875 133.910156 C 272.371094 138.941406 275.660156 144.234375 278.527344 149.78125 C 281.394531 155.328125 283.8125 161.0625 285.777344 166.988281 C 285.898438 167.351562 285.984375 167.722656 286.03125 168.101562 C 286.078125 168.480469 286.089844 168.859375 286.0625 169.242188 C 286.035156 169.621094 285.96875 169.996094 285.867188 170.363281 C 285.765625 170.734375 285.632812 171.089844 285.460938 171.429688 C 285.289062 171.769531 285.085938 172.09375 284.851562 172.394531 C 284.617188 172.695312 284.351562 172.972656 284.0625 173.222656 C 283.773438 173.472656 283.464844 173.691406 283.132812 173.878906 C 282.796875 174.070312 282.449219 174.222656 282.085938 174.34375 C 281.722656 174.464844 281.351562 174.546875 280.972656 174.59375 C 280.59375 174.644531 280.210938 174.652344 279.832031 174.625 C 279.449219 174.597656 279.074219 174.535156 278.703125 174.433594 C 278.335938 174.332031 277.980469 174.195312 277.636719 174.023438 C 277.296875 173.851562 276.972656 173.652344 276.671875 173.417969 C 276.367188 173.183594 276.09375 172.921875 275.84375 172.632812 C 275.589844 172.34375 275.371094 172.03125 275.183594 171.699219 C 274.992188 171.367188 274.839844 171.019531 274.71875 170.660156 C 272.222656 163.054688 268.910156 155.820312 264.777344 148.957031 C 260.648438 142.097656 255.800781 135.78125 250.242188 130.011719 C 250.117188 129.886719 249.96875 129.792969 249.804688 129.722656 C 249.640625 129.65625 249.46875 129.621094 249.292969 129.621094 C 249.113281 129.621094 248.941406 129.65625 248.777344 129.722656 C 248.613281 129.792969 248.46875 129.886719 248.339844 130.011719 C 248.21875 130.136719 248.125 130.28125 248.058594 130.441406 C 247.992188 130.601562 247.960938 130.769531 247.960938 130.945312 C 247.960938 131.117188 247.992188 131.285156 248.058594 131.445312 C 248.125 131.605469 248.21875 131.75 248.339844 131.875 C 259.980469 143.582031 267.496094 158.019531 273.164062 173.53125 L 232.742188 181.410156 C 232.566406 181.445312 232.402344 181.511719 232.25 181.609375 C 232.101562 181.707031 231.976562 181.832031 231.875 181.980469 C 231.773438 182.128906 231.707031 182.292969 231.667969 182.46875 C 231.632812 182.644531 231.632812 182.820312 231.667969 182.996094 C 231.699219 183.171875 231.765625 183.335938 231.867188 183.484375 C 231.964844 183.636719 232.089844 183.761719 232.238281 183.859375 C 232.386719 183.960938 232.550781 184.03125 232.726562 184.066406 C 232.902344 184.101562 233.078125 184.101562 233.257812 184.070312 L 275.402344 175.84375 C 276.136719 176.355469 276.933594 176.742188 277.789062 177 C 278.644531 177.261719 279.523438 177.386719 280.417969 177.371094 C 281.3125 177.355469 282.183594 177.203125 283.03125 176.914062 C 283.878906 176.628906 284.664062 176.214844 285.378906 175.679688 C 286.097656 175.148438 286.714844 174.515625 287.234375 173.785156 C 287.75 173.058594 288.144531 172.265625 288.414062 171.414062 C 288.683594 170.5625 288.8125 169.6875 288.804688 168.796875 C 288.796875 167.902344 288.652344 167.03125 288.371094 166.183594 Z M 209.75 162.683594 C 210.09375 162.734375 210.433594 162.808594 210.769531 162.90625 C 211.105469 163 211.433594 163.117188 211.757812 163.253906 C 212.078125 163.390625 212.390625 163.546875 212.691406 163.71875 C 212.992188 163.894531 213.28125 164.089844 213.558594 164.300781 C 213.835938 164.511719 214.097656 164.742188 214.347656 164.984375 C 214.597656 165.230469 214.828125 165.488281 215.042969 165.761719 C 215.261719 166.035156 215.460938 166.320312 215.640625 166.621094 C 215.820312 166.917969 215.980469 167.226562 216.121094 167.542969 C 216.265625 167.863281 216.382812 168.1875 216.484375 168.523438 C 216.585938 168.855469 216.664062 169.195312 216.722656 169.539062 C 216.78125 169.882812 216.816406 170.226562 216.832031 170.574219 C 216.847656 170.921875 216.839844 171.269531 216.8125 171.617188 C 216.78125 171.964844 216.730469 172.308594 216.660156 172.648438 C 216.585938 172.988281 216.496094 173.324219 216.378906 173.652344 C 216.265625 173.984375 216.132812 174.304688 215.976562 174.617188 C 215.824219 174.929688 215.648438 175.230469 215.457031 175.519531 C 215.265625 175.8125 215.054688 176.089844 214.828125 176.351562 C 214.601562 176.617188 214.359375 176.867188 214.097656 177.101562 C 213.839844 177.335938 213.570312 177.550781 213.28125 177.753906 C 212.996094 177.953125 212.699219 178.132812 212.390625 178.296875 C 212.082031 178.460938 211.765625 178.601562 211.4375 178.726562 C 211.113281 178.847656 210.78125 178.953125 210.441406 179.035156 C 210.101562 179.113281 209.757812 179.175781 209.410156 179.214844 C 209.0625 179.253906 208.714844 179.269531 208.367188 179.265625 C 208.019531 179.261719 207.671875 179.234375 207.324219 179.1875 C 206.980469 179.136719 206.636719 179.066406 206.300781 178.976562 C 205.964844 178.886719 205.632812 178.773438 205.308594 178.644531 C 204.988281 178.511719 204.675781 178.359375 204.371094 178.1875 C 204.066406 178.015625 203.773438 177.828125 203.492188 177.621094 C 203.214844 177.410156 202.949219 177.1875 202.695312 176.945312 C 202.445312 176.707031 202.207031 176.449219 201.988281 176.179688 C 201.769531 175.910156 201.566406 175.625 201.382812 175.328125 L 206.550781 165.785156 L 208.285156 162.585938 C 208.773438 162.578125 209.265625 162.609375 209.75 162.683594 Z M 236.472656 134.738281 C 236.347656 135.554688 236.105469 136.339844 235.746094 137.085938 C 235.386719 137.832031 234.925781 138.507812 234.363281 139.117188 C 233.800781 139.730469 233.160156 140.242188 232.445312 140.664062 C 231.730469 141.082031 230.96875 141.390625 230.164062 141.582031 C 229.355469 141.777344 228.535156 141.847656 227.707031 141.796875 C 226.878906 141.75 226.078125 141.582031 225.296875 141.292969 C 224.519531 141.003906 223.800781 140.609375 223.140625 140.105469 C 222.480469 139.605469 221.90625 139.015625 221.421875 138.34375 L 226.496094 128.976562 L 228.574219 125.164062 C 228.871094 125.175781 229.167969 125.207031 229.464844 125.253906 C 230.003906 125.335938 230.535156 125.46875 231.050781 125.65625 C 231.566406 125.84375 232.058594 126.078125 232.527344 126.359375 C 232.996094 126.640625 233.433594 126.96875 233.839844 127.335938 C 234.242188 127.703125 234.609375 128.109375 234.933594 128.550781 C 235.257812 128.988281 235.539062 129.457031 235.773438 129.953125 C 236.003906 130.445312 236.1875 130.960938 236.320312 131.492188 C 236.453125 132.019531 236.53125 132.558594 236.554688 133.105469 C 236.582031 133.652344 236.554688 134.195312 236.472656 134.738281 Z M 236.472656 134.738281 " fill-opacity="1" fill-rule="nonzero"/></g><path fill="#ff363d" d="M 236.472656 134.738281 C 236.347656 135.554688 236.105469 136.339844 235.746094 137.085938 C 235.386719 137.832031 234.925781 138.507812 234.363281 139.117188 C 233.800781 139.730469 233.160156 140.242188 232.445312 140.664062 C 231.730469 141.082031 230.96875 141.390625 230.164062 141.582031 C 229.355469 141.777344 228.535156 141.847656 227.707031 141.796875 C 226.878906 141.75 226.078125 141.582031 225.296875 141.292969 C 224.519531 141.003906 223.800781 140.609375 223.140625 140.105469 C 222.480469 139.605469 221.90625 139.015625 221.421875 138.34375 L 226.496094 128.976562 L 228.574219 125.164062 C 228.871094 125.175781 229.167969 125.207031 229.464844 125.253906 C 230.003906 125.335938 230.535156 125.46875 231.050781 125.65625 C 231.566406 125.84375 232.058594 126.078125 232.527344 126.359375 C 232.996094 126.640625 233.433594 126.96875 233.839844 127.335938 C 234.242188 127.703125 234.609375 128.109375 234.933594 128.550781 C 235.257812 128.988281 235.539062 129.457031 235.773438 129.953125 C 236.003906 130.445312 236.1875 130.960938 236.320312 131.492188 C 236.453125 132.019531 236.53125 132.558594 236.554688 133.105469 C 236.582031 133.652344 236.554688 134.195312 236.472656 134.738281 Z M 236.472656 134.738281 " fill-opacity="1" fill-rule="nonzero"/><path fill="#ff363d" d="M 216.75 172.183594 C 216.621094 173.027344 216.371094 173.832031 215.996094 174.597656 C 215.617188 175.363281 215.136719 176.058594 214.546875 176.675781 C 213.960938 177.292969 213.289062 177.8125 212.542969 178.226562 C 211.796875 178.640625 211.003906 178.933594 210.164062 179.101562 C 209.328125 179.273438 208.484375 179.316406 207.632812 179.230469 C 206.78125 179.144531 205.964844 178.929688 205.179688 178.59375 C 204.394531 178.257812 203.675781 177.808594 203.027344 177.253906 C 202.382812 176.695312 201.832031 176.054688 201.382812 175.328125 L 206.550781 165.785156 L 208.285156 162.585938 C 208.773438 162.578125 209.257812 162.609375 209.742188 162.683594 C 210.285156 162.765625 210.8125 162.898438 211.328125 163.085938 C 211.84375 163.273438 212.335938 163.507812 212.808594 163.792969 C 213.277344 164.074219 213.714844 164.402344 214.121094 164.769531 C 214.523438 165.140625 214.890625 165.546875 215.214844 165.988281 C 215.539062 166.425781 215.820312 166.894531 216.054688 167.390625 C 216.285156 167.886719 216.46875 168.402344 216.601562 168.933594 C 216.730469 169.464844 216.808594 170.003906 216.835938 170.550781 C 216.859375 171.097656 216.832031 171.640625 216.75 172.183594 Z M 216.75 172.183594 " fill-opacity="1" fill-rule="nonzero"/><path fill="#000000" d="M 231.375 162.984375 C 231.199219 162.953125 231.023438 162.953125 230.847656 162.992188 C 230.671875 163.027344 230.511719 163.097656 230.367188 163.199219 C 230.21875 163.300781 230.097656 163.425781 230 163.578125 C 229.90625 163.726562 229.839844 163.890625 229.808594 164.066406 C 229.730469 164.488281 229.675781 164.917969 229.648438 165.347656 C 229.621094 165.777344 229.617188 166.210938 229.640625 166.640625 C 229.660156 167.070312 229.707031 167.5 229.78125 167.925781 C 229.851562 168.351562 229.949219 168.769531 230.070312 169.183594 C 230.195312 169.597656 230.339844 170.003906 230.507812 170.402344 C 230.679688 170.800781 230.871094 171.183594 231.085938 171.558594 C 231.300781 171.933594 231.539062 172.292969 231.796875 172.640625 C 232.050781 172.988281 232.328125 173.320312 232.625 173.632812 C 232.921875 173.949219 233.234375 174.246094 233.566406 174.523438 C 233.898438 174.800781 234.246094 175.058594 234.605469 175.292969 C 234.96875 175.53125 235.339844 175.746094 235.726562 175.941406 C 236.113281 176.132812 236.511719 176.304688 236.917969 176.453125 C 237.324219 176.597656 237.738281 176.722656 238.160156 176.820312 C 238.582031 176.917969 239.007812 176.992188 239.4375 177.039062 C 239.867188 177.089844 240.296875 177.113281 240.730469 177.109375 C 241.164062 177.109375 241.59375 177.082031 242.023438 177.03125 C 242.453125 176.976562 242.878906 176.898438 243.300781 176.796875 C 243.71875 176.695312 244.132812 176.570312 244.539062 176.417969 C 244.945312 176.269531 245.339844 176.09375 245.722656 175.898438 C 246.109375 175.703125 246.480469 175.484375 246.839844 175.242188 C 247.199219 175.003906 247.542969 174.742188 247.875 174.460938 C 248.203125 174.179688 248.515625 173.882812 248.808594 173.566406 C 249.101562 173.25 249.375 172.914062 249.628906 172.566406 C 249.882812 172.21875 250.117188 171.855469 250.328125 171.476562 C 250.539062 171.101562 250.730469 170.714844 250.894531 170.316406 C 251.0625 169.917969 251.203125 169.511719 251.324219 169.09375 C 251.441406 168.679688 251.535156 168.257812 251.605469 167.832031 C 251.671875 167.40625 251.714844 166.980469 251.734375 166.546875 C 251.753906 166.117188 251.746094 165.683594 251.714844 165.253906 C 251.683594 164.824219 251.625 164.398438 251.542969 163.972656 C 251.460938 163.550781 251.351562 163.132812 251.222656 162.722656 C 251.089844 162.308594 250.933594 161.90625 250.753906 161.515625 C 250.578125 161.121094 250.375 160.738281 250.152344 160.371094 C 249.929688 160 249.683594 159.644531 249.417969 159.304688 C 249.152344 158.964844 248.867188 158.640625 248.5625 158.332031 C 248.261719 158.023438 247.941406 157.738281 247.601562 157.464844 C 247.265625 157.195312 246.914062 156.945312 246.546875 156.71875 C 246.179688 156.488281 245.800781 156.28125 245.410156 156.097656 C 245.015625 155.914062 244.617188 155.753906 244.207031 155.617188 C 243.796875 155.480469 243.378906 155.367188 242.957031 155.277344 C 242.53125 155.1875 242.105469 155.125 241.675781 155.085938 C 241.242188 155.046875 240.8125 155.035156 240.378906 155.046875 C 239.945312 155.058594 239.515625 155.09375 239.089844 155.15625 C 238.660156 155.21875 238.238281 155.308594 237.820312 155.417969 C 237.402344 155.53125 236.992188 155.667969 236.589844 155.824219 C 236.1875 155.984375 235.796875 156.167969 235.414062 156.375 C 235.035156 156.578125 234.667969 156.808594 234.316406 157.054688 C 233.960938 157.304688 233.625 157.574219 233.300781 157.859375 C 233.074219 158.117188 232.960938 158.414062 232.960938 158.753906 C 232.960938 159.09375 233.074219 159.390625 233.300781 159.648438 C 233.527344 159.902344 233.808594 160.050781 234.148438 160.09375 C 234.488281 160.132812 234.796875 160.058594 235.078125 159.863281 C 235.320312 159.648438 235.578125 159.445312 235.84375 159.261719 C 236.113281 159.074219 236.390625 158.902344 236.679688 158.75 C 236.964844 158.59375 237.261719 158.460938 237.566406 158.339844 C 237.867188 158.21875 238.179688 158.121094 238.492188 158.035156 C 238.808594 157.953125 239.128906 157.890625 239.453125 157.84375 C 239.773438 157.796875 240.101562 157.769531 240.425781 157.761719 C 240.753906 157.753906 241.078125 157.765625 241.402344 157.796875 C 241.726562 157.828125 242.050781 157.875 242.367188 157.945312 C 242.6875 158.011719 243.003906 158.097656 243.3125 158.203125 C 243.621094 158.308594 243.921875 158.429688 244.21875 158.570312 C 244.511719 158.710938 244.796875 158.867188 245.074219 159.039062 C 245.347656 159.214844 245.613281 159.402344 245.867188 159.609375 C 246.121094 159.8125 246.363281 160.03125 246.59375 160.261719 C 246.820312 160.496094 247.035156 160.742188 247.234375 161 C 247.433594 161.257812 247.617188 161.523438 247.785156 161.804688 C 247.953125 162.082031 248.105469 162.371094 248.238281 162.667969 C 248.371094 162.964844 248.488281 163.269531 248.585938 163.578125 C 248.683594 163.890625 248.765625 164.203125 248.828125 164.523438 C 248.886719 164.84375 248.929688 165.167969 248.953125 165.492188 C 248.976562 165.816406 248.980469 166.140625 248.96875 166.464844 C 248.953125 166.792969 248.917969 167.113281 248.867188 167.4375 C 248.8125 167.757812 248.742188 168.074219 248.652344 168.386719 C 248.5625 168.699219 248.453125 169.007812 248.328125 169.308594 C 248.203125 169.609375 248.058594 169.898438 247.898438 170.183594 C 247.738281 170.46875 247.5625 170.742188 247.371094 171.003906 C 247.175781 171.265625 246.96875 171.519531 246.746094 171.757812 C 246.527344 171.996094 246.289062 172.21875 246.042969 172.429688 C 245.792969 172.644531 245.535156 172.839844 245.261719 173.019531 C 244.992188 173.199219 244.710938 173.363281 244.417969 173.511719 C 244.128906 173.660156 243.832031 173.792969 243.523438 173.90625 C 243.21875 174.015625 242.90625 174.113281 242.589844 174.1875 C 242.273438 174.265625 241.953125 174.324219 241.628906 174.363281 C 241.304688 174.402344 240.980469 174.421875 240.652344 174.421875 C 240.324219 174.425781 240 174.40625 239.675781 174.367188 C 239.351562 174.332031 239.03125 174.277344 238.714844 174.203125 C 238.394531 174.128906 238.082031 174.035156 237.777344 173.921875 C 237.46875 173.8125 237.171875 173.683594 236.878906 173.539062 C 236.585938 173.390625 236.304688 173.230469 236.03125 173.050781 C 235.761719 172.871094 235.5 172.675781 235.25 172.46875 C 235 172.257812 234.761719 172.035156 234.539062 171.796875 C 234.316406 171.558594 234.105469 171.308594 233.914062 171.046875 C 233.71875 170.785156 233.539062 170.515625 233.378906 170.230469 C 233.214844 169.949219 233.070312 169.660156 232.941406 169.359375 C 232.816406 169.058594 232.703125 168.753906 232.613281 168.441406 C 232.519531 168.128906 232.445312 167.8125 232.390625 167.492188 C 232.335938 167.171875 232.300781 166.847656 232.285156 166.523438 C 232.269531 166.195312 232.269531 165.871094 232.292969 165.546875 C 232.3125 165.222656 232.351562 164.898438 232.414062 164.578125 C 232.449219 164.40625 232.453125 164.230469 232.421875 164.054688 C 232.390625 163.878906 232.324219 163.714844 232.226562 163.566406 C 232.128906 163.414062 232.007812 163.289062 231.859375 163.1875 C 231.710938 163.089844 231.546875 163.019531 231.375 162.984375 Z M 231.375 162.984375 " fill-opacity="1" fill-rule="nonzero"/><path fill="#000000" d="M 249.105469 137.46875 C 248.980469 137.199219 248.785156 136.996094 248.523438 136.855469 C 248.261719 136.71875 247.984375 136.667969 247.691406 136.714844 C 247.480469 136.714844 242.511719 137.476562 240.648438 140.996094 C 238.78125 144.511719 240.914062 149.113281 241.011719 149.300781 C 241.210938 149.734375 241.550781 149.992188 242.023438 150.070312 C 242.160156 150.082031 242.292969 150.082031 242.425781 150.070312 C 242.628906 150.070312 247.59375 149.300781 249.453125 145.78125 C 251.308594 142.261719 249.195312 137.660156 249.105469 137.46875 Z M 247.070312 144.511719 C 246.308594 145.976562 244.40625 146.789062 243.074219 147.171875 C 242.648438 145.824219 242.257812 143.722656 243.074219 142.253906 C 243.890625 140.78125 245.738281 139.992188 247.078125 139.59375 C 247.472656 140.949219 247.851562 143.042969 247.070312 144.511719 Z M 247.070312 144.511719 " fill-opacity="1" fill-rule="nonzero"/><path fill="#ffbd59" d="M 247.070312 144.511719 C 246.308594 145.976562 244.40625 146.789062 243.074219 147.171875 C 242.648438 145.824219 242.257812 143.722656 243.074219 142.253906 C 243.890625 140.78125 245.738281 139.992188 247.078125 139.59375 C 247.472656 140.949219 247.851562 143.042969 247.070312 144.511719 Z M 247.070312 144.511719 " fill-opacity="1" fill-rule="nonzero"/><path fill="#000000" d="M 258.058594 155.75 C 258.21875 155.851562 258.386719 155.914062 258.574219 155.941406 C 258.757812 155.972656 258.9375 155.964844 259.117188 155.917969 C 259.300781 155.871094 259.460938 155.789062 259.609375 155.675781 C 259.757812 155.5625 259.875 155.421875 259.964844 155.261719 C 260.054688 155.097656 260.109375 154.921875 260.125 154.738281 C 260.144531 154.554688 260.121094 154.371094 260.066406 154.195312 C 260.007812 154.019531 259.917969 153.859375 259.792969 153.722656 C 259.671875 153.582031 259.527344 153.472656 259.355469 153.394531 C 258.027344 152.691406 256.617188 152.226562 255.128906 151.992188 C 254.835938 151.957031 254.558594 152.007812 254.300781 152.152344 C 254.042969 152.296875 253.855469 152.503906 253.734375 152.773438 C 253.644531 152.96875 251.621094 157.515625 253.582031 160.953125 C 255.484375 164.207031 259.890625 164.941406 260.742188 165.085938 C 261.039062 165.121094 261.3125 165.066406 261.574219 164.921875 C 261.832031 164.78125 262.023438 164.574219 262.148438 164.304688 C 262.714844 162.96875 263.046875 161.578125 263.140625 160.128906 C 263.183594 159.9375 263.179688 159.746094 263.136719 159.554688 C 263.089844 159.363281 263.007812 159.1875 262.886719 159.03125 C 262.765625 158.875 262.621094 158.753906 262.445312 158.660156 C 262.269531 158.570312 262.085938 158.519531 261.886719 158.511719 C 261.691406 158.5 261.5 158.53125 261.316406 158.605469 C 261.132812 158.679688 260.976562 158.785156 260.839844 158.929688 C 260.703125 159.074219 260.605469 159.238281 260.539062 159.421875 C 260.476562 159.609375 260.457031 159.800781 260.476562 159.996094 C 260.425781 160.746094 260.292969 161.476562 260.078125 162.195312 C 258.71875 161.832031 256.761719 161.042969 255.945312 159.617188 C 255.128906 158.1875 255.464844 156.195312 255.847656 154.882812 C 256.617188 155.085938 257.355469 155.375 258.058594 155.75 Z M 258.058594 155.75 " fill-opacity="1" fill-rule="nonzero"/><path fill="#000000" d="M 228.183594 154.820312 C 227.296875 151 222.746094 148.910156 222.558594 148.8125 C 222.289062 148.691406 222.007812 148.664062 221.71875 148.726562 C 221.429688 148.789062 221.1875 148.929688 220.988281 149.148438 C 220.855469 149.316406 217.59375 153.066406 218.484375 156.902344 C 219.371094 160.742188 223.917969 162.824219 224.105469 162.914062 C 224.375 163.035156 224.65625 163.066406 224.949219 163.003906 C 225.238281 162.941406 225.480469 162.796875 225.679688 162.574219 C 225.8125 162.390625 229.070312 158.660156 228.183594 154.820312 Z M 224.285156 159.945312 C 223.199219 159.277344 221.496094 157.976562 221.101562 156.308594 C 220.710938 154.644531 221.628906 152.914062 222.382812 151.78125 C 223.464844 152.453125 225.171875 153.738281 225.5625 155.414062 C 225.953125 157.089844 225.039062 158.84375 224.285156 159.945312 Z M 224.285156 159.945312 " fill-opacity="1" fill-rule="nonzero"/><path fill="#ffbd59" d="M 224.285156 159.945312 C 223.199219 159.277344 221.496094 157.976562 221.101562 156.308594 C 220.710938 154.644531 221.628906 152.914062 222.382812 151.78125 C 223.464844 152.453125 225.171875 153.738281 225.5625 155.414062 C 225.953125 157.089844 225.039062 158.84375 224.285156 159.945312 Z M 224.285156 159.945312 " fill-opacity="1" fill-rule="nonzero"/><path fill="#f9a31e" d="M 138.304688 118.613281 C 131.875 123.394531 126.0625 128.832031 120.863281 134.921875 C 115.664062 141.011719 111.210938 147.601562 107.503906 154.695312 C 107.425781 154.851562 107.382812 155.015625 107.367188 155.191406 C 107.355469 155.363281 107.375 155.53125 107.425781 155.699219 C 107.480469 155.863281 107.5625 156.015625 107.675781 156.148438 C 107.785156 156.28125 107.917969 156.386719 108.074219 156.46875 L 108.207031 156.53125 C 107.648438 157.648438 107.125 158.746094 106.644531 159.773438 L 106.492188 159.730469 C 106.332031 159.65625 106.160156 159.617188 105.980469 159.609375 C 105.800781 159.605469 105.628906 159.632812 105.460938 159.695312 C 105.296875 159.757812 105.148438 159.851562 105.019531 159.976562 C 104.886719 160.097656 104.789062 160.242188 104.714844 160.40625 C 102.886719 164.460938 101.3125 168.613281 100 172.867188 C 99.882812 173.230469 99.734375 173.582031 99.550781 173.917969 C 99.367188 174.25 99.152344 174.566406 98.910156 174.859375 C 98.664062 175.152344 98.394531 175.421875 98.09375 175.660156 C 97.796875 175.902344 97.480469 176.109375 97.140625 176.289062 C 96.800781 176.46875 96.449219 176.613281 96.082031 176.722656 C 95.714844 176.832031 95.339844 176.902344 94.960938 176.941406 C 94.578125 176.976562 94.199219 176.976562 93.816406 176.9375 C 93.4375 176.898438 93.0625 176.824219 92.695312 176.710938 C 92.332031 176.601562 91.984375 176.453125 91.648438 176.273438 C 91.3125 176.09375 91 175.878906 90.707031 175.636719 C 90.410156 175.394531 90.144531 175.128906 89.902344 174.832031 C 89.664062 174.539062 89.453125 174.222656 89.273438 173.890625 C 89.097656 173.554688 88.953125 173.203125 88.839844 172.839844 C 88.730469 172.476562 88.65625 172.105469 88.621094 171.726562 C 88.582031 171.347656 88.582031 170.972656 88.621094 170.59375 C 88.65625 170.214844 88.730469 169.84375 88.839844 169.480469 C 90.691406 163.511719 92.996094 157.722656 95.761719 152.117188 C 98.523438 146.507812 101.710938 141.152344 105.316406 136.042969 C 108.925781 130.9375 112.910156 126.140625 117.277344 121.660156 C 121.640625 117.175781 126.328125 113.0625 131.339844 109.316406 C 131.644531 109.0625 131.96875 108.839844 132.320312 108.648438 C 132.667969 108.460938 133.035156 108.308594 133.414062 108.191406 C 133.792969 108.078125 134.183594 108 134.578125 107.964844 C 134.972656 107.929688 135.371094 107.933594 135.765625 107.980469 C 136.160156 108.023438 136.546875 108.109375 136.921875 108.230469 C 137.300781 108.355469 137.664062 108.515625 138.007812 108.714844 C 138.351562 108.910156 138.671875 109.140625 138.96875 109.40625 C 139.269531 109.667969 139.535156 109.957031 139.773438 110.273438 C 140.011719 110.59375 140.214844 110.929688 140.382812 111.289062 C 140.550781 111.648438 140.683594 112.023438 140.773438 112.40625 C 140.867188 112.792969 140.917969 113.183594 140.929688 113.582031 C 140.941406 113.976562 140.914062 114.371094 140.84375 114.761719 C 140.777344 115.152344 140.667969 115.53125 140.523438 115.898438 C 140.375 116.269531 140.191406 116.617188 139.976562 116.949219 C 139.757812 117.28125 139.507812 117.585938 139.226562 117.867188 C 138.945312 118.148438 138.636719 118.398438 138.304688 118.613281 Z M 138.304688 118.613281 " fill-opacity="1" fill-rule="nonzero"/><path stroke-linecap="butt" transform="matrix(0.888387, 0, 0, 0.886308, 85.890892, 103.893473)" fill="none" stroke-linejoin="miter" d="M 34.278814 42.928568 C 30.923893 48.261435 27.867969 53.76178 25.119836 59.429604 " stroke="#000000" stroke-width="1" stroke-opacity="1" stroke-miterlimit="10"/><path stroke-linecap="butt" transform="matrix(0.888387, 0, 0, 0.886308, 85.890892, 103.893473)" fill="none" stroke-linejoin="miter" d="M 18.361627 74.277892 C 18.361627 74.277892 20.291915 69.540015 23.361031 63.092094 " stroke="#000000" stroke-width="1" stroke-opacity="1" stroke-miterlimit="10"/><path fill="#f9a31e" d="M 282.101562 174.355469 C 281.738281 174.476562 281.367188 174.558594 280.984375 174.605469 C 280.605469 174.652344 280.226562 174.660156 279.84375 174.632812 C 279.464844 174.605469 279.089844 174.539062 278.71875 174.4375 C 278.351562 174.335938 277.996094 174.199219 277.652344 174.027344 C 277.3125 173.855469 276.992188 173.652344 276.691406 173.417969 C 276.386719 173.183594 276.113281 172.921875 275.863281 172.632812 C 275.613281 172.34375 275.394531 172.03125 275.207031 171.699219 C 275.019531 171.367188 274.863281 171.023438 274.746094 170.660156 C 272.246094 163.050781 268.925781 155.816406 264.792969 148.957031 C 260.65625 142.097656 255.804688 135.78125 250.242188 130.011719 C 250.117188 129.886719 249.96875 129.792969 249.804688 129.722656 C 249.640625 129.65625 249.46875 129.621094 249.292969 129.621094 C 249.113281 129.621094 248.941406 129.65625 248.777344 129.722656 C 248.613281 129.792969 248.46875 129.886719 248.339844 130.011719 C 247.453125 129.125 246.566406 128.285156 245.730469 127.53125 C 245.730469 127.53125 245.78125 127.488281 245.808594 127.46875 C 245.929688 127.335938 246.019531 127.1875 246.078125 127.019531 C 246.140625 126.851562 246.164062 126.675781 246.15625 126.5 C 246.148438 126.320312 246.105469 126.148438 246.03125 125.988281 C 245.957031 125.824219 245.851562 125.683594 245.71875 125.5625 C 242.445312 122.558594 238.996094 119.765625 235.371094 117.1875 C 235.058594 116.964844 234.773438 116.714844 234.511719 116.433594 C 234.25 116.15625 234.015625 115.855469 233.8125 115.53125 C 233.613281 115.207031 233.441406 114.863281 233.308594 114.507812 C 233.171875 114.148438 233.074219 113.78125 233.011719 113.402344 C 232.949219 113.027344 232.925781 112.648438 232.9375 112.265625 C 232.949219 111.882812 233 111.503906 233.085938 111.132812 C 233.171875 110.761719 233.292969 110.402344 233.453125 110.050781 C 233.609375 109.703125 233.800781 109.375 234.023438 109.0625 C 234.246094 108.753906 234.5 108.464844 234.777344 108.203125 C 235.058594 107.941406 235.359375 107.710938 235.683594 107.507812 C 236.011719 107.308594 236.351562 107.136719 236.710938 107.003906 C 237.070312 106.867188 237.4375 106.769531 237.816406 106.707031 C 238.195312 106.644531 238.574219 106.617188 238.957031 106.632812 C 239.339844 106.644531 239.71875 106.691406 240.089844 106.777344 C 240.464844 106.863281 240.828125 106.988281 241.175781 107.144531 C 241.523438 107.300781 241.855469 107.492188 242.167969 107.714844 C 247.246094 111.359375 252.007812 115.378906 256.449219 119.773438 C 260.894531 124.167969 264.96875 128.878906 268.671875 133.910156 C 272.371094 138.941406 275.660156 144.234375 278.527344 149.78125 C 281.394531 155.328125 283.8125 161.0625 285.777344 166.988281 C 285.898438 167.351562 285.980469 167.722656 286.027344 168.101562 C 286.074219 168.480469 286.085938 168.859375 286.054688 169.238281 C 286.027344 169.621094 285.964844 169.996094 285.863281 170.363281 C 285.761719 170.730469 285.628906 171.085938 285.457031 171.425781 C 285.285156 171.769531 285.082031 172.089844 284.851562 172.390625 C 284.617188 172.695312 284.355469 172.96875 284.066406 173.222656 C 283.78125 173.472656 283.472656 173.695312 283.140625 173.882812 C 282.808594 174.074219 282.460938 174.230469 282.101562 174.355469 Z M 282.101562 174.355469 " fill-opacity="1" fill-rule="nonzero"/><path stroke-linecap="butt" transform="matrix(0.888387, 0, 0, 0.886308, 85.890892, 103.893473)" fill="none" stroke-linejoin="miter" d="M 199.659272 51.051274 C 194.998438 42.487835 188.429301 34.999785 182.849491 29.468589 " stroke="#000000" stroke-width="1" stroke-opacity="1" stroke-miterlimit="10"/><path stroke-linecap="butt" transform="matrix(0.888387, 0, 0, 0.886308, 85.890892, 103.893473)" fill="none" stroke-linejoin="miter" d="M 179.907889 26.669935 C 175.370172 22.469752 172.059221 20.019277 172.059221 20.019277 " stroke="#000000" stroke-width="1" stroke-opacity="1" stroke-miterlimit="10"/><path fill="#ff363d" d="M 197.339844 127.53125 C 197.339844 127.886719 197.304688 128.242188 197.234375 128.59375 C 197.164062 128.945312 197.0625 129.285156 196.921875 129.613281 C 196.785156 129.945312 196.617188 130.257812 196.417969 130.554688 C 196.222656 130.851562 195.996094 131.125 195.742188 131.378906 C 195.488281 131.632812 195.210938 131.859375 194.914062 132.054688 C 194.617188 132.253906 194.300781 132.421875 193.972656 132.558594 C 193.640625 132.695312 193.300781 132.800781 192.949219 132.867188 C 192.597656 132.9375 192.242188 132.972656 191.882812 132.972656 C 191.527344 132.972656 191.171875 132.9375 190.820312 132.867188 C 190.46875 132.800781 190.128906 132.695312 189.796875 132.558594 C 189.464844 132.421875 189.152344 132.253906 188.855469 132.054688 C 188.554688 131.859375 188.28125 131.632812 188.027344 131.378906 C 187.773438 131.125 187.546875 130.851562 187.347656 130.554688 C 187.148438 130.257812 186.980469 129.945312 186.84375 129.613281 C 186.707031 129.285156 186.605469 128.945312 186.535156 128.59375 C 186.464844 128.242188 186.429688 127.886719 186.429688 127.53125 C 186.429688 127.175781 186.464844 126.820312 186.535156 126.46875 C 186.605469 126.121094 186.707031 125.777344 186.84375 125.449219 C 186.980469 125.117188 187.148438 124.804688 187.347656 124.507812 C 187.546875 124.210938 187.773438 123.9375 188.027344 123.683594 C 188.28125 123.429688 188.554688 123.203125 188.855469 123.007812 C 189.152344 122.808594 189.464844 122.640625 189.796875 122.503906 C 190.128906 122.367188 190.46875 122.261719 190.820312 122.195312 C 191.171875 122.125 191.527344 122.089844 191.882812 122.089844 C 192.242188 122.089844 192.597656 122.125 192.949219 122.195312 C 193.300781 122.261719 193.640625 122.367188 193.972656 122.503906 C 194.300781 122.640625 194.617188 122.808594 194.914062 123.007812 C 195.210938 123.203125 195.488281 123.429688 195.742188 123.683594 C 195.996094 123.9375 196.222656 124.210938 196.417969 124.507812 C 196.617188 124.804688 196.785156 125.117188 196.925781 125.449219 C 197.0625 125.777344 197.164062 126.121094 197.234375 126.46875 C 197.304688 126.820312 197.339844 127.175781 197.339844 127.53125 Z M 197.339844 127.53125 " fill-opacity="1" fill-rule="nonzero"/><g clip-path="url(#41159c5f2f)"><path stroke-linecap="butt" transform="matrix(0.888387, 0, 0, 0.886308, 85.890892, 103.893473)" fill="none" stroke-linejoin="miter" d="M 125.450882 26.669935 C 125.450882 27.071002 125.411308 27.472069 125.332162 27.868729 C 125.253016 28.265388 125.138694 28.648826 124.980401 29.019041 C 124.826506 29.393664 124.637434 29.74625 124.413186 30.081207 C 124.193336 30.416164 123.938309 30.724677 123.652503 31.011153 C 123.366697 31.29763 123.054509 31.553255 122.720336 31.773621 C 122.386163 31.998395 122.030005 32.18791 121.660656 32.342166 C 121.28691 32.496423 120.90437 32.615421 120.508639 32.690345 C 120.112908 32.769677 119.712779 32.809343 119.308254 32.809343 C 118.908126 32.809343 118.507998 32.769677 118.112267 32.690345 C 117.716535 32.615421 117.333995 32.496423 116.960249 32.342166 C 116.586503 32.18791 116.234742 31.998395 115.900569 31.773621 C 115.561999 31.553255 115.254208 31.29763 114.968402 31.011153 C 114.682596 30.724677 114.42757 30.416164 114.203322 30.081207 C 113.979074 29.74625 113.790003 29.393664 113.636107 29.019041 C 113.482212 28.648826 113.367889 28.265388 113.288743 27.868729 C 113.209597 27.472069 113.170024 27.071002 113.170024 26.669935 C 113.170024 26.268869 113.209597 25.867802 113.288743 25.471142 C 113.367889 25.07889 113.482212 24.691045 113.636107 24.32083 C 113.790003 23.946207 113.979074 23.59362 114.203322 23.258664 C 114.42757 22.923707 114.682596 22.615194 114.968402 22.328717 C 115.254208 22.042241 115.561999 21.786616 115.900569 21.56625 C 116.234742 21.341476 116.586503 21.151961 116.960249 20.997704 C 117.333995 20.843448 117.716535 20.72445 118.112267 20.649525 C 118.507998 20.570193 118.908126 20.530528 119.308254 20.530528 C 119.712779 20.530528 120.112908 20.570193 120.508639 20.649525 C 120.90437 20.72445 121.28691 20.843448 121.660656 20.997704 C 122.030005 21.151961 122.386163 21.341476 122.720336 21.56625 C 123.054509 21.786616 123.366697 22.042241 123.652503 22.328717 C 123.938309 22.615194 124.193336 22.923707 124.413186 23.258664 C 124.637434 23.59362 124.826506 23.946207 124.984798 24.32083 C 125.138694 24.691045 125.253016 25.07889 125.332162 25.471142 C 125.411308 25.867802 125.450882 26.268869 125.450882 26.669935 Z M 125.450882 26.669935 " stroke="#231f20" stroke-width="2" stroke-opacity="1" stroke-miterlimit="10"/></g><path fill="#ff363d" d="M 102.921875 123.25 C 102.921875 123.632812 102.847656 124 102.703125 124.351562 C 102.554688 124.707031 102.347656 125.015625 102.074219 125.289062 C 101.804688 125.558594 101.492188 125.765625 101.140625 125.910156 C 100.785156 126.058594 100.417969 126.132812 100.035156 126.132812 C 99.652344 126.132812 99.28125 126.058594 98.929688 125.910156 C 98.574219 125.765625 98.261719 125.558594 97.992188 125.289062 C 97.722656 125.015625 97.511719 124.707031 97.367188 124.351562 C 97.21875 124 97.148438 123.632812 97.148438 123.25 C 97.148438 122.867188 97.21875 122.5 97.367188 122.148438 C 97.511719 121.796875 97.722656 121.484375 97.992188 121.214844 C 98.261719 120.945312 98.574219 120.734375 98.929688 120.589844 C 99.28125 120.441406 99.652344 120.371094 100.035156 120.371094 C 100.417969 120.371094 100.785156 120.441406 101.140625 120.589844 C 101.492188 120.734375 101.804688 120.945312 102.074219 121.214844 C 102.347656 121.484375 102.554688 121.796875 102.703125 122.148438 C 102.847656 122.5 102.921875 122.867188 102.921875 123.25 Z M 102.921875 123.25 " fill-opacity="1" fill-rule="nonzero"/><g clip-path="url(#3a7ab3ae6d)"><path stroke-linecap="butt" transform="matrix(0.888387, 0, 0, 0.886308, 85.890892, 103.893473)" fill="none" stroke-linejoin="miter" d="M 19.170677 21.839504 C 19.170677 22.271422 19.087134 22.685711 18.924444 23.08237 C 18.757358 23.483437 18.524316 23.831616 18.216525 24.140129 C 17.913131 24.444235 17.56137 24.677823 17.165639 24.840894 C 16.765511 25.008373 16.352192 25.092112 15.921284 25.092112 C 15.490377 25.092112 15.072661 25.008373 14.67693 24.840894 C 14.276801 24.677823 13.92504 24.444235 13.621647 24.140129 C 13.318253 23.831616 13.080814 23.483437 12.918124 23.08237 C 12.751038 22.685711 12.671892 22.271422 12.671892 21.839504 C 12.671892 21.407586 12.751038 20.993297 12.918124 20.596637 C 13.080814 20.199978 13.318253 19.847392 13.621647 19.543286 C 13.92504 19.23918 14.276801 19.001185 14.67693 18.838114 C 15.072661 18.670635 15.490377 18.591303 15.921284 18.591303 C 16.352192 18.591303 16.765511 18.670635 17.165639 18.838114 C 17.56137 19.001185 17.913131 19.23918 18.216525 19.543286 C 18.524316 19.847392 18.757358 20.199978 18.924444 20.596637 C 19.087134 20.993297 19.170677 21.407586 19.170677 21.839504 Z M 19.170677 21.839504 " stroke="#231f20" stroke-width="1" stroke-opacity="1" stroke-miterlimit="10"/></g><path fill="#ffbd59" d="M 276.289062 186.507812 C 276.289062 186.886719 276.214844 187.253906 276.070312 187.609375 C 275.921875 187.960938 275.714844 188.273438 275.445312 188.542969 C 275.171875 188.8125 274.863281 189.019531 274.507812 189.167969 C 274.152344 189.3125 273.785156 189.386719 273.402344 189.386719 C 273.019531 189.386719 272.652344 189.3125 272.296875 189.167969 C 271.945312 189.019531 271.632812 188.8125 271.359375 188.542969 C 271.089844 188.273438 270.882812 187.960938 270.734375 187.609375 C 270.589844 187.253906 270.515625 186.886719 270.515625 186.507812 C 270.515625 186.125 270.589844 185.757812 270.734375 185.402344 C 270.882812 185.050781 271.089844 184.738281 271.359375 184.46875 C 271.632812 184.199219 271.945312 183.992188 272.296875 183.84375 C 272.652344 183.699219 273.019531 183.625 273.402344 183.625 C 273.785156 183.625 274.152344 183.699219 274.507812 183.84375 C 274.863281 183.992188 275.171875 184.199219 275.445312 184.46875 C 275.714844 184.738281 275.921875 185.050781 276.070312 185.402344 C 276.214844 185.757812 276.289062 186.125 276.289062 186.507812 Z M 276.289062 186.507812 " fill-opacity="1" fill-rule="nonzero"/><g clip-path="url(#ef96af7613)"><path stroke-linecap="butt" transform="matrix(0.888387, 0, 0, 0.886308, 85.890892, 103.893473)" fill="none" stroke-linejoin="miter" d="M 214.318914 93.211773 C 214.318914 93.639284 214.235371 94.053573 214.072681 94.45464 C 213.905595 94.851299 213.672553 95.203885 213.369159 95.507991 C 213.061368 95.812097 212.714004 96.045685 212.313876 96.213164 C 211.913748 96.376235 211.500429 96.459974 211.069521 96.459974 C 210.638614 96.459974 210.225295 96.376235 209.825167 96.213164 C 209.429435 96.045685 209.077674 95.812097 208.769883 95.507991 C 208.46649 95.203885 208.233448 94.851299 208.066361 94.45464 C 207.903672 94.053573 207.820129 93.639284 207.820129 93.211773 C 207.820129 92.779855 207.903672 92.365566 208.066361 91.964499 C 208.233448 91.56784 208.46649 91.215254 208.769883 90.911148 C 209.077674 90.607042 209.429435 90.373454 209.825167 90.205976 C 210.225295 90.042904 210.638614 89.959165 211.069521 89.959165 C 211.500429 89.959165 211.913748 90.042904 212.313876 90.205976 C 212.714004 90.373454 213.061368 90.607042 213.369159 90.911148 C 213.672553 91.215254 213.905595 91.56784 214.072681 91.964499 C 214.235371 92.365566 214.318914 92.779855 214.318914 93.211773 Z M 214.318914 93.211773 " stroke="#231f20" stroke-width="1" stroke-opacity="1" stroke-miterlimit="10"/></g><path stroke-linecap="butt" transform="matrix(0.888387, 0, 0, 0.886308, 85.890892, 103.893473)" fill-opacity="1" fill="#ff363d" fill-rule="nonzero" stroke-linejoin="miter" d="M 96.15798 36.000249 C 96.15798 36.493869 96.065643 36.965454 95.876571 37.419408 C 95.6875 37.873363 95.419282 38.27443 95.071918 38.622609 C 94.724554 38.970788 94.324426 39.239635 93.871533 39.42915 C 93.414244 39.614258 92.943763 39.711219 92.451298 39.711219 C 91.958833 39.711219 91.483955 39.614258 91.031063 39.42915 C 90.573773 39.239635 90.173645 38.970788 89.826281 38.622609 C 89.478917 38.27443 89.210699 37.873363 89.021628 37.419408 C 88.832556 36.965454 88.740219 36.493869 88.740219 36.000249 C 88.740219 35.506628 88.832556 35.035044 89.021628 34.581089 C 89.210699 34.127134 89.478917 33.726067 89.826281 33.377889 C 90.173645 33.02971 90.573773 32.760863 91.031063 32.571348 C 91.483955 32.38624 91.958833 32.289279 92.451298 32.289279 C 92.943763 32.289279 93.414244 32.38624 93.871533 32.571348 C 94.324426 32.760863 94.724554 33.02971 95.071918 33.377889 C 95.419282 33.726067 95.6875 34.127134 95.876571 34.581089 C 96.065643 35.035044 96.15798 35.506628 96.15798 36.000249 Z M 96.15798 36.000249 " stroke="#231f20" stroke-width="2" stroke-opacity="1" stroke-miterlimit="10"/><path stroke-linecap="butt" transform="matrix(0.888387, 0, 0, 0.886308, 85.890892, 103.893473)" fill-opacity="1" fill="#ffbd59" fill-rule="nonzero" stroke-linejoin="miter" d="M 119.308254 57.657858 C 119.308254 58.041296 119.273078 58.415919 119.198329 58.790542 C 119.12358 59.165165 119.013654 59.526565 118.868553 59.879152 C 118.723451 60.231738 118.543174 60.566695 118.332117 60.884022 C 118.121061 61.196943 117.879225 61.492234 117.611007 61.761081 C 117.342789 62.029928 117.048189 62.272331 116.731605 62.483883 C 116.41502 62.695434 116.080847 62.871727 115.729086 63.017169 C 115.377324 63.162611 115.016769 63.272794 114.643023 63.347719 C 114.269277 63.422643 113.891134 63.457902 113.508594 63.457902 C 113.130451 63.457902 112.752308 63.422643 112.378562 63.347719 C 112.004815 63.272794 111.64426 63.162611 111.292499 63.017169 C 110.940738 62.871727 110.602168 62.695434 110.285583 62.483883 C 109.968998 62.272331 109.678795 62.029928 109.410578 61.761081 C 109.137963 61.492234 108.900524 61.196943 108.689467 60.884022 C 108.474014 60.566695 108.298133 60.231738 108.153032 59.879152 C 108.00793 59.526565 107.893608 59.165165 107.823256 58.790542 C 107.748507 58.415919 107.708934 58.041296 107.708934 57.657858 C 107.708934 57.278828 107.748507 56.899798 107.823256 56.529582 C 107.893608 56.15496 108.00793 55.793559 108.153032 55.440972 C 108.298133 55.088386 108.474014 54.753429 108.689467 54.436102 C 108.900524 54.123181 109.137963 53.82789 109.410578 53.559043 C 109.678795 53.290196 109.968998 53.047793 110.285583 52.836242 C 110.602168 52.62469 110.940738 52.448397 111.292499 52.302955 C 111.64426 52.157513 112.004815 52.04733 112.378562 51.972405 C 112.752308 51.897481 113.130451 51.857815 113.508594 51.857815 C 113.891134 51.857815 114.269277 51.897481 114.643023 51.972405 C 115.016769 52.04733 115.377324 52.157513 115.729086 52.302955 C 116.080847 52.448397 116.41502 52.62469 116.731605 52.836242 C 117.048189 53.047793 117.342789 53.290196 117.611007 53.559043 C 117.879225 53.82789 118.121061 54.123181 118.332117 54.436102 C 118.543174 54.753429 118.723451 55.088386 118.868553 55.440972 C 119.013654 55.793559 119.12358 56.15496 119.198329 56.529582 C 119.273078 56.899798 119.308254 57.278828 119.308254 57.657858 Z M 119.308254 57.657858 " stroke="#231f20" stroke-width="2" stroke-opacity="1" stroke-miterlimit="10"/><g fill="#fd3c41" fill-opacity="1"><g transform="translate(118.810681, 228.548124)"><g><path d="M 14.453125 -28.46875 L 14.453125 -8.03125 C 14.453125 -5.25 13.6875 -3.128906 12.15625 -1.671875 C 10.625 -0.210938 8.4375 0.515625 5.59375 0.515625 C 4.832031 0.515625 4.082031 0.421875 3.34375 0.234375 C 2.613281 0.0546875 1.992188 -0.160156 1.484375 -0.421875 C 0.972656 -0.691406 0.515625 -0.960938 0.109375 -1.234375 C -0.285156 -1.515625 -0.578125 -1.75 -0.765625 -1.9375 L -1.0625 -2.203125 L 1 -7.625 C 2.351562 -6.332031 3.582031 -5.6875 4.6875 -5.6875 C 5.675781 -5.6875 6.46875 -6.015625 7.0625 -6.671875 C 7.664062 -7.328125 7.96875 -8.332031 7.96875 -9.6875 L 7.96875 -28.46875 Z M 14.453125 -28.46875 "/></g></g></g><g fill="#fd3c41" fill-opacity="1"><g transform="translate(134.987383, 228.548124)"><g><path d="M 12.5625 -28.984375 C 14.101562 -28.984375 15.609375 -28.757812 17.078125 -28.3125 C 18.546875 -27.863281 19.640625 -27.421875 20.359375 -26.984375 L 21.390625 -26.28125 L 18.765625 -21.109375 C 18.554688 -21.253906 18.269531 -21.429688 17.90625 -21.640625 C 17.539062 -21.859375 16.847656 -22.148438 15.828125 -22.515625 C 14.816406 -22.890625 13.875 -23.078125 13 -23.078125 C 11.925781 -23.078125 11.09375 -22.847656 10.5 -22.390625 C 9.914062 -21.929688 9.625 -21.3125 9.625 -20.53125 C 9.625 -20.132812 9.757812 -19.769531 10.03125 -19.4375 C 10.3125 -19.101562 10.785156 -18.742188 11.453125 -18.359375 C 12.117188 -17.984375 12.703125 -17.679688 13.203125 -17.453125 C 13.710938 -17.222656 14.5 -16.878906 15.5625 -16.421875 C 17.394531 -15.640625 18.960938 -14.578125 20.265625 -13.234375 C 21.566406 -11.890625 22.21875 -10.363281 22.21875 -8.65625 C 22.21875 -7.019531 21.921875 -5.59375 21.328125 -4.375 C 20.742188 -3.15625 19.941406 -2.203125 18.921875 -1.515625 C 17.898438 -0.828125 16.765625 -0.316406 15.515625 0.015625 C 14.273438 0.347656 12.929688 0.515625 11.484375 0.515625 C 10.242188 0.515625 9.023438 0.390625 7.828125 0.140625 C 6.628906 -0.109375 5.628906 -0.421875 4.828125 -0.796875 C 4.023438 -1.179688 3.300781 -1.554688 2.65625 -1.921875 C 2.007812 -2.296875 1.535156 -2.609375 1.234375 -2.859375 L 0.796875 -3.25 L 4.03125 -8.6875 C 4.3125 -8.457031 4.691406 -8.164062 5.171875 -7.8125 C 5.660156 -7.457031 6.519531 -6.976562 7.75 -6.375 C 8.976562 -5.78125 10.0625 -5.484375 11 -5.484375 C 13.738281 -5.484375 15.109375 -6.414062 15.109375 -8.28125 C 15.109375 -8.664062 15.007812 -9.023438 14.8125 -9.359375 C 14.625 -9.691406 14.28125 -10.023438 13.78125 -10.359375 C 13.289062 -10.703125 12.851562 -10.96875 12.46875 -11.15625 C 12.09375 -11.351562 11.472656 -11.648438 10.609375 -12.046875 C 9.742188 -12.453125 9.101562 -12.757812 8.6875 -12.96875 C 6.96875 -13.820312 5.632812 -14.882812 4.6875 -16.15625 C 3.75 -17.4375 3.28125 -18.8125 3.28125 -20.28125 C 3.28125 -22.832031 4.222656 -24.921875 6.109375 -26.546875 C 7.992188 -28.171875 10.144531 -28.984375 12.5625 -28.984375 Z M 12.5625 -28.984375 "/></g></g></g><g fill="#fd3c41" fill-opacity="1"><g transform="translate(158.165937, 228.548124)"><g><path d="M 8.5625 -11.421875 L 8.5625 0 L 2.0625 0 L 2.0625 -28.46875 L 8.5625 -28.46875 L 8.5625 -17.109375 L 17.734375 -17.109375 L 17.734375 -28.46875 L 24.21875 -28.46875 L 24.21875 0 L 17.734375 0 L 17.734375 -11.421875 Z M 8.5625 -11.421875 "/></g></g></g><g fill="#fd3c41" fill-opacity="1"><g transform="translate(184.448765, 228.548124)"><g><path d="M 16.53125 -28.46875 L 28.015625 0 L 21.046875 0 L 18.9375 -5.6875 L 8.109375 -5.6875 L 6 0 L -0.96875 0 L 10.515625 -28.46875 Z M 16.734375 -11.390625 L 13.5625 -19.671875 L 13.484375 -19.671875 L 10.3125 -11.390625 Z M 16.734375 -11.390625 "/></g></g></g><g fill="#fd3c41" fill-opacity="1"><g transform="translate(211.490415, 228.548124)"><g><path d="M 2.0625 -28.46875 L 12.25 -28.46875 C 14.988281 -28.46875 17.21875 -27.734375 18.9375 -26.265625 C 20.664062 -24.804688 21.53125 -22.722656 21.53125 -20.015625 C 21.53125 -17.921875 21.003906 -16.164062 19.953125 -14.75 C 18.910156 -13.332031 17.492188 -12.335938 15.703125 -11.765625 L 25.5 0 L 17.25 0 L 8.5625 -11.25 L 8.5625 0 L 2.0625 0 Z M 8.5625 -15.828125 L 9.3125 -15.828125 C 9.914062 -15.828125 10.421875 -15.835938 10.828125 -15.859375 C 11.242188 -15.890625 11.71875 -15.972656 12.25 -16.109375 C 12.78125 -16.242188 13.203125 -16.4375 13.515625 -16.6875 C 13.835938 -16.945312 14.113281 -17.316406 14.34375 -17.796875 C 14.582031 -18.285156 14.703125 -18.875 14.703125 -19.5625 C 14.703125 -20.25 14.582031 -20.832031 14.34375 -21.3125 C 14.113281 -21.800781 13.835938 -22.171875 13.515625 -22.421875 C 13.203125 -22.671875 12.78125 -22.863281 12.25 -23 C 11.71875 -23.144531 11.242188 -23.226562 10.828125 -23.25 C 10.421875 -23.269531 9.914062 -23.28125 9.3125 -23.28125 L 8.5625 -23.28125 Z M 8.5625 -15.828125 "/></g></g></g><g fill="#fd3c41" fill-opacity="1"><g transform="translate(236.186615, 228.548124)"><g><path d="M 18.359375 -28.46875 L 18.359375 -22.765625 L 8.5625 -22.765625 L 8.5625 -17.109375 L 17.9375 -17.109375 L 17.9375 -11.421875 L 8.5625 -11.421875 L 8.5625 -5.6875 L 18.359375 -5.6875 L 18.359375 0 L 2.0625 0 L 2.0625 -28.46875 Z M 18.359375 -28.46875 "/></g></g></g></svg>